<svg width="684" height="236" viewBox="0 0 684 236" fill="none" xmlns="http://www.w3.org/2000/svg">
<g clip-path="url(#clip0_1065_1035)">
<g filter="url(#filter0_f_1065_1035)">
<ellipse cx="342" cy="151.5" rx="342" ry="52.5" fill="#E7B276" fill-opacity="0.32"/>
</g>
<path d="M295.371 237.299C295.371 240.105 294.029 243.399 291.345 247.181C290.857 246.693 290.552 246.327 290.43 246.083C292.26 242.667 293.175 239.739 293.175 237.299C293.175 228.759 286.953 221.805 274.509 216.437C264.749 212.289 254.806 210.215 244.68 210.215C233.7 210.215 221.988 212.655 209.544 217.535C205.884 219.121 201.309 221.012 195.819 223.208C190.329 225.404 183.924 228.027 176.604 231.077C164.526 235.957 153.546 238.397 143.664 238.397C125.73 238.397 111.334 232.236 100.476 219.914C90.1062 208.08 84.9212 193.135 84.9212 175.079C84.9212 152.509 93.0342 133.294 109.26 117.434C125.608 101.452 145.006 93.461 167.454 93.461C174.408 93.461 182.46 94.01 191.61 95.108C199.418 96.084 203.383 96.511 203.505 96.389C225.831 83.945 245.656 77.723 262.98 77.723C275.302 77.723 281.463 81.261 281.463 88.337C281.463 94.315 277.803 98.768 270.483 101.696C264.993 103.892 258.832 104.99 252 104.99C248.828 104.99 244.314 104.746 238.458 104.258C232.602 103.648 225.404 102.733 216.864 101.513C210.032 107.247 202.163 114.933 193.257 124.571C190.085 128.109 187.096 132.013 184.29 136.283C181.484 140.553 178.861 145.25 176.421 150.374C172.151 159.158 169.894 166.905 169.65 173.615C169.528 178.129 170.87 181.789 173.676 184.595C173.554 184.107 173.493 183.619 173.493 183.131C173.493 182.643 173.493 182.094 173.493 181.484C173.493 170.138 177.763 158.548 186.303 146.714C196.307 132.684 208.263 125.669 222.171 125.669C231.809 125.669 236.628 131.281 236.628 142.505C236.628 154.339 231.199 166.234 220.341 178.19C209.483 189.902 198.137 195.758 186.303 195.758C185.693 195.758 185.083 195.697 184.473 195.575C183.985 195.575 183.436 195.514 182.826 195.392C185.876 199.174 189.719 201.065 194.355 201.065C205.945 201.065 218.389 192.586 231.687 175.628L233.151 177.275C220.097 194.843 207.165 203.627 194.355 203.627C187.523 203.627 181.606 200.211 176.604 193.379C165.014 187.645 159.219 176.909 159.219 161.171C159.219 146.653 165.563 132.318 178.251 118.166C182.277 113.652 186.181 109.809 189.963 106.637C193.867 103.343 197.588 100.659 201.126 98.585C201.126 97.609 196.185 96.816 186.303 96.206C182.521 95.962 179.044 95.779 175.872 95.657C172.7 95.535 169.894 95.474 167.454 95.474C145.86 95.474 127.011 103.343 110.907 119.081C94.9252 134.819 86.9342 153.485 86.9342 175.079C86.9342 192.281 91.9972 206.677 102.123 218.267C112.737 230.345 126.584 236.384 143.664 236.384C152.448 236.384 163.062 233.944 175.506 229.064C179.288 227.478 183.924 225.587 189.414 223.391C195.026 221.195 201.675 218.572 209.361 215.522C222.171 210.642 233.944 208.202 244.68 208.202C256.27 208.202 266.823 210.276 276.339 214.424C289.027 219.792 295.371 227.417 295.371 237.299ZM279.45 88.337C279.45 82.603 273.96 79.736 262.98 79.736C252.61 79.736 238.519 86.385 220.707 99.683C235.469 101.879 245.9 102.977 252 102.977C270.3 102.977 279.45 98.097 279.45 88.337ZM230.406 141.224C230.406 133.05 226.38 128.963 218.328 128.963C208.202 128.963 198.564 135.124 189.414 147.446C180.874 158.914 176.604 169.894 176.604 180.386C176.604 183.07 177.275 186.242 178.617 189.902C181.057 191.488 183.558 192.281 186.12 192.281C196.246 192.281 206.311 185.815 216.315 172.883C225.709 160.683 230.406 150.13 230.406 141.224ZM260.225 192.368C248.711 192.368 239.705 179.258 239.705 160.79C239.705 142.436 248.255 130.124 261.137 130.124C272.765 130.124 281.657 142.094 281.657 160.448C281.657 178.916 273.107 192.368 260.225 192.368ZM273.107 163.982C273.107 156.002 270.941 133.772 259.313 133.772C252.701 133.772 248.255 141.638 248.255 154.862C248.255 162.728 249.965 188.72 261.935 188.72C268.889 188.72 273.107 179.372 273.107 163.982ZM306.326 187.694C307.124 187.808 307.694 188.492 307.694 189.29C307.694 190.202 306.896 191 305.984 191H286.946C286.034 191 285.236 190.202 285.236 189.29C285.236 188.492 285.806 187.808 286.604 187.58C291.506 186.782 292.532 184.274 292.532 177.662V115.988C292.532 110.288 289.796 108.92 287.744 108.578C286.946 108.464 286.262 107.78 286.262 106.868C286.262 106.07 286.946 105.386 287.744 105.158C289.796 104.816 293.9 103.79 298.802 100.598C299.03 100.484 299.372 100.37 299.6 100.484C300.17 100.598 300.512 101.054 300.512 101.624V178.232C300.512 184.958 301.424 187.01 306.326 187.694ZM333.267 187.694C334.065 187.808 334.635 188.492 334.635 189.29C334.635 190.202 333.837 191 332.925 191H313.887C312.975 191 312.177 190.202 312.177 189.29C312.177 188.492 312.747 187.808 313.545 187.58C318.447 186.782 319.473 184.274 319.473 177.662V115.988C319.473 110.288 316.737 108.92 314.685 108.578C313.887 108.464 313.203 107.78 313.203 106.868C313.203 106.07 313.887 105.386 314.685 105.158C316.737 104.816 320.841 103.79 325.743 100.598C325.971 100.484 326.313 100.37 326.541 100.484C327.111 100.598 327.453 101.054 327.453 101.624V178.232C327.453 184.958 328.365 187.01 333.267 187.694ZM375.598 169.226C376.396 169.226 376.966 169.91 376.738 170.708C373.774 183.362 368.872 192.368 357.358 192.368C346.072 192.368 339.232 180.512 339.232 162.272C339.232 143.576 346.984 130.01 358.954 130.01C370.012 130.01 374.686 143.69 375.142 150.872C375.256 152.81 374.23 154.292 372.862 154.292H347.782C346.87 154.292 346.072 155.09 346.186 156.002C346.642 165.008 347.212 169.91 350.518 175.952C353.14 180.854 356.674 183.248 361.006 183.248C367.276 183.248 372.064 178.004 374.458 170.024C374.572 169.568 375.028 169.226 375.598 169.226ZM348.124 150.074H362.032C364.768 150.074 365.452 147.794 365.11 145.4C363.856 137.99 361.69 134.798 356.332 134.798C351.43 134.798 347.782 139.472 346.528 148.136C346.414 149.162 347.098 150.074 348.124 150.074ZM418.566 169.226C419.25 169.226 419.82 169.796 419.706 170.48C416.286 185.756 410.586 192.368 400.44 192.368C389.838 192.368 382.314 180.056 382.314 162.956C382.314 151.898 385.164 142.778 390.294 136.85C394.17 132.404 398.73 130.01 403.176 130.01C406.824 130.01 417.426 131.492 417.426 136.736L417.654 149.732C417.654 150.416 416.97 150.986 416.286 150.986C415.716 150.986 415.146 150.644 415.032 150.074C411.726 136.622 407.736 133.886 402.606 133.886C394.854 133.886 389.61 143.12 389.61 156.914C389.61 172.19 395.652 182.792 404.43 182.792C410.358 182.792 415.032 178.688 417.54 170.024C417.654 169.568 418.11 169.226 418.566 169.226ZM450.708 174.014C451.392 173.9 452.076 174.584 451.962 175.268C450.822 186.098 445.692 192.368 439.08 192.368C432.354 192.368 430.644 186.326 430.644 176.18V136.85C430.644 136.166 430.074 135.596 429.39 135.596H427.794C426.426 135.596 425.286 134.456 425.286 133.088C425.286 132.062 425.742 131.264 426.654 130.808C430.644 128.642 435.774 122.6 436.914 117.812C437.028 117.47 437.37 117.128 437.712 117.128C438.282 117.128 438.624 117.584 438.624 118.04V130.124C438.624 130.808 439.194 131.378 439.878 131.378H446.148C447.288 131.378 448.2 132.29 448.2 133.544C448.2 134.684 447.288 135.596 446.148 135.596H439.878C439.194 135.596 438.624 136.166 438.624 136.85V174.584C438.624 182.45 438.966 185.414 442.728 185.414C445.806 185.414 448.428 180.626 449.568 175.04C449.682 174.47 450.138 174.014 450.708 174.014ZM467.063 113.936C464.327 113.936 462.275 111.086 462.275 107.21C462.275 103.448 464.441 100.484 467.063 100.484C469.913 100.484 471.965 103.448 471.965 107.21C471.965 111.086 469.913 113.936 467.063 113.936ZM477.437 187.694C478.235 187.808 478.919 188.492 478.919 189.29C478.919 190.202 478.121 191 477.209 191H458.057C457.145 191 456.347 190.202 456.347 189.29C456.347 188.492 457.031 187.808 457.829 187.694C463.073 187.01 463.871 185.3 463.871 176.066V145.514C463.871 139.814 461.135 138.446 459.083 138.218C458.171 138.104 457.601 137.306 457.601 136.508C457.601 135.596 458.171 134.912 459.083 134.684C461.135 134.342 465.239 133.316 470.141 130.124C470.369 130.01 470.597 129.896 470.939 130.01C471.509 130.124 471.851 130.58 471.851 131.15V175.838C471.851 184.844 472.535 186.896 477.437 187.694ZM503.143 192.368C491.629 192.368 482.623 179.258 482.623 160.79C482.623 142.436 491.173 130.124 504.055 130.124C515.683 130.124 524.575 142.094 524.575 160.448C524.575 178.916 516.025 192.368 503.143 192.368ZM516.025 163.982C516.025 156.002 513.859 133.772 502.231 133.772C495.619 133.772 491.173 141.638 491.173 154.862C491.173 162.728 492.883 188.72 504.853 188.72C511.807 188.72 516.025 179.372 516.025 163.982ZM574.726 187.466C575.524 187.694 576.094 188.378 576.094 189.176C576.094 190.202 575.296 191 574.27 191H557.626C556.714 191 555.916 190.202 555.916 189.29C555.916 188.492 556.486 187.808 557.284 187.58C561.616 186.668 562.414 184.616 562.414 176.294V151.214C562.414 141.98 560.248 137.192 555.346 137.192C550.558 137.192 544.63 143.006 544.63 150.53V176.294C544.63 184.616 545.428 186.668 549.76 187.58C550.558 187.808 551.128 188.492 551.128 189.29C551.128 190.202 550.33 191 549.418 191H532.318C531.406 191 530.608 190.202 530.608 189.29C530.608 188.378 531.178 187.694 531.976 187.58C536.194 186.44 536.65 184.73 536.65 176.294V145.514C536.65 139.814 533.914 138.56 531.862 138.218C530.836 137.99 530.152 137.078 530.38 136.052C530.608 135.368 531.178 134.912 531.862 134.798C534.028 134.342 538.132 133.316 542.92 130.238C543.262 129.896 543.832 129.896 544.288 130.238C544.516 130.58 544.63 130.922 544.63 131.264V138.104C544.63 138.902 545.77 139.244 546.226 138.56C549.988 132.518 553.636 130.01 558.652 130.01C566.404 130.01 570.394 137.192 570.394 151.1V176.294C570.394 184.616 570.85 186.212 574.726 187.466Z" fill="#E7B276"/>
</g>
<defs>
<filter id="filter0_f_1065_1035" x="-164.4" y="-65.4" width="1012.8" height="433.8" filterUnits="userSpaceOnUse" color-interpolation-filters="sRGB">
<feFlood flood-opacity="0" result="BackgroundImageFix"/>
<feBlend mode="normal" in="SourceGraphic" in2="BackgroundImageFix" result="shape"/>
<feGaussianBlur stdDeviation="82.2" result="effect1_foregroundBlur_1065_1035"/>
</filter>
<clipPath id="clip0_1065_1035">
<rect width="684" height="236" fill="white"/>
</clipPath>
</defs>
</svg>
