<svg width="547" height="231" viewBox="0 0 547 231" fill="none" xmlns="http://www.w3.org/2000/svg">
<g filter="url(#filter0_d_1752_426)">
<path d="M241.116 186.299C241.116 189.105 239.774 192.399 237.09 196.181C236.602 195.693 236.297 195.327 236.175 195.083C238.005 191.667 238.92 188.739 238.92 186.299C238.92 177.759 232.698 170.805 220.254 165.437C210.494 161.289 200.551 159.215 190.425 159.215C179.445 159.215 167.733 161.655 155.289 166.535C151.629 168.121 147.054 170.012 141.564 172.208C136.074 174.404 129.669 177.027 122.349 180.077C110.271 184.957 99.2912 187.397 89.4092 187.397C71.4752 187.397 57.0792 181.236 46.2212 168.914C35.8512 157.08 30.6662 142.135 30.6662 124.079C30.6662 101.509 38.7792 82.294 55.0052 66.434C71.3532 50.452 90.7512 42.461 113.199 42.461C120.153 42.461 128.205 43.01 137.355 44.108C145.163 45.084 149.128 45.511 149.25 45.389C171.576 32.945 191.401 26.723 208.725 26.723C221.047 26.723 227.208 30.261 227.208 37.337C227.208 43.315 223.548 47.768 216.228 50.696C210.738 52.892 204.577 53.99 197.745 53.99C194.573 53.99 190.059 53.746 184.203 53.258C178.347 52.648 171.149 51.733 162.609 50.513C155.777 56.247 147.908 63.933 139.002 73.571C135.83 77.109 132.841 81.013 130.035 85.283C127.229 89.553 124.606 94.25 122.166 99.374C117.896 108.158 115.639 115.905 115.395 122.615C115.273 127.129 116.615 130.789 119.421 133.595C119.299 133.107 119.238 132.619 119.238 132.131C119.238 131.643 119.238 131.094 119.238 130.484C119.238 119.138 123.508 107.548 132.048 95.714C142.052 81.684 154.008 74.669 167.916 74.669C177.554 74.669 182.373 80.281 182.373 91.505C182.373 103.339 176.944 115.234 166.086 127.19C155.228 138.902 143.882 144.758 132.048 144.758C131.438 144.758 130.828 144.697 130.218 144.575C129.73 144.575 129.181 144.514 128.571 144.392C131.621 148.174 135.464 150.065 140.1 150.065C151.69 150.065 164.134 141.586 177.432 124.628L178.896 126.275C165.842 143.843 152.91 152.627 140.1 152.627C133.268 152.627 127.351 149.211 122.349 142.379C110.759 136.645 104.964 125.909 104.964 110.171C104.964 95.653 111.308 81.318 123.996 67.166C128.022 62.652 131.926 58.809 135.708 55.637C139.612 52.343 143.333 49.659 146.871 47.585C146.871 46.609 141.93 45.816 132.048 45.206C128.266 44.962 124.789 44.779 121.617 44.657C118.445 44.535 115.639 44.474 113.199 44.474C91.6052 44.474 72.7562 52.343 56.6522 68.081C40.6702 83.819 32.6792 102.485 32.6792 124.079C32.6792 141.281 37.7422 155.677 47.8682 167.267C58.4822 179.345 72.3292 185.384 89.4092 185.384C98.1932 185.384 108.807 182.944 121.251 178.064C125.033 176.478 129.669 174.587 135.159 172.391C140.771 170.195 147.42 167.572 155.106 164.522C167.916 159.642 179.689 157.202 190.425 157.202C202.015 157.202 212.568 159.276 222.084 163.424C234.772 168.792 241.116 176.417 241.116 186.299ZM225.195 37.337C225.195 31.603 219.705 28.736 208.725 28.736C198.355 28.736 184.264 35.385 166.452 48.683C181.214 50.879 191.645 51.977 197.745 51.977C216.045 51.977 225.195 47.097 225.195 37.337ZM176.151 90.224C176.151 82.05 172.125 77.963 164.073 77.963C153.947 77.963 144.309 84.124 135.159 96.446C126.619 107.914 122.349 118.894 122.349 129.386C122.349 132.07 123.02 135.242 124.362 138.902C126.802 140.488 129.303 141.281 131.865 141.281C141.991 141.281 152.056 134.815 162.06 121.883C171.454 109.683 176.151 99.13 176.151 90.224ZM200.48 141.368C188.966 141.368 179.96 128.258 179.96 109.79C179.96 91.436 188.51 79.124 201.392 79.124C213.02 79.124 221.912 91.094 221.912 109.448C221.912 127.916 213.362 141.368 200.48 141.368ZM213.362 112.982C213.362 105.002 211.196 82.772 199.568 82.772C192.956 82.772 188.51 90.638 188.51 103.862C188.51 111.728 190.22 137.72 202.19 137.72C209.144 137.72 213.362 128.372 213.362 112.982ZM246.581 136.694C247.379 136.808 247.949 137.492 247.949 138.29C247.949 139.202 247.151 140 246.239 140H227.201C226.289 140 225.491 139.202 225.491 138.29C225.491 137.492 226.061 136.808 226.859 136.58C231.761 135.782 232.787 133.274 232.787 126.662V64.988C232.787 59.288 230.051 57.92 227.999 57.578C227.201 57.464 226.517 56.78 226.517 55.868C226.517 55.07 227.201 54.386 227.999 54.158C230.051 53.816 234.155 52.79 239.057 49.598C239.285 49.484 239.627 49.37 239.855 49.484C240.425 49.598 240.767 50.054 240.767 50.624V127.232C240.767 133.958 241.679 136.01 246.581 136.694ZM273.522 136.694C274.32 136.808 274.89 137.492 274.89 138.29C274.89 139.202 274.092 140 273.18 140H254.142C253.23 140 252.432 139.202 252.432 138.29C252.432 137.492 253.002 136.808 253.8 136.58C258.702 135.782 259.728 133.274 259.728 126.662V64.988C259.728 59.288 256.992 57.92 254.94 57.578C254.142 57.464 253.458 56.78 253.458 55.868C253.458 55.07 254.142 54.386 254.94 54.158C256.992 53.816 261.096 52.79 265.998 49.598C266.226 49.484 266.568 49.37 266.796 49.484C267.366 49.598 267.708 50.054 267.708 50.624V127.232C267.708 133.958 268.62 136.01 273.522 136.694ZM315.853 118.226C316.651 118.226 317.221 118.91 316.993 119.708C314.029 132.362 309.127 141.368 297.613 141.368C286.327 141.368 279.487 129.512 279.487 111.272C279.487 92.576 287.239 79.01 299.209 79.01C310.267 79.01 314.941 92.69 315.397 99.872C315.511 101.81 314.485 103.292 313.117 103.292H288.037C287.125 103.292 286.327 104.09 286.441 105.002C286.897 114.008 287.467 118.91 290.773 124.952C293.395 129.854 296.929 132.248 301.261 132.248C307.531 132.248 312.319 127.004 314.713 119.024C314.827 118.568 315.283 118.226 315.853 118.226ZM288.379 99.074H302.287C305.023 99.074 305.707 96.794 305.365 94.4C304.111 86.99 301.945 83.798 296.587 83.798C291.685 83.798 288.037 88.472 286.783 97.136C286.669 98.162 287.353 99.074 288.379 99.074ZM358.821 118.226C359.505 118.226 360.075 118.796 359.961 119.48C356.541 134.756 350.841 141.368 340.695 141.368C330.093 141.368 322.569 129.056 322.569 111.956C322.569 100.898 325.419 91.778 330.549 85.85C334.425 81.404 338.985 79.01 343.431 79.01C347.079 79.01 357.681 80.492 357.681 85.736L357.909 98.732C357.909 99.416 357.225 99.986 356.541 99.986C355.971 99.986 355.401 99.644 355.287 99.074C351.981 85.622 347.991 82.886 342.861 82.886C335.109 82.886 329.865 92.12 329.865 105.914C329.865 121.19 335.907 131.792 344.685 131.792C350.613 131.792 355.287 127.688 357.795 119.024C357.909 118.568 358.365 118.226 358.821 118.226ZM390.963 123.014C391.647 122.9 392.331 123.584 392.217 124.268C391.077 135.098 385.947 141.368 379.335 141.368C372.609 141.368 370.899 135.326 370.899 125.18V85.85C370.899 85.166 370.329 84.596 369.645 84.596H368.049C366.681 84.596 365.541 83.456 365.541 82.088C365.541 81.062 365.997 80.264 366.909 79.808C370.899 77.642 376.029 71.6 377.169 66.812C377.283 66.47 377.625 66.128 377.967 66.128C378.537 66.128 378.879 66.584 378.879 67.04V79.124C378.879 79.808 379.449 80.378 380.133 80.378H386.403C387.543 80.378 388.455 81.29 388.455 82.544C388.455 83.684 387.543 84.596 386.403 84.596H380.133C379.449 84.596 378.879 85.166 378.879 85.85V123.584C378.879 131.45 379.221 134.414 382.983 134.414C386.061 134.414 388.683 129.626 389.823 124.04C389.937 123.47 390.393 123.014 390.963 123.014ZM407.318 62.936C404.582 62.936 402.53 60.086 402.53 56.21C402.53 52.448 404.696 49.484 407.318 49.484C410.168 49.484 412.22 52.448 412.22 56.21C412.22 60.086 410.168 62.936 407.318 62.936ZM417.692 136.694C418.49 136.808 419.174 137.492 419.174 138.29C419.174 139.202 418.376 140 417.464 140H398.312C397.4 140 396.602 139.202 396.602 138.29C396.602 137.492 397.286 136.808 398.084 136.694C403.328 136.01 404.126 134.3 404.126 125.066V94.514C404.126 88.814 401.39 87.446 399.338 87.218C398.426 87.104 397.856 86.306 397.856 85.508C397.856 84.596 398.426 83.912 399.338 83.684C401.39 83.342 405.494 82.316 410.396 79.124C410.624 79.01 410.852 78.896 411.194 79.01C411.764 79.124 412.106 79.58 412.106 80.15V124.838C412.106 133.844 412.79 135.896 417.692 136.694ZM443.398 141.368C431.884 141.368 422.878 128.258 422.878 109.79C422.878 91.436 431.428 79.124 444.31 79.124C455.938 79.124 464.83 91.094 464.83 109.448C464.83 127.916 456.28 141.368 443.398 141.368ZM456.28 112.982C456.28 105.002 454.114 82.772 442.486 82.772C435.874 82.772 431.428 90.638 431.428 103.862C431.428 111.728 433.138 137.72 445.108 137.72C452.062 137.72 456.28 128.372 456.28 112.982ZM514.981 136.466C515.779 136.694 516.349 137.378 516.349 138.176C516.349 139.202 515.551 140 514.525 140H497.881C496.969 140 496.171 139.202 496.171 138.29C496.171 137.492 496.741 136.808 497.539 136.58C501.871 135.668 502.669 133.616 502.669 125.294V100.214C502.669 90.98 500.503 86.192 495.601 86.192C490.813 86.192 484.885 92.006 484.885 99.53V125.294C484.885 133.616 485.683 135.668 490.015 136.58C490.813 136.808 491.383 137.492 491.383 138.29C491.383 139.202 490.585 140 489.673 140H472.573C471.661 140 470.863 139.202 470.863 138.29C470.863 137.378 471.433 136.694 472.231 136.58C476.449 135.44 476.905 133.73 476.905 125.294V94.514C476.905 88.814 474.169 87.56 472.117 87.218C471.091 86.99 470.407 86.078 470.635 85.052C470.863 84.368 471.433 83.912 472.117 83.798C474.283 83.342 478.387 82.316 483.175 79.238C483.517 78.896 484.087 78.896 484.543 79.238C484.771 79.58 484.885 79.922 484.885 80.264V87.104C484.885 87.902 486.025 88.244 486.481 87.56C490.243 81.518 493.891 79.01 498.907 79.01C506.659 79.01 510.649 86.192 510.649 100.1V125.294C510.649 133.616 511.105 135.212 514.981 136.466Z" fill="#E7B276"/>
</g>
<defs>
<filter id="filter0_d_1752_426" x="0.666016" y="0.722656" width="545.684" height="229.458" filterUnits="userSpaceOnUse" color-interpolation-filters="sRGB">
<feFlood flood-opacity="0" result="BackgroundImageFix"/>
<feColorMatrix in="SourceAlpha" type="matrix" values="0 0 0 0 0 0 0 0 0 0 0 0 0 0 0 0 0 0 127 0" result="hardAlpha"/>
<feOffset dy="4"/>
<feGaussianBlur stdDeviation="15"/>
<feComposite in2="hardAlpha" operator="out"/>
<feColorMatrix type="matrix" values="0 0 0 0 0.74902 0 0 0 0 0.556863 0 0 0 0 0.388235 0 0 0 1 0"/>
<feBlend mode="normal" in2="BackgroundImageFix" result="effect1_dropShadow_1752_426"/>
<feBlend mode="normal" in="SourceGraphic" in2="effect1_dropShadow_1752_426" result="shape"/>
</filter>
</defs>
</svg>
