<svg width="173" height="173" viewBox="0 0 173 173" fill="none" xmlns="http://www.w3.org/2000/svg">
<g clip-path="url(#clip0_1208_859)">
<g filter="url(#filter0_d_1208_859)">
<rect x="1" y="1" width="170.807" height="170.807" fill="#250101"/>
<rect x="1" y="1" width="170.807" height="170.807" stroke="#E7B276" stroke-width="2"/>
<path d="M121.589 85H99.635L92.3172 95.9768H77.6815L70.3637 85H48.4102" stroke="#E7B276" stroke-width="7.31783" stroke-linecap="round" stroke-linejoin="round"/>
<path d="M61.0334 59.79L48.4102 85V106.953C48.4102 108.894 49.1811 110.756 50.5535 112.128C51.9259 113.5 53.7872 114.271 55.728 114.271H114.271C116.211 114.271 118.073 113.5 119.445 112.128C120.818 110.756 121.589 108.894 121.589 106.953V85L108.965 59.79C108.359 58.5708 107.425 57.5448 106.268 56.8273C105.111 56.1099 103.777 55.7294 102.416 55.7286H67.5829C66.2215 55.7294 64.8872 56.1099 63.7302 56.8273C62.5732 57.5448 61.6393 58.5708 61.0334 59.79V59.79Z" stroke="#E7B276" stroke-width="7.31783" stroke-linecap="round" stroke-linejoin="round"/>
</g>
</g>
<defs>
<filter id="filter0_d_1208_859" x="-62" y="-62" width="296.807" height="296.807" filterUnits="userSpaceOnUse" color-interpolation-filters="sRGB">
<feFlood flood-opacity="0" result="BackgroundImageFix"/>
<feColorMatrix in="SourceAlpha" type="matrix" values="0 0 0 0 0 0 0 0 0 0 0 0 0 0 0 0 0 0 127 0" result="hardAlpha"/>
<feMorphology radius="18" operator="dilate" in="SourceAlpha" result="effect1_dropShadow_1208_859"/>
<feOffset/>
<feGaussianBlur stdDeviation="22"/>
<feComposite in2="hardAlpha" operator="out"/>
<feColorMatrix type="matrix" values="0 0 0 0 0.74902 0 0 0 0 0.556863 0 0 0 0 0.388235 0 0 0 0.45 0"/>
<feBlend mode="normal" in2="BackgroundImageFix" result="effect1_dropShadow_1208_859"/>
<feBlend mode="normal" in="SourceGraphic" in2="effect1_dropShadow_1208_859" result="shape"/>
</filter>
<clipPath id="clip0_1208_859">
<rect width="172.807" height="172.807" fill="white"/>
</clipPath>
</defs>
</svg>
