<svg width="304" height="172" viewBox="0 0 304 172" fill="none" xmlns="http://www.w3.org/2000/svg">
<g clip-path="url(#clip0_1002_1024)">
<g filter="url(#filter0_d_1002_1024)">
<path d="M153.367 172.649C153.367 174.688 152.392 177.082 150.441 179.831C150.087 179.476 149.865 179.21 149.776 179.033C151.106 176.55 151.771 174.422 151.771 172.649C151.771 166.442 147.249 161.388 138.205 157.487C131.112 154.472 123.886 152.965 116.526 152.965C108.546 152.965 100.034 154.738 90.9905 158.285C88.3305 159.438 85.0055 160.812 81.0155 162.408C77.0255 164.004 72.3705 165.91 67.0505 168.127C58.2725 171.674 50.2925 173.447 43.1105 173.447C30.0765 173.447 19.6138 168.969 11.7225 160.014C4.1858 151.413 0.417463 140.552 0.417463 127.429C0.417463 111.026 6.3138 97.0607 18.1065 85.534C29.9878 73.9187 44.0858 68.111 60.4005 68.111C65.4545 68.111 71.3065 68.51 77.9565 69.308C83.6311 70.0173 86.5128 70.3277 86.6015 70.239C102.827 61.195 117.236 56.673 129.826 56.673C138.782 56.673 143.259 59.2443 143.259 64.387C143.259 68.7317 140.599 71.968 135.279 74.096C131.289 75.692 126.812 76.49 121.846 76.49C119.541 76.49 116.26 76.3127 112.004 75.958C107.748 75.5147 102.517 74.8497 96.3105 73.963C91.3451 78.1303 85.6261 83.7163 79.1535 90.721C76.8481 93.2923 74.6758 96.1297 72.6365 99.233C70.5971 102.336 68.6908 105.75 66.9175 109.474C63.8141 115.858 62.1738 121.488 61.9965 126.365C61.9078 129.646 62.8831 132.306 64.9225 134.345C64.8338 133.99 64.7895 133.636 64.7895 133.281C64.7895 132.926 64.7895 132.527 64.7895 132.084C64.7895 123.838 67.8928 115.415 74.0995 106.814C81.3701 96.6173 90.0595 91.519 100.167 91.519C107.172 91.519 110.674 95.5977 110.674 103.755C110.674 112.356 106.729 121.001 98.8375 129.69C90.9461 138.202 82.7001 142.458 74.0995 142.458C73.6561 142.458 73.2128 142.414 72.7695 142.325C72.4148 142.325 72.0158 142.281 71.5725 142.192C73.7891 144.941 76.5821 146.315 79.9515 146.315C88.3748 146.315 97.4188 140.153 107.083 127.828L108.147 129.025C98.6601 141.793 89.2615 148.177 79.9515 148.177C74.9861 148.177 70.6858 145.694 67.0505 140.729C58.6271 136.562 54.4155 128.759 54.4155 117.321C54.4155 106.77 59.0261 96.3513 68.2475 86.066C71.1735 82.7853 74.0108 79.9923 76.7595 77.687C79.5968 75.293 82.3011 73.3423 84.8725 71.835C84.8725 71.1257 81.2815 70.5493 74.0995 70.106C71.3508 69.9287 68.8238 69.7957 66.5185 69.707C64.2131 69.6183 62.1738 69.574 60.4005 69.574C44.7065 69.574 31.0075 75.293 19.3035 86.731C7.68813 98.169 1.88046 111.735 1.88046 127.429C1.88046 139.931 5.56013 150.394 12.9195 158.817C20.6335 167.595 30.6971 171.984 43.1105 171.984C49.4945 171.984 57.2085 170.211 66.2525 166.664C69.0011 165.511 72.3705 164.137 76.3605 162.541C80.4391 160.945 85.2715 159.039 90.8575 156.822C100.167 153.275 108.724 151.502 116.526 151.502C124.95 151.502 132.619 153.009 139.535 156.024C148.757 159.925 153.367 165.467 153.367 172.649ZM141.796 64.387C141.796 60.2197 137.806 58.136 129.826 58.136C122.29 58.136 112.049 62.9683 99.1035 72.633C109.832 74.229 117.413 75.027 121.846 75.027C135.146 75.027 141.796 71.4803 141.796 64.387ZM106.152 102.824C106.152 96.8833 103.226 93.913 97.3745 93.913C90.0151 93.913 83.0105 98.3907 76.3605 107.346C70.1538 115.681 67.0505 123.661 67.0505 131.286C67.0505 133.237 67.5381 135.542 68.5135 138.202C70.2868 139.355 72.1045 139.931 73.9665 139.931C81.3258 139.931 88.6408 135.232 95.9115 125.833C102.739 116.966 106.152 109.297 106.152 102.824ZM117.227 109.304C125.995 109.304 129.131 116.536 129.131 124.28C129.131 131.96 125.803 139.384 117.035 139.384C108.395 139.384 105.067 132.344 105.067 124.6C105.067 116.984 108.587 109.304 117.227 109.304ZM117.355 109.88C111.787 109.88 111.531 120.312 111.531 124.664C111.531 128.696 111.979 138.872 116.843 138.872C122.539 138.872 122.667 128.888 122.667 124.28C122.667 120.376 122.219 109.88 117.355 109.88ZM149.819 133.112V117.944C149.819 114.808 148.923 112.76 145.659 112.76C143.611 112.76 141.499 113.912 140.283 114.808V133.112C140.283 136.504 140.283 137.72 143.931 138.744V139H130.235V138.744C134.075 137.72 134.075 136.568 134.075 133.112V117.56C134.075 115.128 134.075 114.168 130.235 113.528V113.272L140.027 108.984H140.283V114.168C142.395 111.992 145.915 109.304 149.563 109.304C154.427 109.304 156.027 111.864 156.027 117.304V133.112C156.027 136.504 156.027 137.72 159.675 138.744V139H145.979V138.744C149.691 137.72 149.819 136.568 149.819 133.112ZM179.506 133.112V117.944C179.506 114.808 178.61 112.76 175.346 112.76C173.298 112.76 171.186 113.912 169.97 114.808V133.112C169.97 136.504 169.97 137.72 173.618 138.744V139H159.922V138.744C163.762 137.72 163.762 136.568 163.762 133.112V117.56C163.762 115.128 163.762 114.168 159.922 113.528V113.272L169.714 108.984H169.97V114.168C172.082 111.992 175.602 109.304 179.25 109.304C184.114 109.304 185.714 111.864 185.714 117.304V133.112C185.714 136.504 185.714 137.72 189.362 138.744V139H175.666V138.744C179.378 137.72 179.506 136.568 179.506 133.112ZM202.109 109.304C207.293 109.304 210.685 113.208 210.557 120.056H195.389C195.389 120.44 195.389 120.888 195.389 121.272C195.453 125.688 196.285 129.528 197.885 132.152C199.293 134.52 201.853 135.928 204.157 135.864C206.461 135.8 208.765 135.032 210.429 132.728L210.621 132.792C208.445 137.08 205.757 139.384 201.021 139.384C197.501 139.384 194.685 138.104 192.765 135.608C190.717 132.92 189.629 129.208 189.629 124.6C189.693 115.512 194.557 109.304 202.109 109.304ZM195.453 119.352H204.989C204.989 114.936 204.093 110.072 200.573 110.072C197.373 110.072 195.709 114.616 195.453 119.352ZM222.859 110.2C220.235 111.032 219.787 112.12 220.683 114.04L224.587 122.296H224.715L227.979 115.512C228.811 113.784 229.323 110.904 225.547 110.2V109.944H234.571V110.2C232.523 111.032 230.859 112.504 229.067 115.832L225.099 123.128L230.411 134.52C231.179 136.12 232.459 137.976 234.955 138.744V139H221.579V138.744C223.499 137.976 224.843 137.08 223.627 134.52L219.787 126.328H219.659L216.395 133.496C215.627 135.16 214.987 138.04 218.827 138.744V139H209.803V138.744C211.851 137.912 213.643 136.504 215.371 133.112L219.339 125.368L214.219 114.552C213.067 112.184 212.491 110.84 209.675 110.2V109.944H222.859V110.2ZM241.638 97.4C243.75 97.4 245.286 99.256 245.286 101.56C245.286 103.928 243.75 105.848 241.638 105.848C239.59 105.848 237.926 103.928 237.926 101.56C237.926 99.256 239.59 97.4 241.638 97.4ZM245.158 108.984V133.112C245.158 136.504 245.158 137.72 248.806 138.744V139H235.11V138.744C238.95 137.72 238.95 136.568 238.95 133.112V117.56C238.95 115.128 238.95 114.168 235.11 113.528V113.272L244.902 108.984H245.158ZM261.414 109.304C270.182 109.304 273.318 116.536 273.318 124.28C273.318 131.96 269.99 139.384 261.222 139.384C252.582 139.384 249.254 132.344 249.254 124.6C249.254 116.984 252.774 109.304 261.414 109.304ZM261.542 109.88C255.974 109.88 255.718 120.312 255.718 124.664C255.718 128.696 256.166 138.872 261.03 138.872C266.726 138.872 266.854 128.888 266.854 124.28C266.854 120.376 266.406 109.88 261.542 109.88ZM294.006 133.112V117.944C294.006 114.808 293.11 112.76 289.846 112.76C287.798 112.76 285.686 113.912 284.47 114.808V133.112C284.47 136.504 284.47 137.72 288.118 138.744V139H274.422V138.744C278.262 137.72 278.262 136.568 278.262 133.112V117.56C278.262 115.128 278.262 114.168 274.422 113.528V113.272L284.214 108.984H284.47V114.168C286.582 111.992 290.102 109.304 293.75 109.304C298.614 109.304 300.214 111.864 300.214 117.304V133.112C300.214 136.504 300.214 137.72 303.862 138.744V139H290.166V138.744C293.878 137.72 294.006 136.568 294.006 133.112Z" fill="#E7B276"/>
</g>
</g>
<defs>
<filter id="filter0_d_1002_1024" x="-29.5825" y="30.6729" width="363.445" height="183.158" filterUnits="userSpaceOnUse" color-interpolation-filters="sRGB">
<feFlood flood-opacity="0" result="BackgroundImageFix"/>
<feColorMatrix in="SourceAlpha" type="matrix" values="0 0 0 0 0 0 0 0 0 0 0 0 0 0 0 0 0 0 127 0" result="hardAlpha"/>
<feOffset dy="4"/>
<feGaussianBlur stdDeviation="15"/>
<feComposite in2="hardAlpha" operator="out"/>
<feColorMatrix type="matrix" values="0 0 0 0 0.905882 0 0 0 0 0.698039 0 0 0 0 0.462745 0 0 0 1 0"/>
<feBlend mode="normal" in2="BackgroundImageFix" result="effect1_dropShadow_1002_1024"/>
<feBlend mode="normal" in="SourceGraphic" in2="effect1_dropShadow_1002_1024" result="shape"/>
</filter>
<clipPath id="clip0_1002_1024">
<rect width="304" height="172" fill="white"/>
</clipPath>
</defs>
</svg>
