<svg width="1041" height="232" viewBox="0 0 1041 232" fill="none" xmlns="http://www.w3.org/2000/svg">
<g clip-path="url(#clip0_1108_855)">
<g filter="url(#filter0_d_1108_855)">
<path d="M213.48 108.26C213.48 120.74 209.34 131.9 201.06 141.74C192.42 152.18 182.04 157.4 169.92 157.4C160.68 157.4 152.94 154.34 146.7 148.22C140.46 141.98 137.34 134.3 137.34 125.18C137.34 112.1 143.22 102.38 154.98 96.02C159.06 93.86 161.1 93.08 161.1 93.68V94.94C146.46 99.98 139.14 110.06 139.14 125.18C139.14 133.82 142.08 141.02 147.96 146.78C153.84 152.54 161.16 155.42 169.92 155.42C181.32 155.42 191.22 150.32 199.62 140.12C207.78 130.28 211.86 119.66 211.86 108.26C211.86 97.22 207.84 88.58 199.8 82.34C192.36 76.7 182.94 73.88 171.54 73.88C159.3 73.88 147.3 78.14 135.54 86.66C127.26 92.9 120.84 99.62 116.28 106.82C108.6 119.42 102.06 129.56 96.66 137.24C83.7 155.72 68.46 174.08 50.94 192.32C49.62 192.32 48.54 192.14 47.7 191.78C49.26 188.06 51.78 182.3 55.26 174.5C56.7 171.14 57.42 166.7 57.42 161.18C57.66 146.54 58.02 133.28 58.5 121.4C59.34 116.36 60.12 111.92 60.84 108.08C61.68 104.24 62.58 101 63.54 98.36C66.78 88.64 71.22 82.04 76.86 78.56C61.02 71.96 48.6 68.66 39.6 68.66C30.24 68.66 22.38 71.48 16.02 77.12C9.42 82.88 6.12 90.44 6.12 99.8C6.12 104.84 7.86 109.58 11.34 114.02C12.06 114.86 12.96 115.88 14.04 117.08C15.12 118.16 16.32 119.54 17.64 121.22C12.48 119.9 8.28 117.14 5.04 112.94C1.92 108.74 0.36 103.94 0.36 98.54C0.36 88.58 4.56 80.72 12.96 74.96C20.28 69.8 29.16 67.22 39.6 67.22C46.68 67.22 55.08 68.9 64.8 72.26L78.48 76.94C82.2 73.82 85.44 72.26 88.2 72.26C90.12 72.26 91.08 73.1 91.08 74.78C91.08 77.9 88.26 79.46 82.62 79.46C82.02 79.46 81.42 79.46 80.82 79.46C80.34 79.34 79.8 79.22 79.2 79.1C74.16 82.94 71.64 89 71.64 97.28C71.64 101.84 72.36 108.62 73.8 117.62C75.24 126.5 75.96 133.16 75.96 137.6C75.96 147.56 69.48 162.68 56.52 182.96C73.08 166.16 92.22 140.42 113.94 105.74C120.54 95.18 126.18 87.86 130.86 83.78C141.78 73.94 155.28 69.02 171.36 69.02C183.12 69.02 193.02 72.56 201.06 79.64C209.34 87.08 213.48 96.62 213.48 108.26ZM88.74 75.32C88.74 74.6 88.14 74.24 86.94 74.24C85.02 74.24 82.92 75.38 80.64 77.66C81.84 77.9 82.74 78.02 83.34 78.02C86.94 78.02 88.74 77.12 88.74 75.32ZM130.772 135.104C146.39 135.104 151.976 147.986 151.976 161.78C151.976 175.46 146.048 188.684 130.43 188.684C115.04 188.684 109.112 176.144 109.112 162.35C109.112 148.784 115.382 135.104 130.772 135.104ZM131 136.13C121.082 136.13 120.626 154.712 120.626 162.464C120.626 169.646 121.424 187.772 130.088 187.772C140.234 187.772 140.462 169.988 140.462 161.78C140.462 154.826 139.664 136.13 131 136.13ZM172.867 136.472C167.623 136.244 162.949 139.208 162.949 145.364C162.949 152.66 169.447 154.94 176.401 156.992C183.241 158.93 190.195 162.122 190.081 172.04C189.967 183.896 181.417 188.684 172.069 188.684C168.421 188.684 159.301 188.228 155.311 185.606L155.083 170.9H155.767C159.529 182.3 167.623 187.316 174.235 187.316C179.251 187.316 183.127 184.124 183.127 178.652C183.127 172.496 178.339 170.102 172.981 168.392C165.229 165.998 155.539 162.464 155.539 151.52C155.653 140.462 164.431 135.104 174.235 135.104C179.479 135.104 185.179 136.7 188.143 138.752L186.091 152.546H185.521C182.215 143.312 178.795 136.7 172.867 136.472ZM239.987 188.684L239.303 181.274C236.795 185.72 231.095 188.684 225.965 188.684C220.151 188.684 216.275 186.176 213.425 182.072C210.233 177.512 208.751 170.9 208.751 163.49C208.751 155.624 210.689 147.074 215.477 141.488C218.783 137.612 223.457 135.104 229.727 135.104C232.919 135.104 236.225 135.788 239.303 137.27V125.528C239.303 120.512 239.303 117.434 232.463 116.636V116.18L250.019 108.884H250.247L250.133 174.32C250.133 180.248 250.361 182.186 255.605 183.896V184.352L240.215 188.684H239.987ZM239.303 180.59V142.97C237.251 138.98 233.717 136.244 229.613 136.244C225.395 136.244 222.431 139.436 221.063 143.54C219.809 147.416 219.581 152.09 219.581 155.396C219.581 160.412 219.695 170.102 223.343 176.372C225.281 179.678 228.017 182.072 232.235 182.3C234.401 182.414 237.365 181.958 239.303 180.59ZM278.629 135.104C287.863 135.104 293.905 142.058 293.677 154.256H266.659C266.659 154.94 266.659 155.738 266.659 156.422C266.773 164.288 268.255 171.128 271.105 175.802C273.613 180.02 278.173 182.528 282.277 182.414C286.381 182.3 290.485 180.932 293.449 176.828L293.791 176.942C289.915 184.58 285.127 188.684 276.691 188.684C270.421 188.684 265.405 186.404 261.985 181.958C258.337 177.17 256.399 170.558 256.399 162.35C256.513 146.162 265.177 135.104 278.629 135.104ZM266.773 153.002H283.759C283.759 145.136 282.163 136.472 275.893 136.472C270.193 136.472 267.229 144.566 266.773 153.002ZM329.657 135.902L328.631 149.012L328.289 149.126C324.755 144.794 317.915 141.716 312.671 145.82V177.512C312.671 183.554 312.671 185.72 319.169 187.544V188H294.773V187.544C301.613 185.72 301.613 183.668 301.613 177.512V149.81C301.613 145.478 301.613 143.768 294.773 142.628V142.172L312.215 134.534H312.671V144.68C314.951 140.918 318.941 135.332 325.211 135.104C326.465 135.104 327.833 135.218 329.657 135.902ZM364.725 177.512V150.494C364.725 144.908 363.129 141.26 357.315 141.26C353.667 141.26 349.905 143.312 347.739 144.908V177.512C347.739 183.554 347.739 185.72 354.237 187.544V188H329.841V187.544C336.681 185.72 336.681 183.668 336.681 177.512V149.81C336.681 145.478 336.681 143.768 329.841 142.628V142.172L347.283 134.534H347.739V143.768C351.501 139.892 357.771 135.104 364.269 135.104C372.933 135.104 375.783 139.664 375.783 149.354V177.512C375.783 183.554 375.783 185.72 382.281 187.544V188H357.885V187.544C364.497 185.72 364.725 183.668 364.725 177.512ZM394.35 113.9C398.112 113.9 400.848 117.206 400.848 121.31C400.848 125.528 398.112 128.948 394.35 128.948C390.702 128.948 387.738 125.528 387.738 121.31C387.738 117.206 390.702 113.9 394.35 113.9ZM400.62 134.534V177.512C400.62 183.554 400.62 185.72 407.118 187.544V188H382.722V187.544C389.562 185.72 389.562 183.668 389.562 177.512V149.81C389.562 145.478 389.562 143.768 382.722 142.628V142.172L400.164 134.534H400.62ZM419.564 117.776L436.892 130.658L436.778 130.886L414.89 128.264L419.564 117.776ZM429.368 135.104C438.602 135.104 444.644 142.058 444.416 154.256H417.398V156.422C417.512 164.288 418.994 171.128 421.844 175.802C424.352 180.02 428.912 182.528 433.016 182.414C437.12 182.3 441.224 180.932 444.188 176.828L444.53 176.942C440.654 184.58 435.866 188.684 427.43 188.684C421.16 188.684 416.144 186.404 412.724 181.958C409.076 177.17 407.138 170.558 407.138 162.35C407.252 146.162 415.916 135.104 429.368 135.104ZM417.512 153.002H434.498C434.498 145.136 432.902 136.472 426.632 136.472C420.932 136.472 417.968 144.566 417.512 153.002ZM480.395 135.902L479.369 149.012L479.027 149.126C475.493 144.794 468.653 141.716 463.409 145.82V177.512C463.409 183.554 463.409 185.72 469.907 187.544V188H445.511V187.544C452.351 185.72 452.351 183.668 452.351 177.512V149.81C452.351 145.478 452.351 143.768 445.511 142.628V142.172L462.953 134.534H463.409V144.68C465.689 140.918 469.679 135.332 475.949 135.104C477.203 135.104 478.571 135.218 480.395 135.902ZM503.958 135.104C513.192 135.104 519.234 142.058 519.006 154.256H491.988C491.988 154.94 491.988 155.738 491.988 156.422C492.102 164.288 493.584 171.128 496.434 175.802C498.942 180.02 503.502 182.528 507.606 182.414C511.71 182.3 515.814 180.932 518.778 176.828L519.12 176.942C515.244 184.58 510.456 188.684 502.02 188.684C495.75 188.684 490.734 186.404 487.314 181.958C483.666 177.17 481.728 170.558 481.728 162.35C481.842 146.162 490.506 135.104 503.958 135.104ZM492.102 153.002H509.088C509.088 145.136 507.492 136.472 501.222 136.472C495.522 136.472 492.558 144.566 492.102 153.002ZM540.027 136.472C534.783 136.244 530.109 139.208 530.109 145.364C530.109 152.66 536.607 154.94 543.561 156.992C550.401 158.93 557.355 162.122 557.241 172.04C557.127 183.896 548.577 188.684 539.229 188.684C535.581 188.684 526.461 188.228 522.471 185.606L522.243 170.9H522.927C526.689 182.3 534.783 187.316 541.395 187.316C546.411 187.316 550.287 184.124 550.287 178.652C550.287 172.496 545.499 170.102 540.141 168.392C532.389 165.998 522.699 162.464 522.699 151.52C522.813 140.462 531.591 135.104 541.395 135.104C546.639 135.104 552.339 136.7 555.303 138.752L553.251 152.546H552.681C549.375 143.312 545.955 136.7 540.027 136.472ZM575.911 162.35C576.025 145.82 585.145 135.104 599.167 135.104C604.753 135.104 610.225 136.814 612.505 139.094L610.339 151.976H609.769C605.893 142.628 603.157 136.472 596.545 136.472C588.679 136.472 586.057 146.276 586.171 156.422C586.285 164.288 587.767 171.128 590.617 175.802C593.125 180.02 597.685 182.528 601.789 182.414C605.893 182.3 609.997 180.932 612.961 176.828L613.303 176.942C609.427 184.58 604.639 188.684 596.203 188.684C589.933 188.684 584.917 186.404 581.497 181.958C577.849 177.17 575.911 170.558 575.911 162.35ZM638.206 135.104C653.824 135.104 659.41 147.986 659.41 161.78C659.41 175.46 653.482 188.684 637.864 188.684C622.474 188.684 616.546 176.144 616.546 162.35C616.546 148.784 622.816 135.104 638.206 135.104ZM638.434 136.13C628.516 136.13 628.06 154.712 628.06 162.464C628.06 169.646 628.858 187.772 637.522 187.772C647.668 187.772 647.896 169.988 647.896 161.78C647.896 154.826 647.098 136.13 638.434 136.13ZM661.376 142.172L678.818 134.534H679.274V143.768C683.036 139.892 689.192 135.104 695.348 135.104C702.074 135.104 705.38 138.068 706.406 143.882C710.168 140.006 716.894 135.104 722.936 135.104C731.6 135.104 734.45 139.664 734.45 149.354V177.512C734.45 183.554 734.906 185.72 741.404 187.544V188H716.552V187.544C723.164 185.72 723.392 183.668 723.392 177.512V150.494C723.392 144.908 721.796 141.26 715.982 141.26C712.448 141.26 709.028 143.198 706.862 144.794V177.512C706.862 183.554 706.862 185.72 713.36 187.544V188H688.964V187.544C695.576 185.72 695.804 183.668 695.804 177.512V150.494C695.804 144.908 694.208 141.26 688.394 141.26C684.974 141.26 681.44 143.312 679.274 144.908V177.512C679.274 183.554 679.274 185.72 685.772 187.544V188H661.376V187.544C668.216 185.72 668.216 183.668 668.216 177.512V149.81C668.216 145.478 668.216 143.768 661.376 142.628V142.172ZM741.867 142.172L759.309 134.534H759.765V143.768C763.527 139.892 769.683 135.104 775.839 135.104C782.565 135.104 785.871 138.068 786.897 143.882C790.659 140.006 797.385 135.104 803.427 135.104C812.091 135.104 814.941 139.664 814.941 149.354V177.512C814.941 183.554 815.397 185.72 821.895 187.544V188H797.043V187.544C803.655 185.72 803.883 183.668 803.883 177.512V150.494C803.883 144.908 802.287 141.26 796.473 141.26C792.939 141.26 789.519 143.198 787.353 144.794V177.512C787.353 183.554 787.353 185.72 793.851 187.544V188H769.455V187.544C776.067 185.72 776.295 183.668 776.295 177.512V150.494C776.295 144.908 774.699 141.26 768.885 141.26C765.465 141.26 761.931 143.312 759.765 144.908V177.512C759.765 183.554 759.765 185.72 766.263 187.544V188H741.867V187.544C748.707 185.72 748.707 183.668 748.707 177.512V149.81C748.707 145.478 748.707 143.768 741.867 142.628V142.172ZM856.934 152.66V179.108C856.934 182.414 858.644 183.098 860.126 183.098C861.38 183.098 862.976 181.958 864.002 181.16L864.23 181.274C861.722 186.062 858.074 188.684 853.514 188.684C850.322 188.684 846.446 186.746 846.104 180.02C843.824 183.668 839.378 188.684 832.538 188.684C825.014 188.684 821.594 183.782 821.594 178.424C821.594 173.75 823.988 170.444 827.636 167.594C832.538 163.718 839.606 161.096 846.104 158.132V154.37C846.104 144.794 841.43 141.146 836.414 141.146C830.828 141.146 825.812 144.908 823.988 151.748L823.076 151.52C824.444 141.716 831.854 135.104 842.342 135.104C852.374 135.104 856.934 140.462 856.934 152.66ZM846.104 178.994V159.044C837.212 163.946 831.968 169.418 832.196 176.144C832.31 180.248 834.248 183.782 838.808 183.782C840.974 183.782 843.938 182.186 846.104 178.994ZM897.876 177.512V150.494C897.876 144.908 896.28 141.26 890.466 141.26C886.818 141.26 883.056 143.312 880.89 144.908V177.512C880.89 183.554 880.89 185.72 887.388 187.544V188H862.992V187.544C869.832 185.72 869.832 183.668 869.832 177.512V149.81C869.832 145.478 869.832 143.768 862.992 142.628V142.172L880.434 134.534H880.89V143.768C884.652 139.892 890.922 135.104 897.42 135.104C906.084 135.104 908.934 139.664 908.934 149.354V177.512C908.934 183.554 908.934 185.72 915.432 187.544V188H891.036V187.544C897.648 185.72 897.876 183.668 897.876 177.512ZM947.032 188.684L946.348 181.274C943.84 185.72 938.14 188.684 933.01 188.684C927.196 188.684 923.32 186.176 920.47 182.072C917.278 177.512 915.796 170.9 915.796 163.49C915.796 155.624 917.734 147.074 922.522 141.488C925.828 137.612 930.502 135.104 936.772 135.104C939.964 135.104 943.27 135.788 946.348 137.27V125.528C946.348 120.512 946.348 117.434 939.508 116.636V116.18L957.064 108.884H957.292L957.178 174.32C957.178 180.248 957.406 182.186 962.65 183.896V184.352L947.26 188.684H947.032ZM946.348 180.59V142.97C944.296 138.98 940.762 136.244 936.658 136.244C932.44 136.244 929.476 139.436 928.108 143.54C926.854 147.416 926.626 152.09 926.626 155.396C926.626 160.412 926.74 170.102 930.388 176.372C932.326 179.678 935.062 182.072 939.28 182.3C941.446 182.414 944.41 181.958 946.348 180.59ZM985.674 135.104C994.908 135.104 1000.95 142.058 1000.72 154.256H973.704C973.704 154.94 973.704 155.738 973.704 156.422C973.818 164.288 975.3 171.128 978.15 175.802C980.658 180.02 985.218 182.528 989.322 182.414C993.426 182.3 997.53 180.932 1000.49 176.828L1000.84 176.942C996.96 184.58 992.172 188.684 983.736 188.684C977.466 188.684 972.45 186.404 969.03 181.958C965.382 177.17 963.444 170.558 963.444 162.35C963.558 146.162 972.222 135.104 985.674 135.104ZM973.818 153.002H990.804C990.804 145.136 989.208 136.472 982.938 136.472C977.238 136.472 974.274 144.566 973.818 153.002ZM1021.74 136.472C1016.5 136.244 1011.83 139.208 1011.83 145.364C1011.83 152.66 1018.32 154.94 1025.28 156.992C1032.12 158.93 1039.07 162.122 1038.96 172.04C1038.84 183.896 1030.29 188.684 1020.95 188.684C1017.3 188.684 1008.18 188.228 1004.19 185.606L1003.96 170.9H1004.64C1008.41 182.3 1016.5 187.316 1023.11 187.316C1028.13 187.316 1032 184.124 1032 178.652C1032 172.496 1027.22 170.102 1021.86 168.392C1014.11 165.998 1004.42 162.464 1004.42 151.52C1004.53 140.462 1013.31 135.104 1023.11 135.104C1028.36 135.104 1034.06 136.7 1037.02 138.752L1034.97 152.546H1034.4C1031.09 143.312 1027.67 136.7 1021.74 136.472Z" fill="#E7B276"/>
</g>
</g>
<defs>
<filter id="filter0_d_1108_855" x="-29.6406" y="37.22" width="1098.71" height="185.1" filterUnits="userSpaceOnUse" color-interpolation-filters="sRGB">
<feFlood flood-opacity="0" result="BackgroundImageFix"/>
<feColorMatrix in="SourceAlpha" type="matrix" values="0 0 0 0 0 0 0 0 0 0 0 0 0 0 0 0 0 0 127 0" result="hardAlpha"/>
<feOffset/>
<feGaussianBlur stdDeviation="15"/>
<feComposite in2="hardAlpha" operator="out"/>
<feColorMatrix type="matrix" values="0 0 0 0 0.74902 0 0 0 0 0.556863 0 0 0 0 0.388235 0 0 0 1 0"/>
<feBlend mode="normal" in2="BackgroundImageFix" result="effect1_dropShadow_1108_855"/>
<feBlend mode="normal" in="SourceGraphic" in2="effect1_dropShadow_1108_855" result="shape"/>
</filter>
<clipPath id="clip0_1108_855">
<rect width="1041" height="232" fill="white"/>
</clipPath>
</defs>
</svg>
