<svg width="1176" height="236" viewBox="0 0 1176 236" fill="none" xmlns="http://www.w3.org/2000/svg">
<path d="M537.592 85.043C537.592 89.313 534.847 93.156 529.357 96.572C524.477 99.622 519.78 101.147 515.266 101.147C507.214 101.147 498.491 98.707 489.097 93.827C476.409 87.239 468.235 83.396 464.575 82.298C448.471 77.296 434.38 74.795 422.302 74.795C403.026 74.795 389.484 78.455 381.676 85.775C384.97 87.483 388.874 91.997 393.388 99.317C399.488 109.077 402.538 119.386 402.538 130.244C402.538 143.176 398.146 155.315 389.362 166.661C379.968 178.983 368.988 185.144 356.422 185.144C349.102 185.144 342.453 182.582 336.475 177.458C330.131 172.212 326.959 165.99 326.959 158.792C326.959 155.01 327.996 149.703 330.07 142.871C330.924 143.847 331.351 144.701 331.351 145.433C329.765 149.825 328.972 154.278 328.972 158.792C328.972 165.502 331.961 171.297 337.939 176.177C343.673 180.813 349.834 183.131 356.422 183.131C368.622 183.131 379.175 177.214 388.081 165.38C396.377 154.522 400.525 142.81 400.525 130.244C400.525 120.24 397.78 110.724 392.29 101.696C388.508 95.474 384.238 90.533 379.48 86.873C374.356 89.313 369.537 95.108 365.023 104.258C360.631 113.042 358.435 120.423 358.435 126.401C358.435 133.477 360.143 139.272 363.559 143.786C367.341 148.91 372.648 151.472 379.48 151.472C380.212 151.472 380.944 151.472 381.676 151.472C382.408 151.35 383.14 151.228 383.872 151.106V153.119C383.018 153.241 382.164 153.363 381.31 153.485C380.578 153.485 379.785 153.485 378.931 153.485C371.489 153.485 365.755 150.74 361.729 145.25C358.191 140.248 356.422 133.965 356.422 126.401C356.422 117.129 359.533 107.796 365.755 98.402C367.585 96.206 369.415 94.01 371.245 91.814C373.075 89.618 374.844 87.422 376.552 85.226C368.134 80.102 358.74 77.54 348.37 77.54C330.314 77.54 314.942 84.616 302.254 98.768C290.298 112.432 284.32 128.414 284.32 146.714C284.32 165.99 290.115 182.155 301.705 195.209C313.783 208.995 329.338 215.888 348.37 215.888C363.254 215.888 376.613 210.093 388.447 198.503C393.449 193.501 397.292 188.316 399.976 182.948C403.88 174.896 411.688 155.071 423.4 123.473L416.446 122.009L417.361 119.264L424.681 120.728C425.779 119.142 427.243 117.251 429.073 115.055C431.025 112.737 433.343 110.053 436.027 107.003C441.517 102.367 447.129 99.195 452.863 97.487C457.865 96.145 465.612 95.291 476.104 94.925V95.657C475.616 96.389 472.505 97.182 466.771 98.036C463.355 98.646 460.549 99.195 458.353 99.683C456.279 100.171 454.754 100.659 453.778 101.147C448.044 103.953 442.737 111.273 437.857 123.107L448.654 125.12C451.216 116.824 455.242 112.676 460.732 112.676C464.636 112.676 466.588 114.75 466.588 118.898C466.588 121.338 465.429 123.534 463.111 125.486C460.793 127.438 458.353 128.597 455.791 128.963C457.011 148.849 451.826 158.792 440.236 158.792C438.04 158.792 435.966 157.816 434.014 155.864L435.295 154.583C437.369 155.437 439.077 155.864 440.419 155.864C443.225 155.864 445.116 152.936 446.092 147.08C446.458 145.494 447.007 139.333 447.739 128.597L436.759 126.95C427.975 159.158 419.74 180.142 412.054 189.902C405.222 198.198 395.584 204.969 383.14 210.215C371.062 215.217 359.472 217.718 348.37 217.718C327.752 217.718 310.916 211.008 297.862 197.588C284.93 184.29 278.464 167.332 278.464 146.714C278.464 126.828 285.113 110.053 298.411 96.389C311.831 82.603 328.484 75.71 348.37 75.71C357.886 75.71 367.768 78.272 378.016 83.396C392.168 71.44 406.93 65.462 422.302 65.462C435.478 65.462 447.739 68.39 459.085 74.246C462.257 76.076 466.161 78.394 470.797 81.2C475.555 83.884 481.106 86.995 487.45 90.533C497.698 96.389 506.97 99.317 515.266 99.317C524.05 99.317 531.492 94.559 537.592 85.043ZM463.477 117.983C463.477 116.641 462.562 115.97 460.732 115.97C459.634 115.97 458.475 117.068 457.255 119.264C456.035 121.338 455.425 122.985 455.425 124.205C455.425 124.571 455.547 124.754 455.791 124.754C457.621 124.754 459.329 124.083 460.915 122.741C462.623 121.399 463.477 119.813 463.477 117.983ZM462.041 133.886L461.927 133.658L479.255 120.776L483.929 131.264L462.041 133.886ZM474.125 138.104C483.359 138.104 489.401 145.058 489.173 157.256H462.155V159.422C462.269 167.288 463.751 174.128 466.601 178.802C469.109 183.02 473.669 185.528 477.773 185.414C481.877 185.3 485.981 183.932 488.945 179.828L489.287 179.942C485.411 187.58 480.623 191.684 472.187 191.684C465.917 191.684 460.901 189.404 457.481 184.958C453.833 180.17 451.895 173.558 451.895 165.35C452.009 149.162 460.673 138.104 474.125 138.104ZM462.269 156.002H479.255C479.255 148.136 477.659 139.472 471.389 139.472C465.689 139.472 462.725 147.566 462.269 156.002ZM495.661 180.512V128.528C495.661 123.512 495.661 120.434 488.821 119.636V119.18L506.491 111.884H506.719V180.512C506.719 186.554 506.719 188.72 513.217 190.544V191H488.821V190.544C495.661 188.72 495.661 186.668 495.661 180.512ZM525.276 116.9C529.038 116.9 531.774 120.206 531.774 124.31C531.774 128.528 529.038 131.948 525.276 131.948C521.628 131.948 518.664 128.528 518.664 124.31C518.664 120.206 521.628 116.9 525.276 116.9ZM531.546 137.534V180.512C531.546 186.554 531.546 188.72 538.044 190.544V191H513.648V190.544C520.488 188.72 520.488 186.668 520.488 180.512V152.81C520.488 148.478 520.488 146.768 513.648 145.628V145.172L531.09 137.534H531.546ZM538.063 165.35C538.177 148.82 547.297 138.104 561.319 138.104C566.905 138.104 572.377 139.814 574.657 142.094L572.491 154.976H571.921C568.045 145.628 565.309 139.472 558.697 139.472C550.831 139.472 548.209 149.276 548.323 159.422C548.437 167.288 549.919 174.128 552.769 178.802C555.277 183.02 559.837 185.528 563.941 185.414C568.045 185.3 572.149 183.932 575.113 179.828L575.455 179.942C571.579 187.58 566.791 191.684 558.355 191.684C552.085 191.684 547.069 189.404 543.649 184.958C540.001 180.17 538.063 173.558 538.063 165.35ZM588.844 116.9C592.606 116.9 595.342 120.206 595.342 124.31C595.342 128.528 592.606 131.948 588.844 131.948C585.196 131.948 582.232 128.528 582.232 124.31C582.232 120.206 585.196 116.9 588.844 116.9ZM595.114 137.534V180.512C595.114 186.554 595.114 188.72 601.612 190.544V191H577.216V190.544C584.056 188.72 584.056 186.668 584.056 180.512V152.81C584.056 148.478 584.056 146.768 577.216 145.628V145.172L594.658 137.534H595.114ZM604.731 178.802V149.048C604.731 145.058 604.731 142.778 599.031 142.436V141.98C605.529 138.674 610.545 134.684 615.219 126.248H615.675V139.244H627.759V142.436H615.675V177.548C615.675 183.476 617.841 186.326 621.945 186.326C624.909 186.326 627.873 184.958 629.469 183.362L629.697 183.704C626.961 188.15 621.375 191.684 615.333 191.684C608.835 191.684 604.731 187.808 604.731 178.802ZM665.341 155.66V182.108C665.341 185.414 667.051 186.098 668.533 186.098C669.787 186.098 671.383 184.958 672.409 184.16L672.637 184.274C670.129 189.062 666.481 191.684 661.921 191.684C658.729 191.684 654.853 189.746 654.511 183.02C652.231 186.668 647.785 191.684 640.945 191.684C633.421 191.684 630.001 186.782 630.001 181.424C630.001 176.75 632.395 173.444 636.043 170.594C640.945 166.718 648.013 164.096 654.511 161.132V157.37C654.511 147.794 649.837 144.146 644.821 144.146C639.235 144.146 634.219 147.908 632.395 154.748L631.483 154.52C632.851 144.716 640.261 138.104 650.749 138.104C660.781 138.104 665.341 143.462 665.341 155.66ZM654.511 181.994V162.044C645.619 166.946 640.375 172.418 640.603 179.144C640.717 183.248 642.655 186.782 647.215 186.782C649.381 186.782 652.345 185.186 654.511 181.994ZM676.092 178.802V149.048C676.092 145.058 676.092 142.778 670.392 142.436V141.98C676.89 138.674 681.906 134.684 686.58 126.248H687.036V139.244H699.12V142.436H687.036V177.548C687.036 183.476 689.202 186.326 693.306 186.326C696.27 186.326 699.234 184.958 700.83 183.362L701.058 183.704C698.322 188.15 692.736 191.684 686.694 191.684C680.196 191.684 676.092 187.808 676.092 178.802ZM710.748 116.9C714.51 116.9 717.246 120.206 717.246 124.31C717.246 128.528 714.51 131.948 710.748 131.948C707.1 131.948 704.136 128.528 704.136 124.31C704.136 120.206 707.1 116.9 710.748 116.9ZM717.018 137.534V180.512C717.018 186.554 717.018 188.72 723.516 190.544V191H699.12V190.544C705.96 188.72 705.96 186.668 705.96 180.512V152.81C705.96 148.478 705.96 146.768 699.12 145.628V145.172L716.562 137.534H717.018ZM745.975 138.104C761.593 138.104 767.179 150.986 767.179 164.78C767.179 178.46 761.251 191.684 745.633 191.684C730.243 191.684 724.315 179.144 724.315 165.35C724.315 151.784 730.585 138.104 745.975 138.104ZM746.203 139.13C736.285 139.13 735.829 157.712 735.829 165.464C735.829 172.646 736.627 190.772 745.291 190.772C755.437 190.772 755.665 172.988 755.665 164.78C755.665 157.826 754.867 139.13 746.203 139.13ZM804.03 180.512V153.494C804.03 147.908 802.434 144.26 796.62 144.26C792.972 144.26 789.21 146.312 787.044 147.908V180.512C787.044 186.554 787.044 188.72 793.542 190.544V191H769.146V190.544C775.986 188.72 775.986 186.668 775.986 180.512V152.81C775.986 148.478 775.986 146.768 769.146 145.628V145.172L786.588 137.534H787.044V146.768C790.806 142.892 797.076 138.104 803.574 138.104C812.238 138.104 815.088 142.664 815.088 152.354V180.512C815.088 186.554 815.088 188.72 821.586 190.544V191H797.19V190.544C803.802 188.72 804.03 186.668 804.03 180.512ZM839.503 139.472C834.259 139.244 829.585 142.208 829.585 148.364C829.585 155.66 836.083 157.94 843.037 159.992C849.877 161.93 856.831 165.122 856.717 175.04C856.603 186.896 848.053 191.684 838.705 191.684C835.057 191.684 825.937 191.228 821.947 188.606L821.719 173.9H822.403C826.165 185.3 834.259 190.316 840.871 190.316C845.887 190.316 849.763 187.124 849.763 181.652C849.763 175.496 844.975 173.102 839.617 171.392C831.865 168.998 822.175 165.464 822.175 154.52C822.289 143.462 831.067 138.104 840.871 138.104C846.115 138.104 851.815 139.7 854.779 141.752L852.727 155.546H852.157C848.851 146.312 845.431 139.7 839.503 139.472ZM878.123 114.962L891.803 111.884L884.963 170.366H884.507L878.123 114.962ZM885.077 177.776C888.269 177.776 891.005 180.74 891.005 184.73C891.005 188.492 888.269 191.57 885.077 191.57C881.657 191.57 879.035 188.492 879.035 184.73C879.035 180.74 881.657 177.776 885.077 177.776Z" fill="#E7B276"/>
<circle cx="14.6702" cy="14.6702" r="14.6702" transform="matrix(-1 0 0 1 197 110)" fill="#E7B276"/>
<circle cx="7.33511" cy="7.33511" r="7.33511" transform="matrix(-1 0 0 1 138.32 147.723)" fill="#E7B276"/>
<circle cx="5.23936" cy="5.23936" r="5.23936" transform="matrix(-1 0 0 1 71.25 141.436)" fill="#E7B276"/>
<circle cx="3.14362" cy="3.14362" r="3.14362" transform="matrix(-1 0 0 1 6.28906 156.106)" fill="#E7B276"/>
<circle cx="11.5266" cy="11.5266" r="11.5266" transform="matrix(-1 0 0 1 173.945 183.35)" fill="#E7B276"/>
<circle cx="14.6702" cy="14.6702" r="14.6702" transform="matrix(1 0 0 -1 979 206.404)" fill="#E7B276"/>
<circle cx="7.33511" cy="7.33511" r="7.33511" transform="matrix(1 0 0 -1 1037.68 168.681)" fill="#E7B276"/>
<circle cx="5.23936" cy="5.23936" r="5.23936" transform="matrix(1 0 0 -1 1104.75 174.967)" fill="#E7B276"/>
<circle cx="3.14362" cy="3.14362" r="3.14362" transform="matrix(1 0 0 -1 1169.71 160.297)" fill="#E7B276"/>
<circle cx="11.5266" cy="11.5266" r="11.5266" transform="matrix(1 0 0 -1 1002.05 133.053)" fill="#E7B276"/>
</svg>
