<svg width="1290" height="236" viewBox="0 0 1290 236" fill="none" xmlns="http://www.w3.org/2000/svg">
<g clip-path="url(#clip0_1086_870)">
<path d="M558.592 85.043C558.592 89.313 555.847 93.156 550.357 96.572C545.477 99.622 540.78 101.147 536.266 101.147C528.214 101.147 519.491 98.707 510.097 93.827C497.409 87.239 489.235 83.396 485.575 82.298C469.471 77.296 455.38 74.795 443.302 74.795C424.026 74.795 410.484 78.455 402.676 85.775C405.97 87.483 409.874 91.997 414.388 99.317C420.488 109.077 423.538 119.386 423.538 130.244C423.538 143.176 419.146 155.315 410.362 166.661C400.968 178.983 389.988 185.144 377.422 185.144C370.102 185.144 363.453 182.582 357.475 177.458C351.131 172.212 347.959 165.99 347.959 158.792C347.959 155.01 348.996 149.703 351.07 142.871C351.924 143.847 352.351 144.701 352.351 145.433C350.765 149.825 349.972 154.278 349.972 158.792C349.972 165.502 352.961 171.297 358.939 176.177C364.673 180.813 370.834 183.131 377.422 183.131C389.622 183.131 400.175 177.214 409.081 165.38C417.377 154.522 421.525 142.81 421.525 130.244C421.525 120.24 418.78 110.724 413.29 101.696C409.508 95.474 405.238 90.533 400.48 86.873C395.356 89.313 390.537 95.108 386.023 104.258C381.631 113.042 379.435 120.423 379.435 126.401C379.435 133.477 381.143 139.272 384.559 143.786C388.341 148.91 393.648 151.472 400.48 151.472C401.212 151.472 401.944 151.472 402.676 151.472C403.408 151.35 404.14 151.228 404.872 151.106V153.119C404.018 153.241 403.164 153.363 402.31 153.485C401.578 153.485 400.785 153.485 399.931 153.485C392.489 153.485 386.755 150.74 382.729 145.25C379.191 140.248 377.422 133.965 377.422 126.401C377.422 117.129 380.533 107.796 386.755 98.402C388.585 96.206 390.415 94.01 392.245 91.814C394.075 89.618 395.844 87.422 397.552 85.226C389.134 80.102 379.74 77.54 369.37 77.54C351.314 77.54 335.942 84.616 323.254 98.768C311.298 112.432 305.32 128.414 305.32 146.714C305.32 165.99 311.115 182.155 322.705 195.209C334.783 208.995 350.338 215.888 369.37 215.888C384.254 215.888 397.613 210.093 409.447 198.503C414.449 193.501 418.292 188.316 420.976 182.948C424.88 174.896 432.688 155.071 444.4 123.473L437.446 122.009L438.361 119.264L445.681 120.728C446.779 119.142 448.243 117.251 450.073 115.055C452.025 112.737 454.343 110.053 457.027 107.003C462.517 102.367 468.129 99.195 473.863 97.487C478.865 96.145 486.612 95.291 497.104 94.925V95.657C496.616 96.389 493.505 97.182 487.771 98.036C484.355 98.646 481.549 99.195 479.353 99.683C477.279 100.171 475.754 100.659 474.778 101.147C469.044 103.953 463.737 111.273 458.857 123.107L469.654 125.12C472.216 116.824 476.242 112.676 481.732 112.676C485.636 112.676 487.588 114.75 487.588 118.898C487.588 121.338 486.429 123.534 484.111 125.486C481.793 127.438 479.353 128.597 476.791 128.963C478.011 148.849 472.826 158.792 461.236 158.792C459.04 158.792 456.966 157.816 455.014 155.864L456.295 154.583C458.369 155.437 460.077 155.864 461.419 155.864C464.225 155.864 466.116 152.936 467.092 147.08C467.458 145.494 468.007 139.333 468.739 128.597L457.759 126.95C448.975 159.158 440.74 180.142 433.054 189.902C426.222 198.198 416.584 204.969 404.14 210.215C392.062 215.217 380.472 217.718 369.37 217.718C348.752 217.718 331.916 211.008 318.862 197.588C305.93 184.29 299.464 167.332 299.464 146.714C299.464 126.828 306.113 110.053 319.411 96.389C332.831 82.603 349.484 75.71 369.37 75.71C378.886 75.71 388.768 78.272 399.016 83.396C413.168 71.44 427.93 65.462 443.302 65.462C456.478 65.462 468.739 68.39 480.085 74.246C483.257 76.076 487.161 78.394 491.797 81.2C496.555 83.884 502.106 86.995 508.45 90.533C518.698 96.389 527.97 99.317 536.266 99.317C545.05 99.317 552.492 94.559 558.592 85.043ZM484.477 117.983C484.477 116.641 483.562 115.97 481.732 115.97C480.634 115.97 479.475 117.068 478.255 119.264C477.035 121.338 476.425 122.985 476.425 124.205C476.425 124.571 476.547 124.754 476.791 124.754C478.621 124.754 480.329 124.083 481.915 122.741C483.623 121.399 484.477 119.813 484.477 117.983ZM483.041 133.886L482.927 133.658L500.255 120.776L504.929 131.264L483.041 133.886ZM495.125 138.104C504.359 138.104 510.401 145.058 510.173 157.256H483.155V159.422C483.269 167.288 484.751 174.128 487.601 178.802C490.109 183.02 494.669 185.528 498.773 185.414C502.877 185.3 506.981 183.932 509.945 179.828L510.287 179.942C506.411 187.58 501.623 191.684 493.187 191.684C486.917 191.684 481.901 189.404 478.481 184.958C474.833 180.17 472.895 173.558 472.895 165.35C473.009 149.162 481.673 138.104 495.125 138.104ZM483.269 156.002H500.255C500.255 148.136 498.659 139.472 492.389 139.472C486.689 139.472 483.725 147.566 483.269 156.002ZM516.661 180.512V128.528C516.661 123.512 516.661 120.434 509.821 119.636V119.18L527.491 111.884H527.719V180.512C527.719 186.554 527.719 188.72 534.217 190.544V191H509.821V190.544C516.661 188.72 516.661 186.668 516.661 180.512ZM546.276 116.9C550.038 116.9 552.774 120.206 552.774 124.31C552.774 128.528 550.038 131.948 546.276 131.948C542.628 131.948 539.664 128.528 539.664 124.31C539.664 120.206 542.628 116.9 546.276 116.9ZM552.546 137.534V180.512C552.546 186.554 552.546 188.72 559.044 190.544V191H534.648V190.544C541.488 188.72 541.488 186.668 541.488 180.512V152.81C541.488 148.478 541.488 146.768 534.648 145.628V145.172L552.09 137.534H552.546ZM559.063 165.35C559.177 148.82 568.297 138.104 582.319 138.104C587.905 138.104 593.377 139.814 595.657 142.094L593.491 154.976H592.921C589.045 145.628 586.309 139.472 579.697 139.472C571.831 139.472 569.209 149.276 569.323 159.422C569.437 167.288 570.919 174.128 573.769 178.802C576.277 183.02 580.837 185.528 584.941 185.414C589.045 185.3 593.149 183.932 596.113 179.828L596.455 179.942C592.579 187.58 587.791 191.684 579.355 191.684C573.085 191.684 568.069 189.404 564.649 184.958C561.001 180.17 559.063 173.558 559.063 165.35ZM609.844 116.9C613.606 116.9 616.342 120.206 616.342 124.31C616.342 128.528 613.606 131.948 609.844 131.948C606.196 131.948 603.232 128.528 603.232 124.31C603.232 120.206 606.196 116.9 609.844 116.9ZM616.114 137.534V180.512C616.114 186.554 616.114 188.72 622.612 190.544V191H598.216V190.544C605.056 188.72 605.056 186.668 605.056 180.512V152.81C605.056 148.478 605.056 146.768 598.216 145.628V145.172L615.658 137.534H616.114ZM625.731 178.802V149.048C625.731 145.058 625.731 142.778 620.031 142.436V141.98C626.529 138.674 631.545 134.684 636.219 126.248H636.675V139.244H648.759V142.436H636.675V177.548C636.675 183.476 638.841 186.326 642.945 186.326C645.909 186.326 648.873 184.958 650.469 183.362L650.697 183.704C647.961 188.15 642.375 191.684 636.333 191.684C629.835 191.684 625.731 187.808 625.731 178.802ZM686.341 155.66V182.108C686.341 185.414 688.051 186.098 689.533 186.098C690.787 186.098 692.383 184.958 693.409 184.16L693.637 184.274C691.129 189.062 687.481 191.684 682.921 191.684C679.729 191.684 675.853 189.746 675.511 183.02C673.231 186.668 668.785 191.684 661.945 191.684C654.421 191.684 651.001 186.782 651.001 181.424C651.001 176.75 653.395 173.444 657.043 170.594C661.945 166.718 669.013 164.096 675.511 161.132V157.37C675.511 147.794 670.837 144.146 665.821 144.146C660.235 144.146 655.219 147.908 653.395 154.748L652.483 154.52C653.851 144.716 661.261 138.104 671.749 138.104C681.781 138.104 686.341 143.462 686.341 155.66ZM675.511 181.994V162.044C666.619 166.946 661.375 172.418 661.603 179.144C661.717 183.248 663.655 186.782 668.215 186.782C670.381 186.782 673.345 185.186 675.511 181.994ZM697.092 178.802V149.048C697.092 145.058 697.092 142.778 691.392 142.436V141.98C697.89 138.674 702.906 134.684 707.58 126.248H708.036V139.244H720.12V142.436H708.036V177.548C708.036 183.476 710.202 186.326 714.306 186.326C717.27 186.326 720.234 184.958 721.83 183.362L722.058 183.704C719.322 188.15 713.736 191.684 707.694 191.684C701.196 191.684 697.092 187.808 697.092 178.802ZM731.748 116.9C735.51 116.9 738.246 120.206 738.246 124.31C738.246 128.528 735.51 131.948 731.748 131.948C728.1 131.948 725.136 128.528 725.136 124.31C725.136 120.206 728.1 116.9 731.748 116.9ZM738.018 137.534V180.512C738.018 186.554 738.018 188.72 744.516 190.544V191H720.12V190.544C726.96 188.72 726.96 186.668 726.96 180.512V152.81C726.96 148.478 726.96 146.768 720.12 145.628V145.172L737.562 137.534H738.018ZM766.975 138.104C782.593 138.104 788.179 150.986 788.179 164.78C788.179 178.46 782.251 191.684 766.633 191.684C751.243 191.684 745.315 179.144 745.315 165.35C745.315 151.784 751.585 138.104 766.975 138.104ZM767.203 139.13C757.285 139.13 756.829 157.712 756.829 165.464C756.829 172.646 757.627 190.772 766.291 190.772C776.437 190.772 776.665 172.988 776.665 164.78C776.665 157.826 775.867 139.13 767.203 139.13ZM825.03 180.512V153.494C825.03 147.908 823.434 144.26 817.62 144.26C813.972 144.26 810.21 146.312 808.044 147.908V180.512C808.044 186.554 808.044 188.72 814.542 190.544V191H790.146V190.544C796.986 188.72 796.986 186.668 796.986 180.512V152.81C796.986 148.478 796.986 146.768 790.146 145.628V145.172L807.588 137.534H808.044V146.768C811.806 142.892 818.076 138.104 824.574 138.104C833.238 138.104 836.088 142.664 836.088 152.354V180.512C836.088 186.554 836.088 188.72 842.586 190.544V191H818.19V190.544C824.802 188.72 825.03 186.668 825.03 180.512ZM860.503 139.472C855.259 139.244 850.585 142.208 850.585 148.364C850.585 155.66 857.083 157.94 864.037 159.992C870.877 161.93 877.831 165.122 877.717 175.04C877.603 186.896 869.053 191.684 859.705 191.684C856.057 191.684 846.937 191.228 842.947 188.606L842.719 173.9H843.403C847.165 185.3 855.259 190.316 861.871 190.316C866.887 190.316 870.763 187.124 870.763 181.652C870.763 175.496 865.975 173.102 860.617 171.392C852.865 168.998 843.175 165.464 843.175 154.52C843.289 143.462 852.067 138.104 861.871 138.104C867.115 138.104 872.815 139.7 875.779 141.752L873.727 155.546H873.157C869.851 146.312 866.431 139.7 860.503 139.472ZM899.123 114.962L912.803 111.884L905.963 170.366H905.507L899.123 114.962ZM906.077 177.776C909.269 177.776 912.005 180.74 912.005 184.73C912.005 188.492 909.269 191.57 906.077 191.57C902.657 191.57 900.035 188.492 900.035 184.73C900.035 180.74 902.657 177.776 906.077 177.776Z" fill="#E7B276"/>
<circle cx="14.6702" cy="14.6702" r="14.6702" transform="matrix(-1 0 0 1 218 110)" fill="#E7B276"/>
<circle cx="7.33511" cy="7.33511" r="7.33511" transform="matrix(-1 0 0 1 159.319 147.723)" fill="#E7B276"/>
<circle cx="5.23936" cy="5.23936" r="5.23936" transform="matrix(-1 0 0 1 92.255 141.436)" fill="#E7B276"/>
<circle cx="3.14362" cy="3.14362" r="3.14362" transform="matrix(-1 0 0 1 27.2872 156.106)" fill="#E7B276"/>
<circle cx="11.5266" cy="11.5266" r="11.5266" transform="matrix(-1 0 0 1 194.947 183.351)" fill="#E7B276"/>
<circle cx="14.6702" cy="14.6702" r="14.6702" transform="matrix(1 0 0 -1 1000 206.403)" fill="#E7B276"/>
<circle cx="7.33511" cy="7.33511" r="7.33511" transform="matrix(1 0 0 -1 1058.68 168.681)" fill="#E7B276"/>
<circle cx="5.23936" cy="5.23936" r="5.23936" transform="matrix(1 0 0 -1 1125.75 174.968)" fill="#E7B276"/>
<circle cx="3.14362" cy="3.14362" r="3.14362" transform="matrix(1 0 0 -1 1190.71 160.297)" fill="#E7B276"/>
<circle cx="11.5266" cy="11.5266" r="11.5266" transform="matrix(1 0 0 -1 1023.05 133.053)" fill="#E7B276"/>
<g filter="url(#filter0_f_1086_870)">
<ellipse cx="645" cy="161.5" rx="645" ry="52.5" fill="#E7B276" fill-opacity="0.32"/>
</g>
</g>
<defs>
<filter id="filter0_f_1086_870" x="-164.4" y="-55.4" width="1618.8" height="433.8" filterUnits="userSpaceOnUse" color-interpolation-filters="sRGB">
<feFlood flood-opacity="0" result="BackgroundImageFix"/>
<feBlend mode="normal" in="SourceGraphic" in2="BackgroundImageFix" result="shape"/>
<feGaussianBlur stdDeviation="82.2" result="effect1_foregroundBlur_1086_870"/>
</filter>
<clipPath id="clip0_1086_870">
<rect width="1290" height="236" fill="white"/>
</clipPath>
</defs>
</svg>
