<svg width="304" height="172" viewBox="0 0 304 172" fill="none" xmlns="http://www.w3.org/2000/svg">
<g clip-path="url(#clip0_1025_1027)">
<g filter="url(#filter0_d_1025_1027)">
<path d="M137.79 58.003C131.76 58.1803 126.44 58.9783 121.83 60.397C108.707 64.7417 98.7763 76.2683 92.0376 94.977C90.0869 100.297 89.1116 103.977 89.1116 106.016C89.1116 106.105 91.2839 105.041 95.6286 102.824C99.8846 100.519 102.456 98.9227 103.343 98.036C106.003 95.2873 108.53 90.189 110.924 82.741L112.121 83.273C112.121 84.337 111.411 86.465 109.993 89.657C109.106 91.785 108.175 93.647 107.2 95.243C106.224 96.839 105.249 98.2133 104.274 99.366C100.106 103.888 94.8749 106.77 88.5796 108.011C84.5009 119.981 78.6489 128.759 71.0236 134.345C63.3983 139.842 53.3346 142.591 40.8326 142.591C31.2566 142.591 22.8333 139.842 15.5626 134.345C6.60727 127.429 2.1296 117.498 2.1296 104.553C1.3316 100.474 0.9326 95.7307 0.9326 90.322C0.9326 79.3273 4.83393 69.6627 12.6366 61.328C20.4393 52.9933 29.8379 48.826 40.8326 48.826C45.7979 48.826 50.2756 49.8013 54.2656 51.752L53.9996 52.949C49.5663 50.9983 45.1329 50.023 40.6996 50.023C30.1483 50.023 21.0599 54.1017 13.4346 62.259C5.89793 70.3277 2.1296 79.682 2.1296 90.322C2.1296 91.4747 2.21827 92.849 2.3956 94.445C2.57293 96.041 2.83893 97.8587 3.1936 99.898C4.7896 94.312 7.13927 89.391 10.2426 85.135C17.6906 75.293 28.1976 70.372 41.7636 70.372C49.4776 70.372 56.5266 72.766 62.9106 77.554C64.5953 72.5 67.6986 67.845 72.2206 63.589C81.4419 55.1657 94.3429 50.954 110.924 50.954C114.825 50.954 119.258 51.353 124.224 52.151C130.253 53.1263 134.465 54.279 136.859 55.609C137.213 55.875 137.435 56.3183 137.524 56.939C137.612 57.5597 137.701 57.9143 137.79 58.003ZM135.396 57.205C134.864 56.2297 132.292 55.1657 127.682 54.013C122.45 52.683 116.864 52.018 110.924 52.018C100.284 52.018 90.9293 54.013 82.8606 58.003C73.2846 62.7023 67.0779 69.6183 64.2406 78.751L67.1666 83.273C69.3833 87.529 70.6689 94.0903 71.0236 102.957C72.3536 103.932 74.5259 105.129 77.5406 106.548C79.3139 101.849 80.8213 97.9917 82.0626 94.977C83.3039 91.9623 84.2793 89.7013 84.9886 88.194C90.3973 77.6427 97.3133 69.6183 105.737 64.121C109.815 61.3723 114.559 59.5547 119.968 58.668C121.564 58.3133 123.647 58.0473 126.219 57.87C128.79 57.604 131.849 57.3823 135.396 57.205ZM69.5606 100.696C69.4719 99.7207 69.3389 98.4793 69.1616 96.972C69.0729 95.4647 68.8956 93.6913 68.6296 91.652C67.6543 87.396 66.0583 83.672 63.8416 80.48C63.9303 83.672 64.3293 87.2187 65.0386 91.12C65.4819 93.248 66.9893 96.44 69.5606 100.696ZM69.5606 103.622C66.4573 99.632 64.4623 95.5977 63.5756 91.519C62.8663 88.593 62.4673 84.4257 62.3786 79.017C56.6153 74.0517 49.7436 71.569 41.7636 71.569C21.4589 71.569 8.7796 82.2533 3.7256 103.622C6.56293 111.513 10.4643 117.809 15.4296 122.508C21.1043 127.917 27.8429 130.621 35.6456 130.621C46.7289 130.621 55.4626 126.631 61.8466 118.651C64.2406 115.725 66.8119 110.715 69.5606 103.622ZM77.0086 108.144C75.8559 107.789 73.7723 106.637 70.7576 104.686C64.7283 122.685 53.0243 131.729 35.6456 131.818C25.9809 131.907 18.0453 128.316 11.8386 121.045C9.7106 118.651 6.96193 113.996 3.5926 107.08C4.3906 117.543 8.15893 125.833 14.8976 131.951C21.6363 138.069 30.2813 141.128 40.8326 141.128C47.3939 141.128 54.6203 137.182 62.5116 129.291C69.4276 122.109 74.2599 115.06 77.0086 108.144ZM105.241 133.112V117.944C105.241 114.808 104.345 112.76 101.081 112.76C99.0329 112.76 96.9209 113.912 95.7049 114.808V133.112C95.7049 136.504 95.7049 137.72 99.3529 138.744V139H85.6569V138.744C89.4969 137.72 89.4969 136.568 89.4969 133.112V117.56C89.4969 115.128 89.4969 114.168 85.6569 113.528V113.272L95.4489 108.984H95.7049V114.168C97.8169 111.992 101.337 109.304 104.985 109.304C109.849 109.304 111.449 111.864 111.449 117.304V133.112C111.449 136.504 111.449 137.72 115.097 138.744V139H101.401V138.744C105.113 137.72 105.241 136.568 105.241 133.112ZM125.156 110.072C122.212 109.944 119.588 111.608 119.588 115.064C119.588 119.16 123.236 120.44 127.14 121.592C130.98 122.68 134.884 124.472 134.82 130.04C134.756 136.696 129.956 139.384 124.708 139.384C122.66 139.384 117.54 139.128 115.3 137.656L115.172 129.4H115.556C117.668 135.8 122.212 138.616 125.924 138.616C128.74 138.616 130.916 136.824 130.916 133.752C130.916 130.296 128.228 128.952 125.22 127.992C120.868 126.648 115.428 124.664 115.428 118.52C115.492 112.312 120.42 109.304 125.924 109.304C128.868 109.304 132.068 110.2 133.732 111.352L132.58 119.096H132.26C130.404 113.912 128.484 110.2 125.156 110.072ZM136.614 124.6C136.678 115.32 141.798 109.304 149.67 109.304C152.806 109.304 155.878 110.264 157.158 111.544L155.942 118.776H155.622C153.446 113.528 151.91 110.072 148.198 110.072C143.782 110.072 142.31 115.576 142.374 121.272C142.438 125.688 143.27 129.528 144.87 132.152C146.278 134.52 148.838 135.928 151.142 135.864C153.446 135.8 155.75 135.032 157.414 132.728L157.606 132.792C155.43 137.08 152.742 139.384 148.006 139.384C144.486 139.384 141.67 138.104 139.75 135.608C137.702 132.92 136.614 129.208 136.614 124.6ZM177.303 109.752L176.727 117.112L176.535 117.176C174.551 114.744 170.711 113.016 167.767 115.32V133.112C167.767 136.504 167.767 137.72 171.415 138.744V139H157.719V138.744C161.559 137.72 161.559 136.568 161.559 133.112V117.56C161.559 115.128 161.559 114.168 157.719 113.528V113.272L167.511 108.984H167.767V114.68C169.047 112.568 171.287 109.432 174.807 109.304C175.511 109.304 176.279 109.368 177.303 109.752ZM184.06 97.4C186.172 97.4 187.708 99.256 187.708 101.56C187.708 103.928 186.172 105.848 184.06 105.848C182.012 105.848 180.348 103.928 180.348 101.56C180.348 99.256 182.012 97.4 184.06 97.4ZM187.58 108.984V133.112C187.58 136.504 187.58 137.72 191.228 138.744V139H177.532V138.744C181.372 137.72 181.372 136.568 181.372 133.112V117.56C181.372 115.128 181.372 114.168 177.532 113.528V113.272L187.324 108.984H187.58ZM194.122 147.512V117.56C194.122 115.128 194.122 114.168 190.282 113.528V113.272L200.074 108.984H200.33V113.464C201.738 110.968 204.938 109.304 207.818 109.304C211.082 109.304 213.258 110.712 214.858 113.016C216.65 115.576 217.482 119.288 217.482 123.448C217.482 127.864 216.394 132.664 213.706 135.8C211.85 137.976 209.226 139.384 205.706 139.384C203.914 139.384 201.994 139 200.266 138.104V147.512C200.266 150.904 200.266 152.12 203.914 153.144V153.4H190.282V153.144C194.122 152.12 194.122 150.968 194.122 147.512ZM200.33 113.848V134.968C201.482 137.208 203.466 138.744 205.77 138.744C208.138 138.744 209.802 136.952 210.57 134.648C211.274 132.472 211.402 129.848 211.402 127.992C211.402 125.176 211.338 119.736 209.29 116.216C208.202 114.36 206.666 113.016 204.298 112.888C203.082 112.824 201.418 113.08 200.33 113.848ZM221.666 132.152V115.448C221.666 113.208 221.666 111.928 218.466 111.736V111.48C222.114 109.624 224.93 107.384 227.554 102.648H227.81V109.944H234.594V111.736H227.81V131.448C227.81 134.776 229.026 136.376 231.33 136.376C232.994 136.376 234.658 135.608 235.554 134.712L235.682 134.904C234.146 137.4 231.01 139.384 227.618 139.384C223.97 139.384 221.666 137.208 221.666 132.152ZM241.122 97.4C243.234 97.4 244.77 99.256 244.77 101.56C244.77 103.928 243.234 105.848 241.122 105.848C239.074 105.848 237.41 103.928 237.41 101.56C237.41 99.256 239.074 97.4 241.122 97.4ZM244.642 108.984V133.112C244.642 136.504 244.642 137.72 248.29 138.744V139H234.594V138.744C238.434 137.72 238.434 136.568 238.434 133.112V117.56C238.434 115.128 238.434 114.168 234.594 113.528V113.272L244.386 108.984H244.642ZM260.899 109.304C269.667 109.304 272.803 116.536 272.803 124.28C272.803 131.96 269.475 139.384 260.707 139.384C252.067 139.384 248.739 132.344 248.739 124.6C248.739 116.984 252.259 109.304 260.899 109.304ZM261.027 109.88C255.459 109.88 255.203 120.312 255.203 124.664C255.203 128.696 255.651 138.872 260.515 138.872C266.211 138.872 266.339 128.888 266.339 124.28C266.339 120.376 265.891 109.88 261.027 109.88ZM293.491 133.112V117.944C293.491 114.808 292.595 112.76 289.331 112.76C287.283 112.76 285.171 113.912 283.955 114.808V133.112C283.955 136.504 283.955 137.72 287.603 138.744V139H273.907V138.744C277.747 137.72 277.747 136.568 277.747 133.112V117.56C277.747 115.128 277.747 114.168 273.907 113.528V113.272L283.699 108.984H283.955V114.168C286.067 111.992 289.587 109.304 293.235 109.304C298.099 109.304 299.699 111.864 299.699 117.304V133.112C299.699 136.504 299.699 137.72 303.347 138.744V139H289.651V138.744C293.363 137.72 293.491 136.568 293.491 133.112Z" fill="#E7B276"/>
</g>
</g>
<defs>
<filter id="filter0_d_1025_1027" x="-29.0674" y="22.8262" width="362.414" height="164.574" filterUnits="userSpaceOnUse" color-interpolation-filters="sRGB">
<feFlood flood-opacity="0" result="BackgroundImageFix"/>
<feColorMatrix in="SourceAlpha" type="matrix" values="0 0 0 0 0 0 0 0 0 0 0 0 0 0 0 0 0 0 127 0" result="hardAlpha"/>
<feOffset dy="4"/>
<feGaussianBlur stdDeviation="15"/>
<feComposite in2="hardAlpha" operator="out"/>
<feColorMatrix type="matrix" values="0 0 0 0 0.905882 0 0 0 0 0.698039 0 0 0 0 0.462745 0 0 0 1 0"/>
<feBlend mode="normal" in2="BackgroundImageFix" result="effect1_dropShadow_1025_1027"/>
<feBlend mode="normal" in="SourceGraphic" in2="effect1_dropShadow_1025_1027" result="shape"/>
</filter>
<clipPath id="clip0_1025_1027">
<rect width="304" height="172" fill="white"/>
</clipPath>
</defs>
</svg>
