<svg width="689" height="220" viewBox="0 0 689 220" fill="none" xmlns="http://www.w3.org/2000/svg">
<g filter="url(#filter0_d_1753_1524)">
<path d="M244.995 40.396C244.995 42.592 244.263 43.69 242.799 43.69C241.945 43.69 240.542 43.446 238.59 42.958C236.638 42.47 235.113 42.226 234.015 42.226C220.229 42.226 208.517 46.374 198.879 54.67C193.145 60.648 188.57 66.809 185.154 73.153C183.568 76.203 180.396 82.913 175.638 93.283C171.002 103.653 164.719 117.744 156.789 135.556C160.449 136.288 162.645 136.654 163.377 136.654C170.209 136.654 176.309 132.994 181.677 125.674C185.703 120.062 188.753 113.23 190.827 105.178C191.071 106.642 191.254 107.74 191.376 108.472C191.62 109.082 191.742 109.265 191.742 109.021C191.376 114.633 188.509 120.794 183.141 127.504C177.041 135.068 170.392 138.85 163.194 138.85C162.584 138.85 161.669 138.789 160.449 138.667C159.229 138.545 157.643 138.362 155.691 138.118C149.103 152.27 139.831 163.555 127.875 171.973C115.187 180.757 101.279 185.149 86.1508 185.149C69.8028 185.149 56.4438 179.842 46.0738 169.228C35.8258 158.614 30.7018 145.133 30.7018 128.785C30.7018 118.293 32.4098 109.692 35.8258 102.982C36.1918 102.372 36.9238 101.03 38.0218 98.956C39.2418 96.882 40.8888 94.076 42.9628 90.538C45.5248 78.216 49.6728 67.724 55.4068 59.062C66.1428 42.958 81.2708 34.906 100.791 34.906C114.943 34.906 126.838 39.359 136.476 48.265C137.818 47.289 139.099 46.313 140.319 45.337C141.539 44.239 142.759 43.202 143.979 42.226C159.107 31.978 176.37 26.854 195.768 26.854C206.748 26.854 217.179 28.501 227.061 31.795C229.257 32.527 233.649 34.174 240.237 36.736C243.409 37.102 244.995 38.322 244.995 40.396ZM235.845 39.298V37.834C235.357 36.736 231.026 35.089 222.852 32.893C213.336 30.209 204.308 28.867 195.768 28.867C181.25 28.867 167.464 32.283 154.41 39.115C151.726 40.579 146.297 44.178 138.123 49.912C141.417 53.572 144.467 58.452 147.273 64.552L145.809 66.016C144.589 63.088 143.186 60.465 141.6 58.147C140.136 55.707 138.55 53.511 136.842 51.559C131.474 55.829 126.411 64.247 121.653 76.813C126.533 81.815 129.644 85.414 130.986 87.61C135.622 94.808 137.94 103.043 137.94 112.315C137.94 115.853 137.208 120.977 135.744 127.687C137.696 129.517 139.221 130.432 140.319 130.432L158.802 89.623C164.048 78.277 169.416 69.371 174.906 62.905C178.078 59.367 181.616 56.195 185.52 53.389C189.546 50.461 193.999 47.838 198.879 45.52C206.931 41.738 219.253 39.664 235.845 39.298ZM135.195 49.912C133.121 47.594 129.278 45.032 123.666 42.226C116.102 38.566 108.477 36.736 100.791 36.736C82.3688 36.736 67.9728 44.605 57.6028 60.343C53.9428 65.833 50.0388 75.105 45.8908 88.159C51.2588 79.741 57.6638 73.824 65.1058 70.408C71.9378 66.992 80.5998 65.284 91.0918 65.284C99.6318 65.284 109.087 68.7 119.457 75.532C125.557 61.624 130.803 53.084 135.195 49.912ZM135.378 112.315C135.378 99.383 130.559 88.464 120.921 79.558C120.433 82.73 120.067 85.658 119.823 88.342C119.579 91.026 119.457 93.588 119.457 96.028C119.457 106.154 124.032 115.975 133.182 125.491C134.646 120.977 135.378 116.585 135.378 112.315ZM131.901 128.236C122.019 118.232 117.078 107.496 117.078 96.028C117.078 92.002 117.627 85.963 118.725 77.911C108.111 70.957 98.8998 67.48 91.0918 67.48C76.9398 67.48 65.5938 70.957 57.0538 77.911C53.5158 80.717 49.9168 85.292 46.2568 91.636C45.6468 107.008 49.3068 120.55 57.2368 132.262C66.1428 145.194 78.0378 151.66 92.9218 151.66C106.83 151.66 118.42 146.109 127.692 135.007C130.498 131.469 131.901 129.212 131.901 128.236ZM139.038 133.177C138.55 132.689 137.94 132.201 137.208 131.713C136.476 131.103 135.5 130.493 134.28 129.883C124.154 145.865 110.368 153.856 92.9218 153.856C77.7938 153.856 65.4718 147.451 55.9558 134.641C47.7818 123.539 43.6948 111.461 43.6948 98.407C43.6948 97.431 43.6948 96.516 43.6948 95.662C43.8168 94.808 43.9388 93.954 44.0608 93.1C36.6188 104.69 32.8978 116.585 32.8978 128.785C32.8978 143.791 37.9608 156.54 48.0868 167.032C58.3348 177.524 71.0228 182.77 86.1508 182.77C97.8628 182.77 109.087 176.853 119.823 165.019C128.363 155.503 134.768 144.889 139.038 133.177ZM224.013 126.226C224.811 126.226 225.381 126.91 225.153 127.708C222.189 140.362 217.287 149.368 205.773 149.368C194.487 149.368 187.647 137.512 187.647 119.272C187.647 100.576 195.399 87.01 207.369 87.01C218.427 87.01 223.101 100.69 223.557 107.872C223.671 109.81 222.645 111.292 221.277 111.292H196.197C195.285 111.292 194.487 112.09 194.601 113.002C195.057 122.008 195.627 126.91 198.933 132.952C201.555 137.854 205.089 140.248 209.421 140.248C215.691 140.248 220.479 135.004 222.873 127.024C222.987 126.568 223.443 126.226 224.013 126.226ZM196.539 107.074H210.447C213.183 107.074 213.867 104.794 213.525 102.4C212.271 94.99 210.105 91.798 204.747 91.798C199.845 91.798 196.197 96.472 194.943 105.136C194.829 106.162 195.513 107.074 196.539 107.074ZM274.049 141.16C274.961 141.274 275.645 142.3 275.417 143.326C275.303 144.01 274.619 144.466 273.935 144.58C271.883 145.036 267.779 146.062 262.991 149.14C262.535 149.482 261.965 149.482 261.623 149.14C261.281 148.912 261.167 148.57 261.167 148.114V141.274C261.167 140.476 260.141 140.134 259.685 140.818C255.809 146.86 252.161 149.368 247.145 149.368C239.393 149.368 235.517 142.186 235.517 128.278V100.006C235.517 94.078 234.491 92.368 230.957 91.684C230.045 91.57 229.475 90.658 229.589 89.746C229.703 88.948 230.501 88.378 231.413 88.378H242.129C242.927 88.378 243.497 88.948 243.497 89.746V128.164C243.497 137.398 245.663 142.186 250.565 142.186C255.353 142.186 261.167 136.372 261.167 128.848V100.12C261.167 93.736 260.141 92.368 255.581 91.684C254.669 91.57 254.099 90.772 254.213 89.86C254.213 89.062 255.011 88.378 255.923 88.378H267.779C268.577 88.378 269.147 88.948 269.147 89.746V133.864C269.147 139.564 271.997 140.818 274.049 141.16ZM348.807 126.226C349.491 126.226 350.061 126.796 349.947 127.48C346.527 142.756 340.827 149.368 330.681 149.368C320.079 149.368 312.555 137.056 312.555 119.956C312.555 108.898 315.405 99.778 320.535 93.85C324.411 89.404 328.971 87.01 333.417 87.01C337.065 87.01 347.667 88.492 347.667 93.736L347.895 106.732C347.895 107.416 347.211 107.986 346.527 107.986C345.957 107.986 345.387 107.644 345.273 107.074C341.967 93.622 337.977 90.886 332.847 90.886C325.095 90.886 319.851 100.12 319.851 113.914C319.851 129.19 325.893 139.792 334.671 139.792C340.599 139.792 345.273 135.688 347.781 127.024C347.895 126.568 348.351 126.226 348.807 126.226ZM376.162 149.368C364.648 149.368 355.642 136.258 355.642 117.79C355.642 99.436 364.192 87.124 377.074 87.124C388.702 87.124 397.594 99.094 397.594 117.448C397.594 135.916 389.044 149.368 376.162 149.368ZM389.044 120.982C389.044 113.002 386.878 90.772 375.25 90.772C368.638 90.772 364.192 98.638 364.192 111.862C364.192 119.728 365.902 145.72 377.872 145.72C384.826 145.72 389.044 136.372 389.044 120.982ZM447.745 144.466C448.543 144.694 449.113 145.378 449.113 146.176C449.113 147.202 448.315 148 447.289 148H430.645C429.733 148 428.935 147.202 428.935 146.29C428.935 145.492 429.505 144.808 430.303 144.58C434.635 143.668 435.433 141.616 435.433 133.294V108.214C435.433 98.98 433.267 94.192 428.365 94.192C423.577 94.192 417.649 100.006 417.649 107.53V133.294C417.649 141.616 418.447 143.668 422.779 144.58C423.577 144.808 424.147 145.492 424.147 146.29C424.147 147.202 423.349 148 422.437 148H405.337C404.425 148 403.627 147.202 403.627 146.29C403.627 145.378 404.197 144.694 404.995 144.58C409.213 143.44 409.669 141.73 409.669 133.294V102.514C409.669 96.814 406.933 95.56 404.881 95.218C403.855 94.99 403.171 94.078 403.399 93.052C403.627 92.368 404.197 91.912 404.881 91.798C407.047 91.342 411.151 90.316 415.939 87.238C416.281 86.896 416.851 86.896 417.307 87.238C417.535 87.58 417.649 87.922 417.649 88.264V95.104C417.649 95.902 418.789 96.244 419.245 95.56C423.007 89.518 426.655 87.01 431.671 87.01C439.423 87.01 443.413 94.192 443.413 108.1V133.294C443.413 141.616 443.869 143.212 447.745 144.466ZM489.748 126.226C490.432 126.226 491.002 126.796 490.888 127.48C487.468 142.756 481.768 149.368 471.622 149.368C461.02 149.368 453.496 137.056 453.496 119.956C453.496 108.898 456.346 99.778 461.476 93.85C465.352 89.404 469.912 87.01 474.358 87.01C478.006 87.01 488.608 88.492 488.608 93.736L488.836 106.732C488.836 107.416 488.152 107.986 487.468 107.986C486.898 107.986 486.328 107.644 486.214 107.074C482.908 93.622 478.918 90.886 473.788 90.886C466.036 90.886 460.792 100.12 460.792 113.914C460.792 129.19 466.834 139.792 475.612 139.792C481.54 139.792 486.214 135.688 488.722 127.024C488.836 126.568 489.292 126.226 489.748 126.226ZM517.103 149.368C505.589 149.368 496.583 136.258 496.583 117.79C496.583 99.436 505.133 87.124 518.015 87.124C529.643 87.124 538.535 99.094 538.535 117.448C538.535 135.916 529.985 149.368 517.103 149.368ZM529.985 120.982C529.985 113.002 527.819 90.772 516.191 90.772C509.579 90.772 505.133 98.638 505.133 111.862C505.133 119.728 506.843 145.72 518.813 145.72C525.767 145.72 529.985 136.372 529.985 120.982ZM587.66 141.16C588.572 141.274 589.256 142.3 589.028 143.326C588.914 144.01 588.23 144.466 587.546 144.58C585.494 145.036 581.39 146.062 576.602 149.14C576.146 149.482 575.576 149.482 575.234 149.14C574.892 148.912 574.778 148.57 574.778 148.114V141.274C574.778 140.476 573.752 140.134 573.296 140.818C569.42 146.86 565.772 149.368 560.756 149.368C553.004 149.368 549.128 142.186 549.128 128.278V100.006C549.128 94.078 548.102 92.368 544.568 91.684C543.656 91.57 543.086 90.658 543.2 89.746C543.314 88.948 544.112 88.378 545.024 88.378H555.74C556.538 88.378 557.108 88.948 557.108 89.746V128.164C557.108 137.398 559.274 142.186 564.176 142.186C568.964 142.186 574.778 136.372 574.778 128.848V100.12C574.778 93.736 573.752 92.368 569.192 91.684C568.28 91.57 567.71 90.772 567.824 89.86C567.824 89.062 568.622 88.378 569.534 88.378H581.39C582.188 88.378 582.758 88.948 582.758 89.746V133.864C582.758 139.564 585.608 140.818 587.66 141.16ZM619.656 87.01C622.848 87.01 625.356 89.29 625.356 94.078C625.356 97.726 623.418 100.006 621.138 100.006C617.718 100.006 618.63 94.876 614.868 94.876C612.132 94.876 608.142 101.26 608.142 108.442V134.89C608.142 141.844 609.51 144.124 614.868 144.694C615.666 144.808 616.35 145.606 616.236 146.518C616.122 147.43 615.438 148 614.526 148H595.26C594.234 148 593.322 147.088 593.436 146.062C593.55 145.264 594.12 144.694 594.804 144.466C599.592 143.098 600.162 141.73 600.162 135.688V102.514C600.162 96.814 597.426 95.56 595.374 95.218C594.348 94.99 593.778 94.078 594.006 93.052C594.12 92.368 594.69 91.912 595.488 91.798C597.54 91.342 601.644 90.316 606.432 87.238C606.774 86.896 607.344 86.896 607.8 87.238C608.028 87.58 608.142 87.922 608.142 88.264V96.016C608.142 96.928 609.282 97.27 609.738 96.472C613.614 89.29 616.122 87.01 619.656 87.01ZM640.095 107.986L650.013 116.422C656.055 121.552 658.335 125.2 658.335 132.724C658.335 141.616 652.293 149.368 644.997 149.368C640.323 149.368 630.291 149.026 630.291 142.3L630.063 128.962C630.063 128.278 630.633 127.708 631.317 127.708C632.001 127.708 632.571 128.164 632.571 128.734C634.623 140.932 637.017 146.404 643.743 146.404C648.645 146.404 651.723 142.072 651.723 136.6C651.723 132.496 649.785 129.076 646.593 126.682L641.463 122.692C633.597 116.536 630.063 110.152 630.063 103.426C630.063 92.938 635.421 87.01 643.173 87.01C646.593 87.01 655.029 89.29 655.029 93.85L655.257 106.618C655.257 107.416 654.687 108.1 653.889 108.1C653.205 108.1 652.635 107.53 652.521 106.96C650.469 95.674 648.645 89.974 643.059 89.974C639.069 89.974 635.991 92.71 635.991 98.98C635.991 101.944 637.359 105.82 640.095 107.986Z" fill="#E7B276"/>
</g>
<defs>
<filter id="filter0_d_1753_1524" x="0.703125" y="0.854004" width="687.633" height="218.295" filterUnits="userSpaceOnUse" color-interpolation-filters="sRGB">
<feFlood flood-opacity="0" result="BackgroundImageFix"/>
<feColorMatrix in="SourceAlpha" type="matrix" values="0 0 0 0 0 0 0 0 0 0 0 0 0 0 0 0 0 0 127 0" result="hardAlpha"/>
<feOffset dy="4"/>
<feGaussianBlur stdDeviation="15"/>
<feComposite in2="hardAlpha" operator="out"/>
<feColorMatrix type="matrix" values="0 0 0 0 0.74902 0 0 0 0 0.556863 0 0 0 0 0.388235 0 0 0 1 0"/>
<feBlend mode="normal" in2="BackgroundImageFix" result="effect1_dropShadow_1753_1524"/>
<feBlend mode="normal" in="SourceGraphic" in2="effect1_dropShadow_1753_1524" result="shape"/>
</filter>
</defs>
</svg>
