<svg width="634" height="159" viewBox="0 0 634 159" fill="none" xmlns="http://www.w3.org/2000/svg">
<g clip-path="url(#clip0_926_876)">
<g filter="url(#filter0_f_926_876)">
<path d="M317 112C492.074 112 634 97.002 634 78.5C634 59.999 492.074 45 317 45C141.926 45 0 59.999 0 78.5C0 97.002 141.926 112 317 112Z" fill="#E7B276" fill-opacity="0.32"/>
</g>
<path d="M217.293 13.542C217.293 15.738 216.561 16.836 215.097 16.836C214.243 16.836 212.84 16.592 210.888 16.104C208.936 15.616 207.411 15.372 206.313 15.372C192.527 15.372 180.815 19.52 171.177 27.816C165.443 33.794 160.868 39.955 157.452 46.299C155.866 49.349 152.694 56.059 147.936 66.429C143.3 76.799 137.017 90.89 129.087 108.702C132.747 109.434 134.943 109.8 135.675 109.8C142.507 109.8 148.607 106.14 153.975 98.82C158.001 93.208 161.051 86.376 163.125 78.324C163.369 79.788 163.552 80.886 163.674 81.618C163.918 82.228 164.04 82.411 164.04 82.167C163.674 87.779 160.807 93.94 155.439 100.65C149.339 108.214 142.69 111.996 135.492 111.996C134.882 111.996 133.967 111.935 132.747 111.813C131.527 111.691 129.941 111.508 127.989 111.264C121.401 125.416 112.129 136.701 100.173 145.119C87.485 153.903 73.577 158.295 58.449 158.295C42.101 158.295 28.742 152.988 18.372 142.374C8.12399 131.76 3 118.279 3 101.931C3 91.439 4.70799 82.838 8.12399 76.128C8.48999 75.518 9.22201 74.176 10.32 72.102C11.54 70.028 13.187 67.222 15.261 63.684C17.823 51.362 21.971 40.87 27.705 32.208C38.441 16.104 53.569 8.052 73.089 8.052C87.241 8.052 99.136 12.505 108.774 21.411C110.116 20.435 111.397 19.459 112.617 18.483C113.837 17.385 115.057 16.348 116.277 15.372C131.405 5.12399 148.668 0 168.066 0C179.046 0 189.477 1.647 199.359 4.941C201.555 5.673 205.947 7.32 212.535 9.882C215.707 10.248 217.293 11.468 217.293 13.542ZM208.143 12.444V10.98C207.655 9.882 203.324 8.235 195.15 6.039C185.634 3.355 176.606 2.013 168.066 2.013C153.548 2.013 139.762 5.429 126.708 12.261C124.024 13.725 118.595 17.324 110.421 23.058C113.715 26.718 116.765 31.598 119.571 37.698L118.107 39.162C116.887 36.234 115.484 33.611 113.898 31.293C112.434 28.853 110.848 26.657 109.14 24.705C103.772 28.975 98.709 37.393 93.951 49.959C98.831 54.961 101.942 58.56 103.284 60.756C107.92 67.954 110.238 76.189 110.238 85.461C110.238 88.999 109.506 94.123 108.042 100.833C109.994 102.663 111.519 103.578 112.617 103.578L131.1 62.769C136.346 51.423 141.714 42.517 147.204 36.051C150.376 32.513 153.914 29.341 157.818 26.535C161.844 23.607 166.297 20.984 171.177 18.666C179.229 14.884 191.551 12.81 208.143 12.444ZM107.493 23.058C105.419 20.74 101.576 18.178 95.964 15.372C88.4 11.712 80.775 9.882 73.089 9.882C54.667 9.882 40.271 17.751 29.901 33.489C26.241 38.979 22.337 48.251 18.189 61.305C23.557 52.887 29.962 46.97 37.404 43.554C44.236 40.138 52.898 38.43 63.39 38.43C71.93 38.43 81.385 41.846 91.755 48.678C97.855 34.77 103.101 26.23 107.493 23.058ZM107.676 85.461C107.676 72.529 102.857 61.61 93.219 52.704C92.731 55.876 92.365 58.804 92.121 61.488C91.877 64.172 91.755 66.734 91.755 69.174C91.755 79.3 96.33 89.121 105.48 98.637C106.944 94.123 107.676 89.731 107.676 85.461ZM104.199 101.382C94.317 91.378 89.376 80.642 89.376 69.174C89.376 65.148 89.925 59.109 91.023 51.057C80.409 44.103 71.198 40.626 63.39 40.626C49.238 40.626 37.892 44.103 29.352 51.057C25.814 53.863 22.215 58.438 18.555 64.782C17.945 80.154 21.605 93.696 29.535 105.408C38.441 118.34 50.336 124.806 65.22 124.806C79.128 124.806 90.718 119.255 99.99 108.153C102.796 104.615 104.199 102.358 104.199 101.382ZM111.336 106.323C110.848 105.835 110.238 105.347 109.506 104.859C108.774 104.249 107.798 103.639 106.578 103.029C96.452 119.011 82.666 127.002 65.22 127.002C50.092 127.002 37.77 120.597 28.254 107.787C20.08 96.685 15.993 84.607 15.993 71.553C15.993 70.577 15.993 69.662 15.993 68.808C16.115 67.954 16.237 67.1 16.359 66.246C8.91699 77.836 5.196 89.731 5.196 101.931C5.196 116.937 10.259 129.686 20.385 140.178C30.633 150.67 43.321 155.916 58.449 155.916C70.161 155.916 81.385 149.999 92.121 138.165C100.661 128.649 107.066 118.035 111.336 106.323ZM196.311 99.372C197.109 99.372 197.679 100.056 197.451 100.854C194.487 113.508 189.585 122.514 178.071 122.514C166.785 122.514 159.945 110.658 159.945 92.418C159.945 73.722 167.697 60.156 179.667 60.156C190.725 60.156 195.399 73.836 195.855 81.018C195.969 82.956 194.943 84.438 193.575 84.438H168.495C167.583 84.438 166.785 85.236 166.899 86.148C167.355 95.154 167.925 100.056 171.231 106.098C173.853 111 177.387 113.394 181.719 113.394C187.989 113.394 192.777 108.15 195.171 100.17C195.285 99.714 195.741 99.372 196.311 99.372ZM168.837 80.22H182.745C185.481 80.22 186.165 77.94 185.823 75.546C184.569 68.136 182.403 64.944 177.045 64.944C172.143 64.944 168.495 69.618 167.241 78.282C167.127 79.308 167.811 80.22 168.837 80.22ZM246.347 114.306C247.259 114.42 247.943 115.446 247.715 116.472C247.601 117.156 246.917 117.612 246.233 117.726C244.181 118.182 240.077 119.208 235.289 122.286C234.833 122.628 234.263 122.628 233.921 122.286C233.579 122.058 233.465 121.716 233.465 121.26V114.42C233.465 113.622 232.439 113.28 231.983 113.964C228.107 120.006 224.459 122.514 219.443 122.514C211.691 122.514 207.815 115.332 207.815 101.424V73.152C207.815 67.224 206.789 65.514 203.255 64.83C202.343 64.716 201.773 63.804 201.887 62.892C202.001 62.094 202.799 61.524 203.711 61.524H214.427C215.225 61.524 215.795 62.094 215.795 62.892V101.31C215.795 110.544 217.961 115.332 222.863 115.332C227.651 115.332 233.465 109.518 233.465 101.994V73.266C233.465 66.882 232.439 65.514 227.879 64.83C226.967 64.716 226.397 63.918 226.511 63.006C226.511 62.208 227.309 61.524 228.221 61.524H240.077C240.875 61.524 241.445 62.094 241.445 62.892V107.01C241.445 112.71 244.295 113.964 246.347 114.306ZM321.105 99.372C321.789 99.372 322.359 99.942 322.245 100.626C318.825 115.902 313.125 122.514 302.979 122.514C292.377 122.514 284.853 110.202 284.853 93.102C284.853 82.044 287.703 72.924 292.833 66.996C296.709 62.55 301.269 60.156 305.715 60.156C309.363 60.156 319.965 61.638 319.965 66.882L320.193 79.878C320.193 80.562 319.509 81.132 318.825 81.132C318.255 81.132 317.685 80.79 317.571 80.22C314.265 66.768 310.275 64.032 305.145 64.032C297.393 64.032 292.149 73.266 292.149 87.06C292.149 102.336 298.191 112.938 306.969 112.938C312.897 112.938 317.571 108.834 320.079 100.17C320.193 99.714 320.649 99.372 321.105 99.372ZM348.46 122.514C336.946 122.514 327.94 109.404 327.94 90.936C327.94 72.582 336.49 60.27 349.372 60.27C361 60.27 369.892 72.24 369.892 90.594C369.892 109.062 361.342 122.514 348.46 122.514ZM361.342 94.128C361.342 86.148 359.176 63.918 347.548 63.918C340.936 63.918 336.49 71.784 336.49 85.008C336.49 92.874 338.2 118.866 350.17 118.866C357.124 118.866 361.342 109.518 361.342 94.128ZM420.043 117.612C420.841 117.84 421.411 118.524 421.411 119.322C421.411 120.348 420.613 121.146 419.587 121.146H402.943C402.031 121.146 401.233 120.348 401.233 119.436C401.233 118.638 401.803 117.954 402.601 117.726C406.933 116.814 407.731 114.762 407.731 106.44V81.36C407.731 72.126 405.565 67.338 400.663 67.338C395.875 67.338 389.947 73.152 389.947 80.676V106.44C389.947 114.762 390.745 116.814 395.077 117.726C395.875 117.954 396.445 118.638 396.445 119.436C396.445 120.348 395.647 121.146 394.735 121.146H377.635C376.723 121.146 375.925 120.348 375.925 119.436C375.925 118.524 376.495 117.84 377.293 117.726C381.511 116.586 381.967 114.876 381.967 106.44V75.66C381.967 69.96 379.231 68.706 377.179 68.364C376.153 68.136 375.469 67.224 375.697 66.198C375.925 65.514 376.495 65.058 377.179 64.944C379.345 64.488 383.449 63.462 388.237 60.384C388.579 60.042 389.149 60.042 389.605 60.384C389.833 60.726 389.947 61.068 389.947 61.41V68.25C389.947 69.048 391.087 69.39 391.543 68.706C395.305 62.664 398.953 60.156 403.969 60.156C411.721 60.156 415.711 67.338 415.711 81.246V106.44C415.711 114.762 416.167 116.358 420.043 117.612ZM462.046 99.372C462.73 99.372 463.3 99.942 463.186 100.626C459.766 115.902 454.066 122.514 443.92 122.514C433.318 122.514 425.794 110.202 425.794 93.102C425.794 82.044 428.644 72.924 433.774 66.996C437.65 62.55 442.21 60.156 446.656 60.156C450.304 60.156 460.906 61.638 460.906 66.882L461.134 79.878C461.134 80.562 460.45 81.132 459.766 81.132C459.196 81.132 458.626 80.79 458.512 80.22C455.206 66.768 451.216 64.032 446.086 64.032C438.334 64.032 433.09 73.266 433.09 87.06C433.09 102.336 439.132 112.938 447.91 112.938C453.838 112.938 458.512 108.834 461.02 100.17C461.134 99.714 461.59 99.372 462.046 99.372ZM489.401 122.514C477.887 122.514 468.881 109.404 468.881 90.936C468.881 72.582 477.431 60.27 490.313 60.27C501.941 60.27 510.833 72.24 510.833 90.594C510.833 109.062 502.283 122.514 489.401 122.514ZM502.283 94.128C502.283 86.148 500.117 63.918 488.489 63.918C481.877 63.918 477.431 71.784 477.431 85.008C477.431 92.874 479.141 118.866 491.111 118.866C498.065 118.866 502.283 109.518 502.283 94.128ZM559.958 114.306C560.87 114.42 561.554 115.446 561.326 116.472C561.212 117.156 560.528 117.612 559.844 117.726C557.792 118.182 553.688 119.208 548.9 122.286C548.444 122.628 547.874 122.628 547.532 122.286C547.19 122.058 547.076 121.716 547.076 121.26V114.42C547.076 113.622 546.05 113.28 545.594 113.964C541.718 120.006 538.07 122.514 533.054 122.514C525.302 122.514 521.426 115.332 521.426 101.424V73.152C521.426 67.224 520.4 65.514 516.866 64.83C515.954 64.716 515.384 63.804 515.498 62.892C515.612 62.094 516.41 61.524 517.322 61.524H528.038C528.836 61.524 529.406 62.094 529.406 62.892V101.31C529.406 110.544 531.572 115.332 536.474 115.332C541.262 115.332 547.076 109.518 547.076 101.994V73.266C547.076 66.882 546.05 65.514 541.49 64.83C540.578 64.716 540.008 63.918 540.122 63.006C540.122 62.208 540.92 61.524 541.832 61.524H553.688C554.486 61.524 555.056 62.094 555.056 62.892V107.01C555.056 112.71 557.906 113.964 559.958 114.306ZM591.954 60.156C595.146 60.156 597.654 62.436 597.654 67.224C597.654 70.872 595.716 73.152 593.436 73.152C590.016 73.152 590.928 68.022 587.166 68.022C584.43 68.022 580.44 74.406 580.44 81.588V108.036C580.44 114.99 581.808 117.27 587.166 117.84C587.964 117.954 588.648 118.752 588.534 119.664C588.42 120.576 587.736 121.146 586.824 121.146H567.558C566.532 121.146 565.62 120.234 565.734 119.208C565.848 118.41 566.418 117.84 567.102 117.612C571.89 116.244 572.46 114.876 572.46 108.834V75.66C572.46 69.96 569.724 68.706 567.672 68.364C566.646 68.136 566.076 67.224 566.304 66.198C566.418 65.514 566.988 65.058 567.786 64.944C569.838 64.488 573.942 63.462 578.73 60.384C579.072 60.042 579.642 60.042 580.098 60.384C580.326 60.726 580.44 61.068 580.44 61.41V69.162C580.44 70.074 581.58 70.416 582.036 69.618C585.912 62.436 588.42 60.156 591.954 60.156ZM612.393 81.132L622.311 89.568C628.353 94.698 630.633 98.346 630.633 105.87C630.633 114.762 624.591 122.514 617.295 122.514C612.621 122.514 602.589 122.172 602.589 115.446L602.361 102.108C602.361 101.424 602.931 100.854 603.615 100.854C604.299 100.854 604.869 101.31 604.869 101.88C606.921 114.078 609.315 119.55 616.041 119.55C620.943 119.55 624.021 115.218 624.021 109.746C624.021 105.642 622.083 102.222 618.891 99.828L613.761 95.838C605.895 89.682 602.361 83.298 602.361 76.572C602.361 66.084 607.719 60.156 615.471 60.156C618.891 60.156 627.327 62.436 627.327 66.996L627.555 79.764C627.555 80.562 626.985 81.246 626.187 81.246C625.503 81.246 624.933 80.676 624.819 80.106C622.767 68.82 620.943 63.12 615.357 63.12C611.367 63.12 608.289 65.856 608.289 72.126C608.289 75.09 609.657 78.966 612.393 81.132Z" fill="#E7B276"/>
</g>
<defs>
<filter id="filter0_f_926_876" x="-169.9" y="-124.9" width="973.8" height="406.8" filterUnits="userSpaceOnUse" color-interpolation-filters="sRGB">
<feFlood flood-opacity="0" result="BackgroundImageFix"/>
<feBlend mode="normal" in="SourceGraphic" in2="BackgroundImageFix" result="shape"/>
<feGaussianBlur stdDeviation="84.95" result="effect1_foregroundBlur_926_876"/>
</filter>
<clipPath id="clip0_926_876">
<rect width="634" height="158.295" fill="white"/>
</clipPath>
</defs>
</svg>
