<svg width="56" height="50" viewBox="0 0 56 50" fill="none" xmlns="http://www.w3.org/2000/svg">
<g clip-path="url(#clip0_1185_1087)">
<path d="M5.6 50C4.06 50 2.74213 49.3885 1.6464 48.1656C0.550667 46.9427 0.00186667 45.4708 0 43.75V6.25C0 4.53125 0.5488 3.06042 1.6464 1.8375C2.744 0.614583 4.06187 0.00208333 5.6 0H50.4C51.94 0 53.2588 0.612499 54.3564 1.8375C55.454 3.0625 56.0019 4.53333 56 6.25V43.75C56 45.4687 55.4521 46.9406 54.3564 48.1656C53.2607 49.3906 51.9419 50.0021 50.4 50H5.6ZM28 31.125L5.6 12.5V43.75H50.4V12.5L28 31.125ZM28 24.875L50.4 6.25H5.6L28 24.875ZM5.6 12.5V6.25V43.75V12.5Z" fill="#E7B276"/>
</g>
<defs>
<clipPath id="clip0_1185_1087">
<rect width="56" height="50" fill="white"/>
</clipPath>
</defs>
</svg>
