<?xml version="1.0" encoding="UTF-8"?>
<svg xmlns="http://www.w3.org/2000/svg" viewBox="0 0 2249.64 1384.95">
  <defs>
    <style>
      .cls-1 {
        fill: #cec3b6;
      }

      .cls-2 {
        stroke: #6d4836;
        stroke-width: 12px;
      }

      .cls-2, .cls-3, .cls-4, .cls-5, .cls-6, .cls-7, .cls-8, .cls-9, .cls-10, .cls-11, .cls-12, .cls-13, .cls-14, .cls-15, .cls-16, .cls-17, .cls-18, .cls-19, .cls-20, .cls-21, .cls-22, .cls-23, .cls-24, .cls-25, .cls-26 {
        stroke-miterlimit: 10;
      }

      .cls-2, .cls-13, .cls-22 {
        fill: none;
      }

      .cls-27 {
        fill: #6f7c3b;
      }

      .cls-3 {
        fill: #8fa58f;
      }

      .cls-3, .cls-6, .cls-11, .cls-13, .cls-18, .cls-19, .cls-23, .cls-24 {
        stroke: #000100;
      }

      .cls-4 {
        fill: #b3afa9;
      }

      .cls-4, .cls-7, .cls-8, .cls-9, .cls-10, .cls-12, .cls-14, .cls-15, .cls-16, .cls-17, .cls-21, .cls-22, .cls-25 {
        stroke: #000;
      }

      .cls-28 {
        fill: #e8d5b8;
      }

      .cls-5 {
        stroke-width: 2px;
      }

      .cls-5, .cls-29, .cls-26 {
        fill: #caa97a;
      }

      .cls-5, .cls-26 {
        stroke: #caa97a;
      }

      .cls-6 {
        fill: #10464c;
      }

      .cls-7 {
        fill: #d5b55b;
      }

      .cls-8 {
        fill: #c7c6c6;
      }

      .cls-9 {
        fill: #3b3431;
      }

      .cls-10 {
        fill: #52504f;
      }

      .cls-11 {
        fill: #98928f;
      }

      .cls-12, .cls-30 {
        fill: #6d4836;
      }

      .cls-14, .cls-31 {
        fill: #4c2e24;
      }

      .cls-32 {
        fill: #a37552;
      }

      .cls-15 {
        fill: #166572;
      }

      .cls-16 {
        fill: #8c5962;
      }

      .cls-17 {
        fill: #8a995a;
      }

      .cls-18 {
        fill: #724953;
      }

      .cls-19 {
        fill: #a5a4a4;
      }

      .cls-20 {
        stroke: #d3b694;
      }

      .cls-20, .cls-33 {
        fill: #d3b694;
      }

      .cls-21 {
        fill: #e3d4be;
      }

      .cls-23 {
        fill: #c68d89;
      }

      .cls-24 {
        fill: #639c9c;
      }

      .cls-34 {
        fill: #e1c79b;
      }

      .cls-25 {
        fill: #e9a9a2;
      }
    </style>
  </defs>
  <g id="Calque_2" data-name="Calque 2">
    <polygon class="cls-27" points="386.14 452.25 637.15 564.39 636.78 388.42 1247.14 182.22 1877.66 394.27 1877.66 913.48 1321.55 1141.67 1219.47 1096.63 665.49 1384.95 2249.64 1384.95 2249.64 0 1583.07 0 386.14 452.25"/>
    <g>
      <path class="cls-12" d="M1496.4,203.89s3.47,51.25-9.55,97.72l33.88-.43s-11.29-60.8-2.61-99.46l-21.72,2.17Z"/>
      <path class="cls-17" d="M1563.82,112.02s3.96-17.95-9.68-22.29c-13.63-4.33-21.96,1.94-21.96,1.94,0,0-9.04-7.08-19.29-7.56-10.24-.48-16.07,9.62-16.07,9.62,0,0-17.97-7.13-26.64-3.09-8.67,4.04-10.84,22.08-10.84,22.08,0,0-17.66,5.47-15.69,20.74,1.97,15.27,19.25,17.92,19.25,17.92,0,0-15.91,6.29-11.32,22.79,4.59,16.5,20.06,10.19,20.06,10.19,0,0-18.55,24.68,6.27,38.05,24.82,13.37,38.3,1.78,38.3,1.78,0,0,20.13,8.71,27.54,2.76s1.7-17.32,1.7-17.32c0,0,17.93-1.76,21.5-11.22,3.56-9.46-8.87-20.4-8.87-20.4,0,0,18.86-2.58,20.48-18.17,1.62-15.59-14.38-26.7-14.38-26.7,0,0,7.83-5.19,8.02-9.25s-8.38-11.86-8.38-11.86Z"/>
    </g>
    <g>
      <path class="cls-12" d="M2116.36,394.01s3.47,51.25-9.55,97.72l33.88-.43s-11.29-60.8-2.61-99.46l-21.72,2.17Z"/>
      <path class="cls-17" d="M2170.82,410.67s18.12,3.12,21.82-10.7c3.7-13.82-2.96-21.85-2.96-21.85,0,0,6.66-9.36,6.66-19.62s-10.35-15.6-10.35-15.6c0,0,6.29-18.28,1.85-26.75-4.44-8.47-22.55-9.81-22.55-9.81,0,0-6.29-17.39-21.45-14.71-15.16,2.67-17.01,20.06-17.01,20.06,0,0-7.03-15.6-23.29-10.25-16.27,5.35-9.24,20.51-9.24,20.51,0,0-25.51-17.39-37.71,8.02-12.2,25.41,0,38.34,0,38.34,0,0-7.76,20.51-1.48,27.64s17.38.89,17.38.89c0,0,2.59,17.83,12.2,20.95,9.61,3.12,19.97-9.81,19.97-9.81,0,0,3.45,18.72,19.1,19.62,15.65.89,26.01-15.6,26.01-15.6,0,0,5.55,7.58,9.61,7.58s11.46-8.92,11.46-8.92Z"/>
    </g>
    <polygon class="cls-4" points="0 1.16 0 903.1 549.4 659.7 124.62 443.12 1374.34 -6.8 0 1.16"/>
    <polygon class="cls-1" points="1374.34 -6.8 1661.66 1.97 385.38 452.24 636.4 564.38 636.8 751.04 451.09 831.07 974.8 1076.97 1075.28 1031.1 1218.71 1096.62 664.73 1384.94 426.42 1384.94 843.94 1177.05 328.65 911.8 -.76 1060.36 -.76 903.09 548.65 659.69 123.86 443.11 1374.34 -6.8"/>
    <polygon class="cls-27" points=".49 1060.2 329.9 911.65 845.19 1176.9 427.67 1384.79 .49 1384.79 .49 1060.2"/>
    <polygon class="cls-27" points="1076.04 1031.11 975.56 1076.98 451.84 831.08 637.56 751.05 637.73 831.54 1076.04 1031.11"/>
    <polygon class="cls-34" points="1634.17 761.37 1832.28 833.62 1832.86 876.4 1634.17 958.73 1634.17 761.37"/>
    <polygon class="cls-34" points="1342.68 989.13 1478.22 932.83 1590.09 978.23 1342.68 1079.48 1342.68 989.13"/>
    <polygon class="cls-34" points="1260.11 962.89 1289.3 949.67 1289.05 1058.62 1093.48 976.95 1093.4 804.01 1177.31 776.45 1198.48 784.39 1128.35 865.61 1126.47 908.52 1136.52 911.84 1146.36 910.31 1253.97 960.56 1260.11 962.89"/>
    <polygon class="cls-34" points="1067.92 965.28 1067.92 812.48 891.16 871.25 891.16 886.49 1067.92 965.28"/>
    <polygon class="cls-34" points="689.66 798.08 688.86 740.4 844.7 688.59 844.7 865.76 689.66 798.08"/>
    <polygon class="cls-34" points="1057.82 545.72 1134.92 518.21 1413.02 619.79 1329.21 653.46 1057.82 545.72"/>
    <polygon class="cls-29" points="1146.36 896.59 1161.85 888.62 1253.38 930.07 1253.38 946.82 1146.36 896.59"/>
    <polygon class="cls-29" points="1161.59 872.9 1177.56 867.39 1261.59 906.84 1253.38 916.15 1161.59 872.9"/>
    <polygon class="cls-29" points="1177.56 854.56 1192.82 848.36 1279.1 887 1268.7 897.87 1177.56 854.56"/>
    <polygon class="cls-29" points="1192.82 833.76 1207.42 828.45 1289.05 862.13 1289.3 875.44 1192.82 833.76"/>
    <polygon class="cls-29" points="1207.48 815.57 1229.99 807.88 1289.05 832.17 1289.05 849.56 1207.48 815.57"/>
    <polygon class="cls-29" points="1230.58 794.83 1288.77 818.95 1289.05 776.75 1277.32 772.2 1230.62 793.49 1230.58 794.83"/>
    <polygon class="cls-29" points="1231.26 778.77 1231.83 765.7 1261.55 751.51 1277.32 758.6 1231.26 778.77"/>
    <polygon class="cls-29" points="1227.63 753.86 1219.75 743 1245.49 732.41 1261.22 739.07 1227.63 753.86"/>
    <polygon class="cls-29" points="1212 732.41 1204.67 722.4 1231.45 712.59 1244.98 719.56 1212 732.41"/>
    <polygon class="cls-29" points="1197.28 712.31 1189.01 701 1217.56 691.03 1231.08 699.2 1197.28 712.31"/>
    <polygon class="cls-29" points="1182.96 692.74 1176.28 683.61 1176.08 663.3 1217.56 681.62 1182.96 692.74"/>
    <polygon class="cls-30" points="1697.83 872.77 1670.99 858.48 1757.72 821.83 1781.81 836.88 1697.83 872.77"/>
    <polygon class="cls-31" points="1703.2 877.1 1697.83 880.16 1692.45 877.1 1692.11 899.95 1703.6 899.95 1703.2 877.1"/>
    <polygon class="cls-31" points="1765.32 850.88 1776.63 845.96 1776.63 872.77 1765.32 872.77 1765.32 850.88"/>
    <polygon class="cls-31" points="1675.02 867.96 1684.36 873 1684.36 892.36 1675.02 892.36 1675.02 867.96"/>
    <polygon class="cls-31" points="1671.48 866.18 1670.99 858.48 1697.83 872.77 1781.81 836.88 1781.81 843.71 1765.32 850.88 1703.2 877.1 1697.83 880.16 1692.45 877.1 1684.36 873 1675.02 867.96 1671.48 866.18"/>
    <g>
      <polygon class="cls-30" points="1403.2 1018.92 1374.34 1003.55 1467.58 964.16 1493.48 980.34 1403.2 1018.92"/>
      <polygon class="cls-31" points="1408.98 1023.57 1403.2 1026.87 1397.42 1023.57 1397.05 1048.14 1409.41 1048.14 1408.98 1023.57"/>
      <polygon class="cls-31" points="1475.75 995.39 1487.91 990.1 1487.91 1018.92 1475.75 1018.92 1475.75 995.39"/>
      <polygon class="cls-31" points="1378.68 1013.75 1388.72 1019.17 1388.72 1039.98 1378.68 1039.98 1378.68 1013.75"/>
      <polygon class="cls-31" points="1374.88 1011.84 1374.34 1003.55 1403.2 1018.92 1493.48 980.34 1493.48 987.68 1475.75 995.39 1408.98 1023.57 1403.2 1026.87 1397.42 1023.57 1388.72 1019.17 1378.68 1013.75 1374.88 1011.84"/>
    </g>
    <g>
      <polygon class="cls-30" points="1025.96 905.26 1052.64 891.54 972.88 860.68 942.47 870.82 1025.96 905.26"/>
      <polygon class="cls-31" points="1020.61 909.41 1025.96 912.36 1031.3 909.41 1031.64 931.35 1020.22 931.35 1020.61 909.41"/>
      <polygon class="cls-31" points="958.86 884.25 947.62 879.53 947.62 905.26 958.86 905.26 958.86 884.25"/>
      <polygon class="cls-31" points="1048.63 900.65 1039.35 905.48 1039.35 924.06 1048.63 924.06 1048.63 900.65"/>
      <polygon class="cls-31" points="1052.15 898.93 1052.64 891.54 1025.96 905.26 942.47 870.82 942.47 877.37 958.86 884.25 1020.61 909.41 1025.96 912.36 1031.3 909.41 1039.35 905.48 1048.63 900.65 1052.15 898.93"/>
    </g>
    <g>
      <polygon class="cls-30" points="748.69 752.58 722.68 740.2 801.43 714.51 831.15 723.82 748.69 752.58"/>
      <polygon class="cls-31" points="753.89 756.29 748.6 758.78 743.39 756.13 742.75 775.26 753.97 775.44 753.89 756.29"/>
      <polygon class="cls-31" points="814.87 735.29 825.97 731.34 825.62 753.79 814.58 753.62 814.87 735.29"/>
      <polygon class="cls-31" points="726.49 748.21 735.54 752.57 735.29 768.79 726.17 768.64 726.49 748.21"/>
      <polygon class="cls-31" points="723.06 746.66 722.68 740.2 748.69 752.58 831.15 723.82 831.06 729.54 814.87 735.29 753.89 756.29 748.6 758.78 743.39 756.13 735.54 752.57 726.49 748.21 723.06 746.66"/>
    </g>
    <polygon class="cls-32" points="1478.22 932.83 1590.09 978.23 1612.36 965.95 1477.52 909.64 1342.68 965.47 1342.68 989.13 1478.22 932.83"/>
    <polygon class="cls-29" points="1634.17 978.24 1634.17 559.57 1612.36 568.14 1612.36 987.27 1634.17 978.24"/>
    <polygon class="cls-29" points="1342.68 1098.98 1342.68 1077.82 1612.36 965.95 1612.36 987.27 1342.68 1098.98"/>
    <polygon class="cls-29" points="1634.17 978.24 1634.17 958.73 1832.86 876.4 1855.54 886.55 1634.17 978.24"/>
    <polygon class="cls-29" points="1829.42 482.85 1850.04 474.74 1855.54 886.55 1832.86 876.4 1829.42 482.85"/>
    <polygon class="cls-32" points="1634.17 761.37 1634.17 737.37 1832.37 809.68 1832.28 833.62 1634.17 761.37"/>
    <polygon class="cls-29" points="1289.05 1076.98 1289.05 1058.62 1093.48 976.95 1068.09 980.07 1289.05 1076.98"/>
    <polygon class="cls-29" points="1067.92 608.67 1093.48 619.09 1093.48 976.95 1068.09 980.07 1068.08 965.28 1067.92 608.67"/>
    <polygon class="cls-29" points="891.16 886.49 867.85 892.24 1068.09 980.07 1068.08 965.28 891.16 886.49"/>
    <polygon class="cls-29" points="869.2 527.61 891.16 536.57 891.16 886.49 867.85 892.24 869.2 527.61"/>
    <polygon class="cls-29" points="844.7 865.76 844.7 882.09 662.07 801.99 689.66 798.08 844.7 865.76"/>
    <polygon class="cls-29" points="662.07 801.99 689.66 798.08 687.86 453.64 662.07 443.12 662.07 801.99"/>
    <polygon class="cls-32" points="844.7 688.59 844.7 666 689.23 716.73 688.86 740.4 844.7 688.59"/>
    <polygon class="cls-32" points="1057.82 545.72 1022.89 531.65 1134.92 494.39 1134.92 518.21 1057.82 545.72"/>
    <polygon class="cls-32" points="1413.02 619.79 1443 607.75 1134.92 494.39 1134.92 518.21 1413.02 619.79"/>
    <polygon class="cls-32" points="891.16 871.25 891.19 847.41 1068.09 789.72 1067.92 812.48 891.16 871.25"/>
    <polygon class="cls-32" points="1093.4 804.01 1093.53 781.91 1176.9 754.36 1177.31 776.45 1093.4 804.01"/>
    <polygon class="cls-32" points="1176.57 699.13 1221.77 757.63 1198.48 784.39 1177.31 776.45 1176.57 699.13"/>
    <polygon class="cls-32" points="1260.11 962.89 1260.08 918.53 1288.8 888.1 1289.3 949.67 1260.11 962.89"/>
    <polygon class="cls-32" points="1146.36 910.31 1146.36 896.59 1253.38 946.82 1253.97 960.56 1146.36 910.31"/>
    <polygon class="cls-32" points="1161.85 888.62 1161.59 872.9 1253.38 916.15 1253.38 930.07 1161.85 888.62"/>
    <polygon class="cls-32" points="1177.56 867.39 1177.56 854.56 1268.7 897.87 1261.59 906.84 1177.56 867.39"/>
    <polygon class="cls-32" points="1192.82 848.36 1192.82 833.76 1289.3 875.44 1279.1 887 1192.82 848.36"/>
    <polygon class="cls-32" points="1207.42 828.45 1207.48 815.57 1289.05 849.56 1289.05 862.13 1207.42 828.45"/>
    <polygon class="cls-32" points="1229.99 807.88 1230.58 794.83 1288.77 818.95 1289.05 832.17 1229.99 807.88"/>
    <polygon class="cls-32" points="1230.62 793.49 1231.26 778.77 1277.32 758.6 1277.32 772.2 1230.62 793.49"/>
    <polygon class="cls-32" points="1231.83 765.7 1232.09 759.84 1227.63 753.86 1261.22 739.07 1261.55 751.51 1231.83 765.7"/>
    <polygon class="cls-32" points="1212 732.41 1244.98 719.56 1245.49 732.41 1219.75 743 1212 732.41"/>
    <polygon class="cls-32" points="1204.67 722.4 1197.28 712.31 1231.08 699.2 1231.45 712.59 1204.67 722.4"/>
    <polygon class="cls-32" points="1189.01 701 1182.96 692.74 1217.56 681.62 1217.56 691.03 1189.01 701"/>
    <polygon class="cls-32" points="1136.52 911.84 1138.44 865.86 1232.09 759.84 1229.99 807.88 1207.48 815.57 1207.42 828.45 1192.82 833.76 1192.82 848.36 1177.56 854.56 1177.56 867.39 1161.59 872.9 1161.85 888.62 1146.36 896.59 1146.36 910.31 1136.52 911.84"/>
    <polygon class="cls-32" points="1176.08 663.3 1175.98 652.24 1231.45 675.77 1289.05 745.5 1289.05 776.75 1277.32 772.2 1277.32 758.6 1261.55 751.51 1261.22 739.07 1245.49 732.41 1244.98 719.56 1231.45 712.59 1231.08 699.2 1217.56 691.03 1217.56 681.62 1176.08 663.3"/>
    <polygon class="cls-30" points="1126.47 908.52 1128.35 865.61 1221.77 757.63 1176.57 699.13 1176.28 683.61 1232.09 759.84 1138.44 865.86 1136.52 911.84 1126.47 908.52"/>
    <polygon class="cls-30" points="1253.97 960.56 1260.11 962.89 1260.08 918.53 1288.8 888.1 1289.3 875.44 1253.38 916.15 1253.97 960.56"/>
    <polygon class="cls-32" points="844.7 517.61 869.2 527.61 867.85 892.24 844.7 882.09 844.7 517.61"/>
    <polygon class="cls-28" points="1477.52 909.64 1612.36 965.95 1612.36 568.14 1342.68 674.11 1342.68 965.47 1477.52 909.64"/>
    <polygon class="cls-28" points="1634.17 737.37 1634.17 559.57 1829.42 482.85 1832.37 809.68 1634.17 737.37"/>
    <polygon class="cls-28" points="1289.05 745.5 1231.45 675.77 1289.05 698.86 1289.05 745.5"/>
    <polygon class="cls-28" points="1093.53 781.91 1093.48 619.09 1175.98 652.24 1176.9 754.36 1093.53 781.91"/>
    <polygon class="cls-28" points="1068.09 789.72 1067.92 608.67 891.16 536.57 891.19 847.41 1068.09 789.72"/>
    <polygon class="cls-28" points="844.7 666 844.7 517.61 687.86 453.64 689.23 716.73 844.7 666"/>
    <polyline class="cls-28" points="1022.89 531.65 1134.92 494.39 1134.92 286.36 740.07 419.19 880.57 475.06"/>
    <polygon class="cls-30" points="1850.62 394.09 1726.93 442.99 1134.92 237.33 1134.92 286.36 740.07 419.19 662.07 388.18 1247.99 190.6 1850.62 394.09"/>
    <polygon class="cls-30" points="1451.59 611.52 1451.59 559.91 1443 555.24 1443 607.75 1329.21 653.46 1339.66 657.61 1451.59 611.52"/>
    <polygon class="cls-30" points="1320.91 665.33 1342.68 674.11 1342.68 1134.32 1321.53 1142.89 1320.91 665.33"/>
    <polygon class="cls-30" points="1342.68 1098.98 1855.54 886.55 1855.54 922.61 1342.68 1134.32 1342.68 1098.98"/>
    <polygon class="cls-30" points="1321.55 1141.67 1320.94 664.11 1288.96 652.24 1288.99 697.64 1289.33 1127.3 1321.55 1141.67"/>
    <path class="cls-28" d="M1134.92,494.39v-249.37s28.27-3.25,33.37,71.67l41.25,13.07s8.04-45.92,74.13-34,79.37,110.66,79.37,110.66l39.77,12.55s11.41-70.96,98.36-45.42,60.51,98.08,60.51,98.08l32.39,10.04s26.71-81.93,119.41-33.36l-270.48,106.93v52.5s-308.08-113.36-308.08-113.36Z"/>
    <path class="cls-26" d="M1713.47,448.31l13.45-5.32-592.01-205.66v7.68s31.04-2.53,33.37,71.67l41.25,13.07s8.31-46.77,74.13-34,79.37,110.66,79.37,110.66l39.77,12.55s21.4-71.05,98.36-45.42c66.92,22.28,60.51,98.08,60.51,98.08l32.39,10.04s20.08-80.33,119.41-33.36Z"/>
    <path class="cls-5" d="M1178.5,332.03s-2.54,10.68.73,13,13.22,8.37,23.32,8.79,20.85-5.16,22.74-8.94-.29-10.39-.29-10.39c0,0-9.28,6.95-18.14,6.76-10.32-.22-28.35-9.23-28.35-9.23Z"/>
    <path class="cls-5" d="M1210.89,340.9s27.98-11.53,27.9-15.2-2.65-6.9-4.83-6.9-21.95,11.21-24.44,11.21-37.51-11.67-41.25-13.07-7.78,8.09-1.4,10.74,30.29,11.79,30.29,11.79"/>
    <path class="cls-29" d="M1371.83,421.06s-2.54,10.68.73,13,13.22,8.37,23.32,8.79,20.85-5.16,22.74-8.94-.29-10.39-.29-10.39c0,0-9.28,6.95-18.14,6.76-10.32-.22-28.35-9.23-28.35-9.23Z"/>
    <path class="cls-29" d="M1404.22,429.94s27.98-11.53,27.9-15.2-2.65-6.9-4.83-6.9-21.95,11.21-24.44,11.21-37.51-11.67-41.25-13.07-7.78,8.09-1.4,10.74c6.38,2.65,30.29,11.79,30.29,11.79"/>
    <path class="cls-5" d="M1561.41,483.86s-2.54,10.68.73,13,13.22,8.37,23.32,8.79,20.85-5.16,22.74-8.94-.29-10.39-.29-10.39c0,0-9.28,6.95-18.14,6.76-10.32-.22-28.35-9.23-28.35-9.23Z"/>
    <path class="cls-5" d="M1593.79,492.73s27.98-11.53,27.9-15.2-2.65-6.9-4.83-6.9-21.95,11.21-24.44,11.21-37.51-11.67-41.25-13.07-7.78,8.09-1.4,10.74,30.29,11.79,30.29,11.79"/>
    <path class="cls-29" d="M1186.54,516.36s5.81,13.28,33.13,3.69c-.55-74.48,0-170.61,0-170.61,0,0-3.94,4.44-17.12,4.38s-16.01-4.77-16.01-4.77v167.31Z"/>
    <path class="cls-29" d="M1377.93,587.78s6.15,12.02,35.09,3.34c-.59-67.44,0-154.47,0-154.47,0,0-4.17,4.02-18.13,3.97-13.96-.05-16.96-4.32-16.96-4.32v151.49Z"/>
    <path class="cls-26" d="M1177.85,522.53s7.06,11.54,23.22,11.68c16.16.14,26.61-8.77,26.61-8.77v8.69s-8.55,13.52-27.16,12.16c-18.6-1.36-25.8-14.39-25.8-14.39,0,0-2.99-8.28,3.12-9.37Z"/>
    <path class="cls-26" d="M1185.06,512.39s1.74,9.71,16.35,10.7c16.45,1.12,17.09-3.65,20.62-5.48.92-.48,2.06-.07,2.49.88l3.17,7.03s-9.92,10.12-26.77,8.85c-16.85-1.27-23.37-13.44-23.37-13.44,0,0-2.16-8.17,7.51-8.54Z"/>
    <path class="cls-26" d="M1369.83,592.98s7.06,11.54,23.22,11.68c16.16.14,26.61-8.77,26.61-8.77v8.69s-8.55,13.52-27.16,12.16c-18.6-1.36-25.8-14.39-25.8-14.39,0,0-2.99-8.28,3.12-9.37Z"/>
    <path class="cls-26" d="M1377.04,582.84s1.74,9.71,16.35,10.7c16.45,1.12,17.09-3.65,20.62-5.48.92-.48,2.06-.07,2.49.88l3.17,7.03s-9.92,10.12-26.77,8.85c-16.85-1.27-23.37-13.44-23.37-13.44,0,0-2.16-8.17,7.51-8.54Z"/>
    <path class="cls-20" d="M1233.97,318.81s29.65-24.73,49.69-23.04c0,0-31.13-5.39-51.75,4.79-22.38,11.06-22.38,29.46-22.38,29.46l24.44-11.21Z"/>
    <path class="cls-20" d="M1427.29,407.84s25.73-40.3,45.77-38.62c0,0-21.69-2.3-40.33,10.14-20.77,13.85-28.4,38.36-28.4,38.36l22.97-9.88Z"/>
    <path class="cls-33" d="M1618.5,470.46s27.11-38.41,47.15-36.72c0,0-23.92-4.14-42.56,8.29-20.77,13.85-29.02,39.64-29.02,39.64l24.44-11.21Z"/>
    <polygon class="cls-30" points="1451.59 611.52 1451.59 559.91 1877.66 394.27 1877.66 913.48 1855.54 922.61 1850.04 474.74 1342.68 674.11 1320.91 665.33 1451.59 611.52"/>
    <polygon class="cls-2" points="730.86 559.51 814.27 536.57 813.85 638.64 730.86 663.91 730.86 559.51"/>
    <polygon class="cls-2" points="943.87 660.27 1027.28 637.33 1026.87 739.4 943.87 764.67 943.87 660.27"/>
    <polygon class="cls-2" points="1119.02 677.71 1154.03 668.38 1154.03 727.02 1119.02 736.7 1119.02 677.71"/>
    <polygon class="cls-2" points="898.41 414.64 1116.9 349.05 1118.39 458.07 903.18 522.61 898.41 414.64"/>
    <polygon class="cls-2" points="1329.53 398.13 1254.69 375.19 1255.07 477.26 1329.53 502.53 1329.53 398.13"/>
    <polygon class="cls-2" points="1527.34 461.8 1452.51 438.86 1452.88 540.93 1527.34 566.2 1527.34 461.8"/>
    <polygon class="cls-2" points="1589.73 673.56 1514.9 650.62 1515.27 752.69 1589.74 777.96 1589.73 673.56"/>
    <polygon class="cls-2" points="1383.65 683.56 1438.11 664.01 1438.11 771.25 1383.65 787.95 1383.65 683.56"/>
    <polygon class="cls-2" points="1360.06 843.87 1391 832.76 1391 893.68 1360.06 903.16 1360.06 843.87"/>
    <polygon class="cls-2" points="1587.91 845.46 1550.49 833.99 1550.67 885.02 1587.91 897.66 1587.91 845.46"/>
    <polygon class="cls-2" points="1798.5 635.05 1676.05 591.81 1676.43 693.88 1798.51 739.45 1798.5 635.05"/>
    <polygon class="cls-29" points="1443 555.24 1451.59 559.91 1877.66 394.27 1247.14 182.22 636.78 388.42 1320.91 665.33 1339.66 657.61 662.07 388.18 1247.99 190.6 1850.62 394.09 1443 555.24"/>
    <path class="cls-13" d="M1177.85,523.15s7.06,11.54,23.22,11.68c16.16.14,26.61-8.77,26.61-8.77v8.69s-8.55,13.52-27.16,12.16c-18.6-1.36-25.8-14.39-25.8-14.39,0,0-2.99-8.28,3.12-9.37Z"/>
    <g>
      <polygon class="cls-31" points="1308.91 579.22 1314.88 582.51 1320.84 579.22 1321.22 603.7 1308.47 603.7 1308.91 579.22"/>
      <polygon class="cls-31" points="1240 551.14 1227.45 545.88 1227.45 574.58 1240 574.58 1240 551.14"/>
      <polygon class="cls-31" points="1340.18 569.44 1329.82 574.84 1329.82 595.57 1340.18 595.57 1340.18 569.44"/>
      <polygon class="cls-30" points="1314.88 574.58 1344.66 559.28 1255.64 524.84 1221.71 536.15 1314.88 574.58"/>
      <polygon class="cls-31" points="1344.1 567.53 1344.66 559.28 1314.88 574.58 1221.71 536.15 1221.71 543.46 1240 551.14 1308.91 579.22 1314.88 582.51 1320.84 579.22 1329.82 574.84 1340.18 569.44 1344.1 567.53"/>
    </g>
    <path class="cls-9" d="M1582.05-49.86V18.02s-9.73,7.05-9.73,9.3,3.68,5.89,12.94,6.24c9.26.36,15.62-2.29,15.62-4.98,0-3.37-10.16-10.92-10.16-10.92V-49.86h-8.66Z"/>
    <g>
      <path class="cls-9" d="M1291.07,56.71v67.89s-9.73,7.05-9.73,9.3,3.68,5.89,12.94,6.24c9.26.36,15.62-2.29,15.62-4.98,0-3.37-10.16-10.92-10.16-10.92V56.71h-8.66Z"/>
      <path class="cls-21" d="M1310.56,44.07c.75,8.47-5.63,17.63-14.52,17.85-8.56.22-15.42-7.96-15.43-16.34,0-8.22,6.57-16.41,15.13-16.34,8.08.07,14.18,7.45,14.83,14.83Z"/>
    </g>
    <g>
      <path class="cls-9" d="M1000.09,163.27v67.89s-9.73,7.05-9.73,9.3,3.68,5.89,12.94,6.24c9.26.36,15.62-2.29,15.62-4.98,0-3.37-10.16-10.92-10.16-10.92v-67.53h-8.66Z"/>
      <path class="cls-21" d="M1019.58,150.64c.75,8.47-5.63,17.63-14.52,17.85-8.56.22-15.42-7.96-15.43-16.34,0-8.22,6.57-16.41,15.13-16.34,8.08.07,14.18,7.45,14.83,14.83Z"/>
    </g>
    <g>
      <path class="cls-9" d="M709.1,269.84v67.89s-9.73,7.05-9.73,9.3,3.68,5.89,12.94,6.24c9.26.36,15.62-2.29,15.62-4.98,0-3.37-10.16-10.92-10.16-10.92v-67.53h-8.66Z"/>
      <path class="cls-21" d="M728.6,257.21c.75,8.47-5.63,17.63-14.52,17.85-8.56.22-15.42-7.96-15.43-16.34,0-8.22,6.57-16.41,15.13-16.34,8.08.07,14.18,7.45,14.83,14.83Z"/>
    </g>
    <g>
      <path class="cls-9" d="M418.12,376.41v67.89s-9.73,7.05-9.73,9.3,3.68,5.89,12.94,6.24c9.26.36,15.62-2.29,15.62-4.98,0-3.37-10.16-10.92-10.16-10.92v-67.53h-8.66Z"/>
      <path class="cls-21" d="M437.62,363.78c.75,8.47-5.63,17.63-14.52,17.85-8.56.22-15.42-7.96-15.43-16.34,0-8.22,6.57-16.41,15.13-16.34,8.08.07,14.18,7.45,14.83,14.83Z"/>
    </g>
    <g>
      <path class="cls-9" d="M493.34,751.18v67.89s-9.73,7.05-9.73,9.3,3.68,5.89,12.94,6.24c9.26.36,15.62-2.29,15.62-4.98,0-3.37-10.16-10.92-10.16-10.92v-67.53h-8.66Z"/>
      <path class="cls-21" d="M512.84,738.55c.75,8.47-5.63,17.63-14.52,17.85-8.56.22-15.42-7.96-15.43-16.34,0-8.22,6.57-16.41,15.13-16.34,8.08.07,14.18,7.45,14.83,14.83Z"/>
    </g>
    <g>
      <path class="cls-9" d="M637.39,470.58v67.89s-9.73,7.05-9.73,9.3,3.68,5.89,12.94,6.24c9.26.36,15.62-2.29,15.62-4.98,0-3.37-10.16-10.92-10.16-10.92v-67.53h-8.66Z"/>
      <path class="cls-21" d="M656.88,457.94c.75,8.47-5.63,17.63-14.52,17.85-8.56.22-15.42-7.96-15.43-16.34,0-8.22,6.57-16.41,15.13-16.34,8.08.07,14.18,7.45,14.83,14.83Z"/>
    </g>
    <polygon class="cls-30" points="1289.05 1076.98 1289.3 1128.53 637.73 831.54 636.78 388.42 1288.96 652.24 1289.55 699.1 662.07 443.12 662.07 801.99 1289.05 1076.98"/>
    <g>
      <path class="cls-9" d="M1116.17,1095.8v67.89s-9.73,7.05-9.73,9.3,3.68,5.89,12.94,6.24c9.26.36,15.62-2.29,15.62-4.98,0-3.37-10.16-10.92-10.16-10.92v-67.53h-8.66Z"/>
      <path class="cls-21" d="M1135.66,1083.17c.75,8.47-5.63,17.63-14.52,17.85-8.56.22-15.42-7.96-15.43-16.34,0-8.22,6.57-16.41,15.13-16.34,8.08.07,14.18,7.45,14.83,14.83Z"/>
    </g>
    <g>
      <path class="cls-9" d="M789.1,1274.16v67.89s-9.73,7.05-9.73,9.3,3.68,5.89,12.94,6.24c9.26.36,15.62-2.29,15.62-4.98,0-3.37-10.16-10.92-10.16-10.92v-67.53h-8.66Z"/>
      <path class="cls-21" d="M808.59,1261.52c.75,8.47-5.63,17.63-14.52,17.85-8.56.22-15.42-7.96-15.43-16.34,0-8.22,6.57-16.41,15.13-16.34,8.08.07,14.18,7.45,14.83,14.83Z"/>
    </g>
    <g>
      <path class="cls-9" d="M418.3,1287.88v67.89s-9.73,7.05-9.73,9.3,3.68,5.89,12.94,6.24c9.26.36,15.62-2.29,15.62-4.98,0-3.37-10.16-10.92-10.16-10.92v-67.53h-8.66Z"/>
      <path class="cls-21" d="M437.79,1275.25c.75,8.47-5.63,17.63-14.52,17.85-8.56.22-15.42-7.96-15.43-16.34,0-8.22,6.57-16.41,15.13-16.34,8.08.07,14.18,7.45,14.83,14.83Z"/>
    </g>
    <g>
      <path class="cls-9" d="M610.06,1190.15v67.89s-9.73,7.05-9.73,9.3,3.68,5.89,12.94,6.24c9.26.36,15.62-2.29,15.62-4.98,0-3.37-10.16-10.92-10.16-10.92v-67.53h-8.66Z"/>
      <path class="cls-21" d="M629.55,1177.52c.75,8.47-5.63,17.63-14.52,17.85-8.56.22-15.42-7.96-15.43-16.34,0-8.22,6.57-16.41,15.13-16.34,8.08.07,14.18,7.45,14.83,14.83Z"/>
    </g>
    <g>
      <path class="cls-9" d="M789.1,1103.51v67.89s-9.73,7.05-9.73,9.3,3.68,5.89,12.94,6.24c9.26.36,15.62-2.29,15.62-4.98,0-3.37-10.16-10.92-10.16-10.92v-67.53h-8.66Z"/>
      <path class="cls-21" d="M808.59,1090.87c.75,8.47-5.63,17.63-14.52,17.85-8.56.22-15.42-7.96-15.43-16.34,0-8.22,6.57-16.41,15.13-16.34,8.08.07,14.18,7.45,14.83,14.83Z"/>
    </g>
    <g>
      <path class="cls-9" d="M322.58,854.96v67.89s-9.73,7.05-9.73,9.3,3.68,5.89,12.94,6.24c9.26.36,15.62-2.29,15.62-4.98,0-3.37-10.16-10.92-10.16-10.92v-67.53h-8.66Z"/>
      <path class="cls-21" d="M342.07,842.33c.75,8.47-5.63,17.63-14.52,17.85-8.56.22-15.42-7.96-15.43-16.34,0-8.22,6.57-16.41,15.13-16.34,8.08.07,14.18,7.45,14.83,14.83Z"/>
    </g>
    <g>
      <path class="cls-9" d="M14.28,1001.22v67.89s-9.73,7.05-9.73,9.3,3.68,5.89,12.94,6.24c9.26.36,15.62-2.29,15.62-4.98,0-3.37-10.16-10.92-10.16-10.92v-67.53h-8.66Z"/>
      <path class="cls-21" d="M33.77,988.59c.75,8.47-5.63,17.63-14.52,17.85-8.56.22-15.42-7.96-15.43-16.34,0-8.22,6.57-16.41,15.13-16.34,8.08.07,14.18,7.45,14.83,14.83Z"/>
    </g>
    <g>
      <path class="cls-9" d="M14.28,793.24v67.89s-9.73,7.05-9.73,9.3,3.68,5.89,12.94,6.24c9.26.36,15.62-2.29,15.62-4.98,0-3.37-10.16-10.92-10.16-10.92v-67.53h-8.66Z"/>
      <path class="cls-21" d="M33.77,780.61c.75,8.47-5.63,17.63-14.52,17.85-8.56.22-15.42-7.96-15.43-16.34,0-8.22,6.57-16.41,15.13-16.34,8.08.07,14.18,7.45,14.83,14.83Z"/>
    </g>
    <g>
      <path class="cls-9" d="M264.69,681.92v67.89s-9.73,7.05-9.73,9.3,3.68,5.89,12.94,6.24c9.26.36,15.62-2.29,15.62-4.98,0-3.37-10.16-10.92-10.16-10.92v-67.53h-8.66Z"/>
      <path class="cls-21" d="M284.18,669.29c.75,8.47-5.63,17.63-14.52,17.85-8.56.22-15.42-7.96-15.43-16.34,0-8.22,6.57-16.41,15.13-16.34,8.08.07,14.18,7.45,14.83,14.83Z"/>
    </g>
    <g>
      <path class="cls-9" d="M499.27,580.66v67.89s-9.73,7.05-9.73,9.3,3.68,5.89,12.94,6.24c9.26.36,15.62-2.29,15.62-4.98,0-3.37-10.16-10.92-10.16-10.92v-67.53h-8.66Z"/>
      <path class="cls-21" d="M518.76,568.03c.75,8.47-5.63,17.63-14.52,17.85-8.56.22-15.42-7.96-15.43-16.34,0-8.22,6.57-16.41,15.13-16.34,8.08.07,14.18,7.45,14.83,14.83Z"/>
    </g>
    <g>
      <path class="cls-9" d="M114.54,381v67.89s-9.73,7.05-9.73,9.3,3.68,5.89,12.94,6.24c9.26.36,15.62-2.29,15.62-4.98,0-3.37-10.16-10.92-10.16-10.92v-67.53h-8.66Z"/>
      <path class="cls-21" d="M134.03,368.37c.75,8.47-5.63,17.63-14.52,17.85-8.56.22-15.42-7.96-15.43-16.34,0-8.22,6.57-16.41,15.13-16.34,8.08.07,14.18,7.45,14.83,14.83Z"/>
    </g>
    <g>
      <path class="cls-9" d="M683.32,140.49v67.89s-9.73,7.05-9.73,9.3,3.68,5.89,12.94,6.24c9.26.36,15.62-2.29,15.62-4.98,0-3.37-10.16-10.92-10.16-10.92v-67.53h-8.66Z"/>
      <path class="cls-21" d="M702.81,127.86c.75,8.47-5.63,17.63-14.52,17.85-8.56.22-15.42-7.96-15.43-16.34,0-8.22,6.57-16.41,15.13-16.34,8.08.07,14.18,7.45,14.83,14.83Z"/>
    </g>
    <g>
      <path class="cls-9" d="M980.65,26.65v67.89s-9.73,7.05-9.73,9.3,3.68,5.89,12.94,6.24c9.26.36,15.62-2.29,15.62-4.98,0-3.37-10.16-10.92-10.16-10.92V26.65h-8.66Z"/>
      <path class="cls-21" d="M1000.15,14.02c.75,8.47-5.63,17.63-14.52,17.85-8.56.22-15.42-7.96-15.43-16.34,0-8.22,6.57-16.41,15.13-16.34,8.08.07,14.18,7.45,14.83,14.83Z"/>
    </g>
    <g>
      <path class="cls-9" d="M541.18,970.96v67.89s-9.73,7.05-9.73,9.3,3.68,5.89,12.94,6.24c9.26.36,15.62-2.29,15.62-4.98,0-3.37-10.16-10.92-10.16-10.92v-67.53h-8.66Z"/>
      <path class="cls-21" d="M560.68,958.33c.75,8.47-5.63,17.63-14.52,17.85-8.56.22-15.42-7.96-15.43-16.34,0-8.22,6.57-16.41,15.13-16.34,8.08.07,14.18,7.45,14.83,14.83Z"/>
    </g>
  </g>
  <g id="Calque_1" data-name="Calque 1">
    <polyline class="cls-13" points="687.86 453.64 689.66 798.08 844.7 865.76 844.7 517.61"/>
    <polyline class="cls-13" points="867.85 892.24 869.2 527.61 891.16 536.57 891.16 886.49 1067.92 965.28 1067.92 608.67 1093.48 619.09 1093.48 976.95 1289.05 1058.62"/>
    <line class="cls-13" x1="867.85" y1="892.24" x2="891.16" y2="886.49"/>
    <line class="cls-13" x1="1067.92" y1="965.28" x2="1068.09" y2="980.07"/>
    <line class="cls-13" x1="662.07" y1="801.99" x2="689.66" y2="798.08"/>
    <line class="cls-13" x1="844.7" y1="865.76" x2="844.7" y2="882.09"/>
    <line class="cls-13" x1="1068.09" y1="980.07" x2="1093.48" y2="976.95"/>
    <polyline class="cls-13" points="1443 555.24 1850.62 394.09 1247.95 190.61 662.07 388.6 1339.66 657.61"/>
    <line class="cls-13" x1="1443" y1="555.24" x2="1451.59" y2="559.91"/>
    <polyline class="cls-13" points="1329.21 653.46 1443 607.75 1443 555.24"/>
    <line class="cls-13" x1="1134.92" y1="245.01" x2="1134.92" y2="518.78"/>
    <line class="cls-13" x1="739.56" y1="419.37" x2="1134.92" y2="286.36"/>
    <line class="cls-13" x1="1057.82" y1="545.72" x2="1134.92" y2="518.21"/>
    <line class="cls-13" x1="1022.62" y1="531.74" x2="1134.92" y2="494.39"/>
    <path class="cls-13" d="M1403.39,615.96c2.57.98,7.08,2.81,9.63,3.83"/>
    <path class="cls-13" d="M1339.86,593.72c8.67,3.17,17.4,6.17,26.14,9.15"/>
    <path class="cls-13" d="M1320.78,586.53c2.66,1.09,6.36,2.34,9.03,3.38"/>
    <path class="cls-13" d="M1239.96,556.96c23.02,8.25,46,16.65,68.96,25.07"/>
    <path class="cls-13" d="M1210.74,545.92c5.62,2.16,11.25,4.3,16.88,6.42"/>
    <path class="cls-13" d="M1134.92,518.21c13.3,6.62,27.3,8.62,40.23,14.7"/>
    <path class="cls-13" d="M1419.66,599.16c5.81,4.05,15.92,4.61,23.33,8.59"/>
    <path class="cls-13" d="M1340.02,570.69c12.25,4.33,24.5,8.64,36.77,12.91"/>
    <path class="cls-13" d="M1227.78,529.29c2.13.85,4.25,1.69,6.38,2.53"/>
    <path class="cls-13" d="M1134.92,494.39c17.5,5.84,34.45,13.18,51.88,19.22"/>
    <polygon class="cls-13" points="636.78 388.6 1247.34 182.15 1877.66 394.09 1451.59 559.91 1451.59 611.52 1320.91 665.33 636.78 388.6"/>
    <polygon class="cls-13" points="1321.26 1143.13 637.73 830.9 636.78 388.6 1320.91 665.33 1321.26 1143.13"/>
    <polygon class="cls-13" points="1877.66 914.23 1877.66 394.09 1451.59 559.91 1451.59 611.52 1320.91 665.33 1321.26 1143.13 1877.66 914.23"/>
    <polygon class="cls-13" points="662.07 801.99 662.07 443.12 1289.05 698.86 1289.05 1076.98 662.07 801.99"/>
    <polygon class="cls-13" points="1342.68 674.11 1342.68 1098.98 1855.54 886.55 1850.04 474.74 1342.68 674.11"/>
    <polyline class="cls-13" points="1634.17 958.73 1832.86 876.4 1829.42 482.85 1634.17 559.57 1634.17 978.24 1612.36 987.27 1612.36 568.14"/>
    <polygon class="cls-13" points="1586.38 976.73 1478.22 932.83 1342.68 989.13 1342.68 965.47 1477.52 909.64 1612.36 965.95 1586.38 976.73"/>
    <line class="cls-13" x1="1342.68" y1="1077.48" x2="1586.38" y2="976.73"/>
    <line class="cls-13" x1="1832.86" y1="876.4" x2="1855.54" y2="886.55"/>
    <line class="cls-13" x1="1477.52" y1="621.13" x2="1477.52" y2="909.64"/>
    <line class="cls-13" x1="1634.17" y1="737.37" x2="1832.28" y2="809.62"/>
    <line class="cls-13" x1="1634.17" y1="761.37" x2="1832.28" y2="833.62"/>
    <line class="cls-13" x1="844.7" y1="666" x2="688.86" y2="717.81"/>
    <line class="cls-13" x1="844.7" y1="688.59" x2="688.86" y2="740.4"/>
    <line class="cls-13" x1="1067.92" y1="789.89" x2="891.16" y2="848.65"/>
    <line class="cls-13" x1="1176.9" y1="754.36" x2="1092.72" y2="781.89"/>
    <line class="cls-13" x1="1067.92" y1="812.48" x2="891.16" y2="871.25"/>
    <line class="cls-13" x1="1177.31" y1="776.45" x2="1093.4" y2="804.01"/>
    <line class="cls-13" x1="1177.15" y1="776.34" x2="1175.98" y2="652.24"/>
    <g>
      <polygon class="cls-13" points="1227.55 808.98 1207.42 815.62 1207.42 828.45 1192.82 833.76 1192.82 848.36 1177.56 854.56 1177.56 867.39 1161.85 872.92 1161.85 888.62 1146.36 896.59 1146.36 910.31 1136.52 911.84 1138.44 865.86 1232.09 759.84 1229.99 807.88 1227.55 808.98"/>
      <line class="cls-13" x1="1146.36" y1="910.31" x2="1253.38" y2="960.69"/>
      <line class="cls-13" x1="1146.36" y1="896.44" x2="1253.38" y2="946.82"/>
      <line class="cls-13" x1="1161.59" y1="887.89" x2="1253.38" y2="930.07"/>
      <line class="cls-13" x1="1161.59" y1="872.9" x2="1253.38" y2="916.15"/>
      <line class="cls-13" x1="1177.35" y1="867.15" x2="1261.59" y2="906.84"/>
      <line class="cls-13" x1="1177.35" y1="854.84" x2="1268.7" y2="897.87"/>
      <line class="cls-13" x1="1192.79" y1="848.18" x2="1279.1" y2="887"/>
      <line class="cls-13" x1="1192.79" y1="833.69" x2="1289.3" y2="875.44"/>
      <line class="cls-13" x1="1207.48" y1="828.32" x2="1289.05" y2="862.13"/>
      <line class="cls-13" x1="1207.48" y1="815.57" x2="1289.05" y2="849.56"/>
      <line class="cls-13" x1="1229.47" y1="807.53" x2="1289.05" y2="832.17"/>
      <line class="cls-13" x1="1230.09" y1="794.62" x2="1288.77" y2="818.95"/>
      <polyline class="cls-13" points="1277.32 772.2 1277.32 758.6 1261.55 751.51 1261.55 739.21 1245.49 732.41 1245.49 719.82 1231.45 712.59 1231.45 699.42 1217.56 691.03 1217.56 681.62 1176.08 663.3 1176.24 680.21"/>
      <line class="cls-13" x1="1182.57" y1="692.87" x2="1217.56" y2="681.62"/>
      <line class="cls-13" x1="1188.73" y1="701.1" x2="1217.56" y2="691.03"/>
      <line class="cls-13" x1="1197.13" y1="712.37" x2="1231.45" y2="699.42"/>
      <line class="cls-13" x1="1204.38" y1="722.51" x2="1231.45" y2="712.59"/>
      <line class="cls-13" x1="1212.45" y1="732.14" x2="1245.49" y2="719.82"/>
      <line class="cls-13" x1="1219.48" y1="743.11" x2="1245.49" y2="732.41"/>
      <line class="cls-13" x1="1227.63" y1="753.86" x2="1261.55" y2="739.21"/>
      <line class="cls-13" x1="1231.73" y1="766.09" x2="1261.55" y2="751.51"/>
      <line class="cls-13" x1="1231.73" y1="777.96" x2="1277.32" y2="758.6"/>
      <line class="cls-13" x1="1230.62" y1="793.49" x2="1277.32" y2="772.2"/>
      <line class="cls-13" x1="1277.32" y1="772.2" x2="1289.05" y2="776.75"/>
      <polyline class="cls-13" points="1288.93 745.5 1230.95 675.16 1175.98 652.24"/>
      <polygon class="cls-13" points="1260.11 962.89 1260.08 918.53 1288.8 888.1 1289.3 949.67 1260.11 962.89"/>
      <polyline class="cls-13" points="1289.3 875.44 1253.38 916.15 1253.38 960.69 1260.11 962.89"/>
      <polygon class="cls-13" points="1136.52 911.84 1138.44 865.86 1232.09 759.84 1176.28 683.61 1176.42 698.94 1221.77 757.63 1128.38 864.91 1126.46 908.55 1136.52 911.84"/>
    </g>
    <line class="cls-13" x1="1411.66" y1="439.32" x2="1413.02" y2="588.73"/>
    <line class="cls-13" x1="1377.34" y1="437.67" x2="1377.93" y2="585.56"/>
    <path class="cls-13" d="M1371.77,420.99s-2.54,10.68.73,13,13.22,8.37,23.32,8.79c10.53.44,20.85-5.16,22.74-8.94s-.29-10.39-.29-10.39c0,0-9.28,6.95-18.14,6.76-10.32-.22-28.35-9.23-28.35-9.23Z"/>
    <path class="cls-13" d="M1606.25,489.33s-9.28,4.47-18.14,4.28c-10.32-.22-28.35-9.23-28.35-9.23,0,0-2.54,10.68.73,13s4.79,5.1,14.89,5.52"/>
    <path class="cls-13" d="M1418.26,423.46s13.87-5.12,13.79-8.79-2.65-6.9-4.83-6.9-21.95,11.21-24.44,11.21-37.51-11.67-41.25-13.07-7.78,8.09-1.4,10.74,11.62,4.35,11.62,4.35"/>
    <path class="cls-13" d="M1591.74,495.29s29.57-11.22,29.49-14.89-.55-9.94-2.73-9.94-21.95,11.21-24.44,11.21-37.51-11.67-41.25-13.07-7.73,10.7-1.35,13.35,40.27,13.35,40.27,13.35"/>
    <path class="cls-13" d="M1363.03,406.42s-14.91-102.05-81.82-111.04-72.92,34.15-72.92,34.15"/>
    <path class="cls-13" d="M1402.79,418.97s18.13-63.44,89.99-48.1c71.86,15.34,68.88,100.75,68.88,100.75"/>
    <path class="cls-13" d="M1134.92,245.01c29.88,0,33.37,71.67,33.37,71.67"/>
    <path class="cls-13" d="M1427.23,407.76s21.1-36.71,48.41-39.18"/>
    <path class="cls-13" d="M1617.23,470.76s21.1-34.56,48.41-37.02"/>
    <path class="cls-13" d="M1594.07,481.67s20.81-80.91,119.41-33.36"/>
    <line class="cls-13" x1="1219.67" y1="349.44" x2="1219.67" y2="519.95"/>
    <line class="cls-13" x1="1186.5" y1="349.03" x2="1186.58" y2="516.42"/>
    <path class="cls-13" d="M1178.5,331.78s-2.54,10.68.73,13,13.22,8.37,23.32,8.79,20.85-5.16,22.74-8.94-.29-10.39-.29-10.39c0,0-9.28,6.95-18.14,6.76-10.32-.22-28.35-9.23-28.35-9.23Z"/>
    <path class="cls-13" d="M1225,334.25s13.87-5.12,13.79-8.79-2.65-6.9-4.83-6.9-21.95,11.21-24.44,11.21-37.51-11.67-41.25-13.07-7.78,8.09-1.4,10.74,11.62,4.35,11.62,4.35"/>
    <path class="cls-13" d="M1233.97,318.55s22.38-20.32,49.69-22.79"/>
    <path class="cls-13" d="M1369.83,592.98s7.06,13.04,23.22,13.18c16.16.14,26.61-8.77,26.61-8.77v8.69s-8.55,12.02-27.16,10.66c-18.6-1.36-25.8-12.89-25.8-12.89,0,0-2.99-9.78,3.12-10.87Z"/>
    <path class="cls-13" d="M1377.04,582.84s1.74,11.21,16.35,12.2c16.45,1.12,17.09-5.15,20.62-6.98.92-.48,2.06-.07,2.49.88l3.17,6.95s-9.92,11.7-26.77,10.43c-16.85-1.27-23.37-13.44-23.37-13.44,0,0-3.12-10.05,7.51-10.05Z"/>
    <path class="cls-13" d="M1185.06,512.39s1.74,9.97,16.35,10.99c16.45,1.15,17.09-3.74,20.62-5.63.92-.49,2.06-.07,2.49.9l3.17,7.22s-9.92,10.39-26.77,9.09c-16.85-1.3-23.37-13.8-23.37-13.8,0,0-2.16-8.39,7.51-8.78Z"/>
    <line class="cls-13" x1="1177.31" y1="776.45" x2="1198.48" y2="784.39"/>
    <polyline class="cls-13" points="637.83 751.62 452.11 831.66 975.83 1077.56 1076.31 1031.69 1219.74 1097.21 637.05 1400.47 397.71 1400.47 844.97 1177.64 329.67 912.39 -36.57 1077.56"/>
    <polyline class="cls-13" points="1661.66 1.97 386.14 452.25 637.15 564.39"/>
    <polyline class="cls-13" points="124.62 443.12 549.4 659.7 -13.28 908.98 -13.28 -26.12 1374.34 -6.8 124.62 443.12"/>
    <g>
      <line class="cls-13" x1="176.94" y1="618.85" x2="395.12" y2="741.69"/>
      <line class="cls-13" x1="89.32" y1="251.31" x2="307.5" y2="374.16"/>
      <line class="cls-13" x1="237.87" y1="163.65" x2="456.05" y2="286.5"/>
      <line class="cls-13" x1="414.73" y1="104.53" x2="632.91" y2="227.38"/>
      <line class="cls-13" x1="582.37" y1="31.85" x2="800.55" y2="154.7"/>
      <line class="cls-13" x1="751.65" y1="-22.38" x2="969.83" y2="100.47"/>
      <line class="cls-13" x1="912.15" y1="-59.45" x2="1130.33" y2="63.39"/>
      <line class="cls-13" x1="26.39" y1="707.18" x2="244.57" y2="830.03"/>
    </g>
    <g>
      <path class="cls-11" d="M62.26,1162.22c-4.37-.15-6.58,139.03,226.61,153.82,297.95,18.89,283.66-156.69,283.66-156.69"/>
      <path class="cls-11" d="M184.12,1039.16s-93.53,24.44-115.41,67.47c-45.14,88.78,84.59,175.51,243.02,173.62,158.43-1.88,263.29-72.77,262.05-133.71-.87-43.07-56.6-92.51-125.51-108.14"/>
      <path class="cls-3" d="M284.74,967.59s-5.4,2-5.64,6.86c-.25,4.85-.41,14.15,0,17.69.41,3.54,1.73,8.97,8.14,12.09,6.42,3.13,10.45,6.33,28.3,6.33s29.12-5.92,31.59-8.06,5.1-3.95,5.26-7.4.41-19,0-20.32c-1.16-3.7-4-3.69-4-3.69"/>
      <path class="cls-3" d="M291.9,952.15s-6.51.83-7.83,8.68c-.94,5.56,2.33,22.37,30.16,21.69,27.82-.68,34.92-7.32,34.88-15.6-.04-9.34-5.19-10.57-9.99-11.49"/>
      <path class="cls-11" d="M294.55,812.53s-43.61-.88-55.57,24.95c-11.5,24.84,23.32,54.56,70.82,53.92s85.58-19.88,85.58-40.65c0-28.04-36.07-36.95-56.83-38.23"/>
      <path class="cls-13" d="M294.57,823.18s-39.18.91-38.17,20.97c.76,15.14,15.89,30.04,56.35,30.04s59.63-15.76,61.23-25.83c2-12.59-14.9-22.56-35.13-24.37"/>
      <path class="cls-24" d="M294.58,831.36c-24.12.26-37.37,17.87-37.37,17.87,0,0,7.85,22.61,41.56,24.29,16.74.84,56.41.67,71.85-18.3,0,0-6.42-22.26-32.09-22.52"/>
      <path class="cls-11" d="M274.22,908.92s-83.11-1.57-105.91,44.21c-21.92,44.01,56.41,105.01,146.93,103.88,90.52-1.14,151.14-43.58,151.14-80.36,0-49.68-68.74-65.46-108.31-67.74"/>
      <path class="cls-13" d="M280.3,919.71s-86.69,7.71-86.66,50.12c.02,26.86,39.17,65.07,116.28,65.07s125.7-30.15,129.42-54.9c4.94-32.88-48.98-55.86-87.53-59.06"/>
      <path class="cls-13" d="M199.12,1054.35s-99.78,21.03-99.73,90.93c.03,44.27,78.95,104.46,206.04,104.46s220.57-45.08,226.7-85.88c8.14-54.19-36.79-103.55-100.33-108.82"/>
      <path class="cls-13" d="M197.29,983.7s32.42-38.52,92.81-38.52"/>
      <path class="cls-13" d="M438.06,984.81s-32.62-37.69-96.37-37.69"/>
      <path class="cls-13" d="M532.67,1159.35s-40.95-74.59-152.96-74.39"/>
      <path class="cls-24" d="M290.09,945.18c-70.92,4.33-92.81,37.72-92.81,37.72,0,0,19.07,55.5,121.84,51.45,68.92-2.72,104.81-20.12,118.93-49.54,0,0-42.68-41.02-96.37-37.69"/>
      <path class="cls-24" d="M241.76,1080.29c-124.41,8.21-139.52,81.93-139.52,81.93,0,0,40.26,94.81,220.55,87.12,118.01-5.03,201.98-46.08,208.83-86.98.32-1.91-.57-3.65-1.39-5.41-7.06-15.11-65.84-81.11-150.51-75.44"/>
      <path class="cls-11" d="M228.7,1071.06s22.8,13.33,27.74,23.58,6.95,25.07,7.14,30.19c.18,5.12,5.86,27.63,54.71,26.17,48.86-1.46,50.32-19.76,50.69-23.42.37-3.66-2.47-31.85,18.11-51.24"/>
      <path class="cls-11" d="M294.52,798.73l.1,50.09s4.04,8.95,20.25,8.84c16.21-.11,23.68-5.58,23.68-8.84v-49.3"/>
      <path class="cls-11" d="M289,763.5s-12.94,4.62-12.94,15.13c0,7.36,4.48,14.69,14.55,18.64,13.18,5.18,19.31,5.18,29.59,5.18s34.28-4.73,36.2-16.93c2.38-15.12-12.32-23.23-12.32-23.23"/>
      <path class="cls-11" d="M299.24,751.53c-2.05,2.65-12.59,4.57-10.06,18.81,2.52,14.14,25.43,15.19,29.17,15.19s25.5.58,26.1-17.01-10.85-16.72-10.85-16.72"/>
      <path class="cls-11" d="M300.78,740.9c-2.93,9.92-2.88,24.71,13.39,25.18s20.35-5.29,19.35-19.01c-1-13.72-10.87-17.29-16.06-17.38s-14.7,4.52-16.68,11.21Z"/>
      <path class="cls-11" d="M293.47,928.61s1.27,6.87,1.48,9.18c.59,6.76,1.7,19.96,1.24,19.43-1.58-1.82-5.49-6.58-5.83-9.19-1.9-14.76-13.47-35.28-17.43-41.61-.83-1.33,9.35,1.84,9.35,1.84"/>
      <path class="cls-11" d="M342.66,922.07s-2.85,4.3-4.77,10.93c-2.02,6.99-2.96,27.17-2.47,26.6,1.68-1.95,5.84-7.05,6.19-9.86,2.02-15.84,14.31-37.85,18.51-44.64.88-1.43-8.33,1-8.33,1"/>
      <path class="cls-11" d="M282.43,907.94s11.45,17.1,11.97,24.55c.52,7.45,2.11,19.39,1.94,24.41-.17,5.02,31.18,11.09,38.63,1.73.35-15.42,1.21-21.14,2.77-26.51s14.06-26.02,14.06-26.02"/>
      <path class="cls-11" d="M238.76,857.11s-11.7,53.61,73.86,53.62c87.07,0,80.94-52.1,80.94-52.1,0,0-16.13,31.45-78.3,32.78-62.16,1.32-76.5-34.29-76.5-34.29Z"/>
      <path class="cls-13" d="M268.92,1081.51s25.2,12.56,21.66,67.1"/>
      <path class="cls-13" d="M365.72,1081s-29.99,13.26-25.62,67.8"/>
      <path class="cls-13" d="M263.58,1124.83s-7.65,5.23-7.65,16.13c0,10.26,6.71,31.87,59.86,33.76,53.16,1.88,61.79-22.1,62.44-30.52.57-7.32-2.86-15.48-9.21-18.07"/>
      <path class="cls-13" d="M256.95,1134.37s-17.68,13.62-18.14,23.38c-.89,19.1,13.18,43.23,69.09,43.47,55.91.23,82.54-13.28,83.4-31.96.79-16.91-7.51-28.2-15.33-36.37"/>
      <path class="cls-11" d="M168.35,986s-10.33,96.19,140.63,98.7c163.45,2.71,154.26-92.31,154.26-92.31-15.32,54.64-222.53,112.83-294.89-6.39"/>
    </g>
    <g>
      <polygon class="cls-12" points="1387.47 1215.98 1493.68 1265.28 1599.5 1205.56 1495.69 1156.26 1387.47 1215.98"/>
      <polygon class="cls-14" points="1387.47 1226.01 1493.48 1276.11 1599.5 1217.19 1599.5 1205.56 1493.68 1265.28 1387.47 1215.98 1387.47 1226.01"/>
      <polyline class="cls-14" points="1586.86 1282.21 1586.86 1291.74 1592.28 1293.54 1601.1 1287.88 1601.1 1274.35"/>
      <line class="cls-13" x1="1591.93" y1="1279.41" x2="1592.28" y2="1293.54"/>
      <polygon class="cls-14" points="1562.03 1238.01 1572.15 1252.29 1588.2 1243.21 1577.85 1229.22 1562.03 1238.01"/>
      <polygon class="cls-14" points="1475.16 1291.68 1417.13 1265.28 1422.34 1254.46 1473.03 1279.41 1475.16 1291.68"/>
      <polygon class="cls-12" points="1393.72 1228.96 1364.75 1244.91 1390.09 1259.09 1418.85 1240.84 1393.72 1228.96"/>
      <polygon class="cls-14" points="1406.27 1250.92 1393.26 1286.77 1405.27 1293.77 1411.6 1291.68 1417.13 1265.28 1422.34 1254.46 1422.34 1242.48 1418.85 1240.84 1406.79 1248.49 1406.27 1250.92"/>
      <polygon class="cls-14" points="1390.76 1267.3 1402.71 1260.72 1406.27 1250.92 1406.79 1248.49 1390.09 1259.09 1364.75 1244.91 1364.75 1254.46 1390.76 1267.3"/>
      <polygon class="cls-31" points="1496.46 1296.87 1493.48 1276.11 1479.86 1269.67 1485.65 1301.94 1493.48 1337.83 1488.16 1302.16 1496.46 1296.87"/>
      <line class="cls-12" x1="1479.86" y1="1269.67" x2="1493.48" y2="1337.83"/>
      <polygon class="cls-12" points="1601.47 1235.82 1626.32 1249.84 1514.34 1315.94 1486.67 1302.5 1601.47 1235.82"/>
      <line class="cls-13" x1="1487.81" y1="1309.44" x2="1499.16" y2="1315.87"/>
      <polygon class="cls-14" points="1499.59 1315.94 1513.62 1323.22 1629.86 1259.09 1626.46 1250.21 1514.02 1315.61 1486.35 1302.16 1480.56 1269.89 1471.28 1265.5 1482.76 1331.64 1492.39 1337.83 1502 1334.44 1499.59 1315.94"/>
      <line class="cls-22" x1="1486.35" y1="1302.16" x2="1492.39" y2="1337.83"/>
      <line class="cls-22" x1="1487.56" y1="1309.28" x2="1499.59" y2="1315.94"/>
    </g>
    <g>
      <polygon class="cls-12" points="1859.53 1198.15 1965.74 1247.45 2071.55 1187.73 1967.74 1138.43 1859.53 1198.15"/>
      <polygon class="cls-14" points="1859.53 1208.17 1965.54 1258.27 2071.55 1199.35 2071.55 1187.73 1965.74 1247.45 1859.53 1198.15 1859.53 1208.17"/>
      <polyline class="cls-14" points="2058.92 1264.38 2058.92 1273.91 2064.34 1275.71 2073.16 1270.04 2073.16 1256.52"/>
      <line class="cls-13" x1="2063.99" y1="1261.58" x2="2064.34" y2="1275.71"/>
      <polygon class="cls-14" points="2034.09 1220.18 2044.21 1234.46 2060.26 1225.37 2049.91 1211.38 2034.09 1220.18"/>
      <polygon class="cls-14" points="1947.22 1273.85 1889.19 1247.45 1894.4 1236.63 1945.09 1261.58 1947.22 1273.85"/>
      <polygon class="cls-12" points="1865.78 1211.13 1836.8 1227.08 1862.15 1241.25 1890.91 1223 1865.78 1211.13"/>
      <polygon class="cls-14" points="1878.32 1233.08 1865.32 1268.93 1877.32 1275.94 1883.66 1273.85 1889.19 1247.45 1894.4 1236.63 1894.4 1224.65 1890.91 1223 1878.85 1230.65 1878.32 1233.08"/>
      <polygon class="cls-14" points="1862.82 1249.47 1874.77 1242.89 1878.32 1233.08 1878.85 1230.65 1862.15 1241.25 1836.8 1227.08 1836.8 1236.63 1862.82 1249.47"/>
      <polygon class="cls-31" points="1968.52 1279.04 1965.54 1258.27 1951.91 1251.83 1957.71 1284.11 1965.54 1320 1960.22 1284.33 1968.52 1279.04"/>
      <line class="cls-12" x1="1951.91" y1="1251.83" x2="1965.54" y2="1320"/>
      <polygon class="cls-12" points="2073.53 1217.98 2098.38 1232.01 1986.4 1298.11 1958.73 1284.66 2073.53 1217.98"/>
      <line class="cls-13" x1="1959.86" y1="1291.61" x2="1971.22" y2="1298.03"/>
      <polygon class="cls-14" points="1971.65 1298.1 1985.68 1305.39 2101.91 1241.26 2098.52 1232.37 1986.08 1297.77 1958.41 1284.33 1952.61 1252.05 1943.34 1247.67 1954.82 1313.81 1964.45 1320 1974.06 1316.61 1971.65 1298.1"/>
      <line class="cls-22" x1="1958.41" y1="1284.33" x2="1964.45" y2="1320"/>
      <line class="cls-22" x1="1959.61" y1="1291.45" x2="1971.65" y2="1298.1"/>
    </g>
    <g>
      <polygon class="cls-12" points="1980.62 851.9 2086.83 901.2 2192.65 841.48 2088.84 792.18 1980.62 851.9"/>
      <polygon class="cls-14" points="1980.62 861.92 2086.63 912.03 2192.65 853.11 2192.65 841.48 2086.83 901.2 1980.62 851.9 1980.62 861.92"/>
      <polyline class="cls-14" points="2180.01 918.13 2180.01 927.66 2185.43 929.46 2194.25 923.8 2194.25 910.27"/>
      <line class="cls-13" x1="2185.08" y1="915.33" x2="2185.43" y2="929.46"/>
      <polygon class="cls-14" points="2155.18 873.93 2165.3 888.21 2181.35 879.13 2171.01 865.13 2155.18 873.93"/>
      <polygon class="cls-14" points="2068.31 927.6 2010.28 901.2 2015.49 890.38 2066.18 915.33 2068.31 927.6"/>
      <polygon class="cls-12" points="1986.88 864.88 1957.9 880.83 1983.24 895.01 2012 876.75 1986.88 864.88"/>
      <polygon class="cls-14" points="1999.42 886.84 1986.41 922.69 1998.42 929.69 2004.75 927.6 2010.28 901.2 2015.49 890.38 2015.49 878.4 2012 876.75 1999.95 884.4 1999.42 886.84"/>
      <polygon class="cls-14" points="1983.91 903.22 1995.86 896.64 1999.42 886.84 1999.95 884.4 1983.24 895.01 1957.9 880.83 1957.9 890.38 1983.91 903.22"/>
      <polygon class="cls-31" points="2089.61 932.79 2086.63 912.03 2073.01 905.59 2078.8 937.86 2086.63 973.75 2081.31 938.08 2089.61 932.79"/>
      <line class="cls-12" x1="2073.01" y1="905.59" x2="2086.63" y2="973.75"/>
      <polygon class="cls-12" points="2194.62 871.73 2219.47 885.76 2107.49 951.86 2079.82 938.42 2194.62 871.73"/>
      <line class="cls-13" x1="2080.96" y1="945.36" x2="2092.31" y2="951.79"/>
      <polygon class="cls-14" points="2092.75 951.86 2106.77 959.14 2223.01 895.01 2219.61 886.13 2107.17 951.52 2079.5 938.08 2073.71 905.81 2064.43 901.42 2075.91 967.56 2085.55 973.75 2095.15 970.36 2092.75 951.86"/>
      <line class="cls-22" x1="2079.5" y1="938.08" x2="2085.55" y2="973.75"/>
      <line class="cls-22" x1="2080.71" y1="945.2" x2="2092.75" y2="951.86"/>
    </g>
    <path class="cls-17" d="M880.47,909.73s-2.29-13.54,6.46-17.82,17.71,2.6,17.71,2.6c0,0,9.17-17.4,26.78-11.77,17.61,5.63,15.32,20.53,15.32,20.53,0,0,14.69-6.04,22.3,5.73s3.02,20.63,3.02,20.63c0,0,10.73,2.71,11.46,14.27s-6.15,12.61-6.15,12.61c0,0,11.04,15.63,1.67,24.48-9.38,8.86-24.17,1.88-24.17,1.88,0,0-4.17,19.17-15.11,19.69s-18.96-7.29-18.96-7.29c0,0-5.94,10.42-15,10.11s-16.25-12.92-16.25-12.92c0,0-14.9,9.59-26.26,0-11.36-9.59-3.86-22.09-3.86-22.09,0,0-15.94-.31-15.32-15.11s13.13-16.67,13.13-16.67c0,0-2.19-17.19,4.58-23.55s18.65-5.31,18.65-5.31Z"/>
    <path class="cls-17" d="M1312.35,1147.82s-23.26,20.8-24.89-21.39c-1.64-42.19,35.3-17.65,35.3-17.65,0,0,4.21-6.66,12.27-5.03,8.06,1.64,20.57,13.09,20.69,22.09s-2.45,16.71-8.18,20.57c-5.73,3.86-10.75,7.36-18.58,2.69-5.84,9.58-12.97,7.36-16.6-1.29Z"/>
    <path class="cls-17" d="M621.62,832.79s-23.26,20.8-24.89-21.39c-1.64-42.19,35.3-17.65,35.3-17.65,0,0,4.21-6.66,12.27-5.03s20.57,13.09,20.69,22.09-2.45,16.71-8.18,20.57c-5.73,3.86-10.75,7.36-18.58,2.69-5.84,9.58-12.97,7.36-16.6-1.29Z"/>
    <path class="cls-17" d="M964.86,996.59s-23.26,20.8-24.89-21.39,35.3-17.65,35.3-17.65c0,0,4.21-6.66,12.27-5.03s20.57,13.09,20.69,22.09-2.45,16.71-8.18,20.57c-5.73,3.86-10.75,7.36-18.58,2.69-5.84,9.58-12.97,7.36-16.6-1.29Z"/>
    <path class="cls-17" d="M1014.91,979.19s5.66-6.51,14.11-4.37c8.45,2.14,8.46,9.94,8.46,9.94,0,0,9.68-3.34,15.07,4.59,5.39,7.92-.2,14.89-.2,14.89,0,0,15.75,8.04,6.67,24.35s-34.31,4.51-34.31,4.51c0,0-7.37,6.42-14.25,4.11-6.88-2.31-11.76-13.33-11.76-13.33,0,0-11.27,2.85-16.99-5.39-5.72-8.24,1.73-16.37,1.73-16.37,0,0-6.41-4.55-4.58-12.01,1.84-7.46,12.92-4.73,12.92-4.73,0,0,4.16-13.68,10.34-13.32,6.17.36,12.78,7.14,12.78,7.14Z"/>
    <path class="cls-17" d="M732.71,845.86s5.66-6.51,14.11-4.37c8.45,2.14,8.46,9.94,8.46,9.94,0,0,9.68-3.34,15.07,4.59,5.39,7.92-.2,14.89-.2,14.89,0,0,15.75,8.04,6.67,24.35s-34.31,4.51-34.31,4.51c0,0-7.37,6.42-14.25,4.11-6.88-2.31-11.76-13.33-11.76-13.33,0,0-11.27,2.85-16.99-5.39-5.72-8.24,1.73-16.37,1.73-16.37,0,0-6.41-4.55-4.58-12.01,1.84-7.46,12.92-4.73,12.92-4.73,0,0,4.16-13.68,10.34-13.32,6.17.36,12.78,7.14,12.78,7.14Z"/>
    <path class="cls-17" d="M630.43,836.26s-1.66-12.97,5.32-19.95c6.98-6.98,13.63-8.98,13.63-8.98,0,0,9.31-15.63,20.28-15.63s11.97,11.97,11.97,11.97c0,0,15.63-6.65,26.27,3.66s1.66,16.96,1.66,16.96c0,0,17.96,2.33,19.95,11.97s-4.99,12.97-4.99,12.97c0,0,15.96,10.64,6.98,21.95-8.98,11.31-20.95,3.99-20.95,3.99,0,0-3.99,11.97-9.98,11.97s-15.3-7.98-15.3-7.98c0,0-8.98,9.31-16.29,9.31s-14.63-8.65-14.63-8.65c0,0-15.96,4.32-19.95,2.33s-12.97-6.32-7.65-15.3c-9.64-9.98-9.31-15.96-9.31-18.29s4.32-11.97,12.97-12.3Z"/>
    <path class="cls-17" d="M852.47,895.47s1.67-12.97-5.35-19.95-13.7-8.98-13.7-8.98c0,0-9.36-15.63-20.39-15.63s-12.03,11.97-12.03,11.97c0,0-15.71-6.65-26.41,3.66-10.7,10.31-1.67,16.96-1.67,16.96,0,0-18.05,2.33-20.06,11.97s5.01,12.97,5.01,12.97c0,0-16.04,10.64-7.02,21.95,9.02,11.31,21.06,3.99,21.06,3.99,0,0,4.01,11.97,10.03,11.97s15.38-7.98,15.38-7.98c0,0,9.02,9.31,16.38,9.31s14.71-8.65,14.71-8.65c0,0,16.04,4.32,20.06,2.33s13.04-6.32,7.69-15.3c9.69-9.98,9.36-15.96,9.36-18.29s-4.35-11.97-13.04-12.3Z"/>
    <g>
      <path class="cls-9" d="M713.22,858.49v67.89s-9.73,7.05-9.73,9.3,3.68,5.89,12.94,6.24c9.26.36,15.62-2.29,15.62-4.98,0-3.37-10.16-10.92-10.16-10.92v-67.53h-8.66Z"/>
      <path class="cls-21" d="M732.71,845.86c.75,8.47-5.63,17.63-14.52,17.85-8.56.22-15.42-7.96-15.43-16.34,0-8.22,6.57-16.41,15.13-16.34,8.08.07,14.18,7.45,14.83,14.83Z"/>
    </g>
    <g>
      <path class="cls-9" d="M963.42,980.58v67.89s-9.73,7.05-9.73,9.3,3.68,5.89,12.94,6.24c9.26.36,15.62-2.29,15.62-4.98,0-3.37-10.16-10.92-10.16-10.92v-67.53h-8.66Z"/>
      <path class="cls-21" d="M982.92,967.95c.75,8.47-5.63,17.63-14.52,17.85-8.56.22-15.42-7.96-15.43-16.34,0-8.22,6.57-16.41,15.13-16.34,8.08.07,14.18,7.45,14.83,14.83Z"/>
    </g>
    <g>
      <path class="cls-12" d="M1881.2,103.89s3.47,51.25-9.55,97.72l33.88-.43s-11.29-60.8-2.61-99.46l-21.72,2.17Z"/>
      <path class="cls-17" d="M1878.11,109.39s0,10.14,9.3,10.99,16.91-5.49,16.91-5.49c0,0,.85,14.37,10.57,10.99s10.99-14.37,10.99-14.37c0,0,23.25,5.07,27.9-10.14,4.65-15.22-7.19-25.36-7.19-25.36,0,0,9.35-11.41,8.27-20.71-1.08-9.3-16.3-13.53-16.3-13.53,0,0,14.37-17.75,2.11-29.16-12.26-11.41-24.14-2.11-24.14-2.11,0,0-6.71-15.22-13.05-15.22s-13.95,7.19-13.95,7.19c0,0-16.91-.42-19.87,2.96s0,11.83,0,11.83c0,0-25.36-1.27-32.55,10.57-7.19,11.83,3.8,27.9,3.8,27.9,0,0-19.44,8.45-17.33,21.56s14.79,18.6,14.79,18.6c0,0-3.8,30.19,14.79,30.52,18.6.33,24.94-17,24.94-17Z"/>
    </g>
    <g>
      <path class="cls-12" d="M1057.48,1224.41s3.47,51.25-9.55,97.72l33.88-.43s-11.29-60.8-2.61-99.46l-21.72,2.17Z"/>
      <path class="cls-17" d="M1083.49,1132.57s-.84-10.05-9.21-10.2-14.63,6.71-14.63,6.71c0,0-1.94-14.18-10.34-10.11s-8.62,15.06-8.62,15.06c0,0-21.16-3.3-24.05,12.13-2.89,15.43,8.51,24.6,8.51,24.6,0,0-7.4,12.01-5.66,21.14,1.73,9.14,15.66,12.19,15.66,12.19,0,0-11.36,18.67.53,29.06,11.88,10.4,21.72.3,21.72.3,0,0,7.25,14.58,12.91,14.11,5.66-.47,11.85-8.16,11.85-8.16,0,0,15.12-.84,17.48-4.41s-.98-11.73-.98-11.73c0,0,22.73-.63,28.17-12.9,5.43-12.27-5.7-27.37-5.7-27.37,0,0,16.65-9.83,13.68-22.66-2.97-12.83-14.74-17.33-14.74-17.33,0,0,.9-30.21-15.73-29.15-16.62,1.06-20.85,18.71-20.85,18.71Z"/>
    </g>
    <g>
      <path class="cls-12" d="M2157.99,1050.93s3.47,51.25-9.55,97.72l33.88-.43s-11.29-60.8-2.61-99.46l-21.72,2.17Z"/>
      <path class="cls-17" d="M2122.93,1040.15s-2.59,18.12,8.87,21.82c11.46,3.7,18.12-2.96,18.12-2.96,0,0,7.76,6.66,16.27,6.66s12.94-10.35,12.94-10.35c0,0,15.16,6.29,22.18,1.85,7.03-4.44,8.13-22.55,8.13-22.55,0,0,14.42-6.29,12.2-21.45s-16.64-17.01-16.64-17.01c0,0,12.94-7.03,8.5-23.29-4.44-16.27-17.01-9.24-17.01-9.24,0,0,14.42-25.51-6.66-37.71s-31.8,0-31.8,0c0,0-17.01-7.76-22.92-1.48-5.92,6.29-.74,17.38-.74,17.38,0,0-14.79,2.59-17.38,12.2s8.13,19.97,8.13,19.97c0,0-15.53,3.45-16.27,19.1s12.94,26.01,12.94,26.01c0,0-6.29,5.55-6.29,9.61s7.39,11.46,7.39,11.46Z"/>
    </g>
    <path class="cls-17" d="M1892.9,182.06s-.87-5.12,2.44-6.74,6.7.99,6.7.99c0,0,3.47-6.58,10.13-4.45s5.79,7.77,5.79,7.77c0,0,5.56-2.29,8.44,2.17s1.14,7.8,1.14,7.8c0,0,4.06,1.02,4.34,5.4s-2.33,4.77-2.33,4.77c0,0,4.18,5.91.63,9.26s-9.14.71-9.14.71c0,0-1.58,7.25-5.72,7.45s-7.17-2.76-7.17-2.76c0,0-2.25,3.94-5.68,3.82s-6.15-4.89-6.15-4.89c0,0-5.64,3.63-9.93,0s-1.46-8.36-1.46-8.36c0,0-6.03-.12-5.79-5.72s4.97-6.31,4.97-6.31c0,0-.83-6.5,1.73-8.91s7.06-2.01,7.06-2.01Z"/>
    <path class="cls-17" d="M2153.17,1121.86s4.45-5.11,11.08-3.43c6.63,1.68,6.64,7.8,6.64,7.8,0,0,7.6-2.62,11.83,3.6,4.23,6.22-.16,11.69-.16,11.69,0,0,12.37,6.32,5.24,19.12-7.13,12.8-26.93,3.54-26.93,3.54,0,0-5.79,5.04-11.19,3.23-5.4-1.81-9.23-10.47-9.23-10.47,0,0-8.85,2.24-13.34-4.23-4.49-6.47,1.36-12.85,1.36-12.85,0,0-5.04-3.57-3.59-9.43,1.44-5.86,10.15-3.72,10.15-3.72,0,0,3.27-10.74,8.12-10.46s10.03,5.6,10.03,5.6Z"/>
    <path class="cls-17" d="M2142.18,1142.75s.8-6.22-2.57-9.57c-3.37-3.35-6.58-4.31-6.58-4.31,0,0-4.49-7.5-9.78-7.5s-5.77,5.74-5.77,5.74c0,0-7.54-3.19-12.67,1.76s-.8,8.14-.8,8.14c0,0-8.66,1.12-9.62,5.74s2.41,6.22,2.41,6.22c0,0-7.7,5.11-3.37,10.53,4.33,5.43,10.11,1.91,10.11,1.91,0,0,1.92,5.74,4.81,5.74s7.38-3.83,7.38-3.83c0,0,4.33,4.47,7.86,4.47s7.06-4.15,7.06-4.15c0,0,7.7,2.07,9.62,1.12,1.92-.96,6.26-3.03,3.69-7.34,4.65-4.79,4.49-7.66,4.49-8.78s-2.09-5.74-6.26-5.9Z"/>
    <path class="cls-17" d="M1081.45,1330.87s-13.25,11.73-14.18-12.06c-.93-23.79,20.11-9.95,20.11-9.95,0,0,2.4-3.76,6.99-2.83s11.72,7.38,11.79,12.45-1.4,9.42-4.66,11.6c-3.26,2.17-6.13,4.15-10.59,1.52-3.33,5.4-7.39,4.15-9.45-.72Z"/>
    <g>
      <path class="cls-12" d="M561.27,422.42s3,44.19-8.24,84.26l29.21-.37s-9.74-52.43-2.25-85.75l-18.72,1.87Z"/>
      <path class="cls-17" d="M558.61,427.16s0,8.75,8.02,9.48c8.02.73,14.58-4.74,14.58-4.74,0,0,.73,12.39,9.11,9.48s9.48-12.39,9.48-12.39c0,0,20.04,4.37,24.05-8.75,4.01-13.12-6.2-21.87-6.2-21.87,0,0,8.06-9.84,7.13-17.86s-14.05-11.66-14.05-11.66c0,0,12.39-15.31,1.82-25.15s-20.81-1.82-20.81-1.82c0,0-5.79-13.12-11.25-13.12s-12.03,6.2-12.03,6.2c0,0-14.58-.36-17.13,2.55s0,10.2,0,10.2c0,0-21.87-1.09-28.06,9.11-6.2,10.2,3.28,24.05,3.28,24.05,0,0-16.76,7.29-14.94,18.59,1.82,11.3,12.76,16.03,12.76,16.03,0,0-3.28,26.03,12.76,26.32,16.03.28,21.5-14.66,21.5-14.66Z"/>
    </g>
    <path class="cls-13" d="M295.46,955.22s-5.71.72-6.87,7.61c-.82,4.88,2.05,19.62,26.45,19.02,24.4-.6,30.62-6.42,30.59-13.68-.04-8.19-4.56-9.27-8.76-10.08"/>
    <path class="cls-13" d="M289.18,968.76s-4.73,1.76-4.95,6.01c-.22,4.26-.36,12.41,0,15.51.36,3.1,1.51,7.86,7.14,10.6,5.63,2.74,9.16,5.55,24.82,5.55s25.54-5.19,27.7-7.07,4.47-3.46,4.62-6.49.36-16.67,0-17.82c-1.02-3.24-3.51-3.24-3.51-3.24"/>
    <g>
      <polygon class="cls-15" points="440.52 248.07 367.07 208.94 356.24 189.3 467.7 236.9 440.52 248.07"/>
      <path class="cls-15" d="M427.95,114.62s-6.83-4.49-13.72-4.4c-6.27.09-65.11,17.83-81.91,40-.54.72,27.36,3.4,26.91,4.13"/>
      <path class="cls-15" d="M478.39,249.01l2.19,9.88c.57,1.97,2.2,3.62,4.41,4.46,4.2,1.58,11.92,3.84,22.27,4.1,16.1.39,62.29-16.78,74.72-27,12.43-10.21,11.64-27.59,7.42-33.71-8.49-12.33-37.31-21.56-39.87-24.2-3.6-3.7-19.43-33.94-24.95-38.17-5.53-4.23-62.92-37.97-72.62-37.82-9.7.15-57,20.33-68.69,24.61-4.67,1.71-7.41,2.35-11.87,5.16-4.46,2.81-10.56,10.65-11.29,12.77s-14.95-6.99-22.45-3.86c-7.5,3.13-12.23,18.79-11.98,26.98.25,8.19,12.08,16.46,12.08,16.46"/>
      <path class="cls-7" d="M584.33,225.75c.19-.72,1.23-4.59-.98-5.59-3.33-1.51-14.24,5.5-14.41,11.26-.06,2.13,1.49,2.81,3.99,3.33,3.99.82,10.08-4.07,11.4-9Z"/>
      <path class="cls-7" d="M524.78,254.56c-.77-2.73-6.41-4.8-10.96-4.45-5.09.39-12.11,1.98-12.23,5.61-.11,3.1,5.01,3.59,9.33,3.91,7.45.56,14.85-1.53,13.86-5.07Z"/>
      <path class="cls-6" d="M562.68,242.51c1.87-1.11,2.98-3.02,2.55-4.83-.33-1.4-1.55-2.7-4.88-2.79-5.84-.14-19.24,7.73-24.65,11.07-1.91,1.18-2.91,3.18-2.4,5.04.4,1.49,1.55,2.89,4.43,2.96,5.04.12,19.57-8.25,24.96-11.47Z"/>
      <path class="cls-10" d="M342.6,186.73c10.12-2.39,21.74,3.08,24.98,12.56,1.16,9.86-7.1,18.15-17.43,18.83-8.85.58-18.27-4.49-20.64-12.45-2.51-8.42,3.87-16.76,13.09-18.94ZM341.68,204.2c1.03,2.82,4.67,4.85,8.25,4.18,3.38-.63,5.45-3.44,5.11-6.13-.4-3.14-4.04-5.74-8.25-5.49-4.02.88-6.24,4.35-5.11,7.45Z"/>
      <path class="cls-10" d="M442.92,242.06c7.28-7.58,20.23-8.53,28.43-2.96,7.04,4.77,9.83,13.82,5.02,20.78-5.09,7.35-16.69,9.45-25.32,5.57-9.47-4.25-13.55-14.87-8.13-23.39ZM453.01,253.36c1.03,2.82,4.67,4.85,8.25,4.18,3.38-.63,5.45-3.44,5.11-6.13-.4-3.14-4.04-5.74-8.25-5.49-4.02.88-6.24,4.35-5.11,7.45Z"/>
      <path class="cls-10" d="M516.49,151.71l-59.08,21.87c-1.63.6-2.36,2.21-1.64,3.62l16.42,32.35c.76,1.5,2.84,2.19,4.55,1.51l62.69-24.69c1.73-.68,2.37-2.46,1.4-3.89l-20.03-29.53c-.87-1.28-2.74-1.82-4.3-1.24Z"/>
      <path class="cls-10" d="M460.82,216.08c1.83-1.06,2.51-3.07,1.64-4.84-4.79-9.68-21.51-39.72-49.54-51.07l-28.31-11.46c-3.01-1.22-6.56-.32-8.16,2.08l-6.69,10c-1.97,2.94-.76,6.74,2.73,8.57l73.18,38.19c.75.39,2.41,1.45,2.81,1.68l-1.13,1.16c-.65.57-1.25,1.07-1.8,1.48h0c-1.78,1.72-2.58,4-.32,5.44l3.6,2.28c1.7,1.08,4.01,1.14,5.71.15l6.28-3.65Z"/>
      <path class="cls-13" d="M462.68,213.82s-12.36-6.37-13.74-5.02-2.42,2.3-2.42,2.3"/>
    </g>
    <g>
      <polygon class="cls-8" points="784.3 125.47 715.66 88.89 705.54 70.54 809.71 115.03 784.3 125.47"/>
      <path class="cls-8" d="M772.56.74s-6.38-4.2-12.82-4.11c-5.86.08-60.85,16.66-76.55,37.39-.51.67,25.57,3.18,25.15,3.86"/>
      <path class="cls-8" d="M819.69,126.34l2.05,9.23c.53,1.84,2.06,3.39,4.12,4.16,3.92,1.48,11.14,3.59,20.82,3.83,15.05.37,58.21-15.69,69.83-25.23,11.62-9.55,10.88-25.78,6.94-31.51-7.93-11.53-34.87-20.15-37.27-22.61-3.36-3.45-18.15-31.72-23.32-35.67-5.17-3.95-58.8-35.48-67.87-35.34-9.07.14-53.27,19-64.19,23-4.37,1.6-6.93,2.2-11.1,4.83-4.17,2.63-9.87,9.95-10.55,11.94s-13.97-6.53-20.98-3.61c-7.01,2.92-11.43,17.56-11.2,25.21.23,7.65,11.29,15.39,11.29,15.39"/>
      <path class="cls-7" d="M918.7,104.6c.18-.68,1.15-4.29-.92-5.22-3.11-1.41-13.31,5.14-13.47,10.52-.06,1.99,1.39,2.63,3.73,3.11,3.73.77,9.42-3.8,10.65-8.41Z"/>
      <path class="cls-7" d="M863.05,131.53c-.72-2.55-5.99-4.48-10.24-4.16-4.76.36-11.32,1.85-11.43,5.24-.1,2.9,4.68,3.35,8.72,3.65,6.96.52,13.88-1.43,12.95-4.74Z"/>
      <path class="cls-19" d="M898.46,120.27c1.74-1.04,2.78-2.82,2.38-4.51-.31-1.31-1.45-2.53-4.56-2.6-5.45-.13-17.98,7.23-23.04,10.35-1.79,1.1-2.72,2.97-2.25,4.71.37,1.39,1.45,2.7,4.14,2.77,4.71.12,18.29-7.71,23.32-10.72Z"/>
      <path class="cls-10" d="M692.79,68.14c9.46-2.24,20.31,2.88,23.34,11.73,1.09,9.22-6.64,16.96-16.29,17.59-8.27.55-17.08-4.19-19.29-11.63-2.34-7.87,3.62-15.66,12.24-17.7ZM691.93,84.47c.96,2.64,4.36,4.53,7.71,3.9,3.16-.59,5.09-3.21,4.77-5.73-.38-2.94-3.77-5.36-7.71-5.13-3.76.82-5.83,4.06-4.77,6.96Z"/>
      <path class="cls-10" d="M786.54,119.85c6.8-7.08,18.9-7.97,26.57-2.77,6.58,4.46,9.18,12.92,4.69,19.42-4.76,6.87-15.6,8.83-23.66,5.21-8.85-3.97-12.66-13.89-7.6-21.86ZM795.97,130.41c.96,2.64,4.36,4.53,7.71,3.9,3.16-.59,5.09-3.21,4.77-5.73-.38-2.94-3.77-5.36-7.71-5.13-3.76.82-5.83,4.06-4.77,6.96Z"/>
      <path class="cls-10" d="M855.3,35.41l-55.21,20.44c-1.53.56-2.21,2.06-1.54,3.38l15.34,30.23c.71,1.4,2.65,2.04,4.25,1.41l58.59-23.07c1.61-.64,2.21-2.3,1.31-3.64l-18.72-27.59c-.81-1.2-2.56-1.7-4.02-1.16Z"/>
      <path class="cls-10" d="M803.27,95.56c1.71-.99,2.35-2.87,1.53-4.52-4.47-9.05-20.1-37.12-46.3-47.73l-26.45-10.71c-2.81-1.14-6.13-.3-7.63,1.94l-6.26,9.35c-1.84,2.75-.71,6.3,2.55,8.01l68.39,35.69c.7.37,2.26,1.35,2.62,1.57l-1.06,1.09c-.61.53-1.17,1-1.68,1.38h0c-1.67,1.61-2.41,3.74-.3,5.08l3.37,2.13c1.59,1.01,3.74,1.06,5.34.14l5.87-3.41Z"/>
      <path class="cls-13" d="M805.01,93.46s-11.55-5.95-12.84-4.69-2.26,2.15-2.26,2.15"/>
    </g>
    <g>
      <polygon class="cls-25" points="256.08 318.76 183.22 284.54 171.36 265.05 280.96 304.7 256.08 318.76"/>
      <path class="cls-25" d="M233.33,180.88s-6.84-4.07-13.37-3.36c-5.94.65-60.33,24.37-74.46,48.96-.46.79,26.24,1.1,25.87,1.9"/>
      <path class="cls-25" d="M292.08,316.35l2.88,10.09c.7,2,2.38,3.58,4.54,4.25,4.11,1.27,11.62,2.94,21.46,2.28,15.31-1.02,57.73-23.03,68.69-34.78,10.97-11.75,8.8-29.77,4.3-35.77-9.05-12.09-37.14-19.13-39.79-21.65-3.71-3.53-21.18-33.62-26.77-37.53-5.59-3.91-62.77-33.94-71.96-32.92-9.19,1.02-52.42,26.26-63.17,31.76-4.3,2.2-6.84,3.11-10.84,6.44-4.01,3.33-9.15,12.03-9.68,14.31s-14.75-5.95-21.61-2.02c-6.86,3.93-10.08,20.66-9.18,29.16.9,8.51,12.8,16.07,12.8,16.07"/>
      <path class="cls-7" d="M390.7,282.69c.12-.77.79-4.89-1.39-5.73-3.28-1.28-13.06,7-12.76,13.01.11,2.23,1.64,2.8,4.06,3.11,3.85.5,9.24-5.13,10.09-10.38Z"/>
      <path class="cls-7" d="M336.54,318c-.95-2.77-6.47-4.42-10.76-3.66-4.8.86-11.33,3.15-11.15,6.93.15,3.24,5.04,3.29,9.17,3.24,7.11-.08,13.97-2.91,12.73-6.51Z"/>
      <path class="cls-23" d="M371.52,302.07c1.68-1.33,2.58-3.41,2.03-5.25-.43-1.43-1.69-2.68-4.86-2.47-5.55.37-17.63,9.77-22.49,13.73-1.72,1.4-2.5,3.57-1.87,5.47.5,1.52,1.7,2.88,4.45,2.69,4.79-.32,17.9-10.34,22.74-14.17Z"/>
      <path class="cls-10" d="M158.2,263.59c9.41-3.39,20.87,1.27,24.71,10.85,1.91,10.17-5.27,19.53-15.01,21.16-8.35,1.4-17.7-3.04-20.6-11.12-3.06-8.55,2.31-17.8,10.89-20.89ZM158.75,281.87c1.21,2.85,4.82,4.63,8.16,3.62,3.16-.96,4.89-4.07,4.35-6.84-.64-3.24-4.29-5.62-8.27-4.98-3.74,1.28-5.57,5.08-4.24,8.21Z"/>
      <path class="cls-10" d="M257.87,312.28c6.29-8.54,18.5-10.68,26.73-5.62,7.06,4.34,10.45,13.52,6.44,21.19-4.23,8.11-15.06,11.33-23.56,8.06-9.33-3.58-14.06-14.28-9.61-23.63ZM268.36,323.15c1.21,2.85,4.82,4.63,8.16,3.62,3.16-.96,4.89-4.07,4.35-6.84-.64-3.24-4.29-5.62-8.27-4.98-3.74,1.28-5.57,5.08-4.24,8.21Z"/>
      <path class="cls-10" d="M320.33,211.62l-54.27,28.04c-1.5.77-2.06,2.51-1.27,3.91l18.2,32.23c.84,1.49,2.87,2.03,4.44,1.17l57.47-31.3c1.58-.86,2.05-2.78,1.01-4.18l-21.4-28.97c-.93-1.26-2.74-1.65-4.18-.91Z"/>
      <path class="cls-10" d="M272.74,283.62c1.65-1.27,2.13-3.42,1.16-5.19-5.33-9.66-23.63-39.45-51.15-48.77l-27.79-9.41c-2.95-1-6.25.26-7.57,2.89l-5.54,11.01c-1.63,3.24-.17,7.08,3.29,8.69l72.53,33.25c.74.34,2.41,1.29,2.8,1.5l-.98,1.31c-.57.65-1.1,1.22-1.59,1.7h0s0,0,0,0c-1.55,1.95-2.13,4.4.14,5.69l3.6,2.05c1.71.97,3.89.83,5.43-.36l5.66-4.36Z"/>
      <path class="cls-13" d="M274.32,281.11s-12.24-5.53-13.44-4-2.11,2.61-2.11,2.61"/>
    </g>
    <g>
      <polygon class="cls-16" points="343.51 677.08 270.66 642.87 258.79 623.38 368.4 663.02 343.51 677.08"/>
      <path class="cls-16" d="M320.76,539.21s-6.84-4.07-13.37-3.36c-5.94.65-60.33,24.37-74.46,48.96-.46.79,26.24,1.1,25.87,1.9"/>
      <path class="cls-16" d="M379.51,674.68l2.88,10.09c.7,2,2.38,3.58,4.54,4.25,4.11,1.27,11.62,2.94,21.46,2.28,15.31-1.02,57.73-23.03,68.69-34.78,10.97-11.75,8.8-29.77,4.3-35.77-9.05-12.09-37.14-19.13-39.79-21.65-3.71-3.53-21.18-33.62-26.77-37.53-5.59-3.91-62.77-33.94-71.96-32.92-9.19,1.02-52.42,26.26-63.17,31.76-4.3,2.2-6.84,3.11-10.84,6.44-4.01,3.33-9.15,12.03-9.68,14.31s-14.75-5.95-21.61-2.02c-6.86,3.93-10.08,20.66-9.18,29.16.9,8.51,12.8,16.07,12.8,16.07"/>
      <path class="cls-7" d="M478.13,641.01c.12-.77.79-4.89-1.39-5.73-3.28-1.28-13.06,7-12.76,13.01.11,2.23,1.64,2.8,4.06,3.11,3.85.5,9.24-5.13,10.09-10.38Z"/>
      <path class="cls-7" d="M423.98,676.33c-.95-2.77-6.47-4.42-10.76-3.66-4.8.86-11.33,3.15-11.15,6.93.15,3.24,5.04,3.29,9.17,3.24,7.11-.08,13.97-2.91,12.73-6.51Z"/>
      <path class="cls-18" d="M458.95,660.4c1.68-1.33,2.58-3.41,2.03-5.25-.43-1.43-1.69-2.68-4.86-2.47-5.55.37-17.63,9.77-22.49,13.73-1.72,1.4-2.5,3.57-1.87,5.47.5,1.52,1.7,2.88,4.45,2.69,4.79-.32,17.9-10.34,22.74-14.17Z"/>
      <path class="cls-10" d="M245.63,621.92c9.41-3.39,20.87,1.27,24.71,10.85,1.91,10.17-5.27,19.53-15.01,21.16-8.35,1.4-17.7-3.04-20.6-11.12-3.06-8.55,2.31-17.8,10.89-20.89ZM246.18,640.2c1.21,2.85,4.82,4.63,8.16,3.62,3.16-.96,4.89-4.07,4.35-6.84-.64-3.24-4.29-5.62-8.27-4.98-3.74,1.28-5.57,5.08-4.24,8.21Z"/>
      <path class="cls-10" d="M345.3,670.61c6.29-8.54,18.5-10.68,26.73-5.62,7.06,4.34,10.45,13.52,6.44,21.19-4.23,8.11-15.06,11.33-23.56,8.06-9.33-3.58-14.06-14.28-9.61-23.63ZM355.79,681.48c1.21,2.85,4.82,4.63,8.16,3.62,3.16-.96,4.89-4.07,4.35-6.84-.64-3.24-4.29-5.62-8.27-4.98-3.74,1.28-5.57,5.08-4.24,8.21Z"/>
      <path class="cls-10" d="M407.76,569.95l-54.27,28.04c-1.5.77-2.06,2.51-1.27,3.91l18.2,32.23c.84,1.49,2.87,2.03,4.44,1.17l57.47-31.3c1.58-.86,2.05-2.78,1.01-4.18l-21.4-28.97c-.93-1.26-2.74-1.65-4.18-.91Z"/>
      <path class="cls-10" d="M360.17,641.95c1.65-1.27,2.13-3.42,1.16-5.19-5.33-9.66-23.63-39.45-51.15-48.77l-27.79-9.41c-2.95-1-6.25.26-7.57,2.89l-5.54,11.01c-1.63,3.24-.17,7.08,3.29,8.69l72.53,33.25c.74.34,2.41,1.29,2.8,1.5l-.98,1.31c-.57.65-1.1,1.22-1.59,1.7h0s0,0,0,0c-1.55,1.95-2.13,4.4.14,5.69l3.6,2.05c1.71.97,3.89.83,5.43-.36l5.66-4.36Z"/>
      <path class="cls-13" d="M361.75,639.44s-12.24-5.53-13.44-4-2.11,2.61-2.11,2.61"/>
    </g>
    <g>
      <path class="cls-9" d="M384.77,241.84v67.89s-9.73,7.05-9.73,9.3,3.68,5.89,12.94,6.24c9.26.36,15.62-2.29,15.62-4.98,0-3.37-10.16-10.92-10.16-10.92v-67.53h-8.66Z"/>
      <path class="cls-21" d="M404.26,229.21c.75,8.47-5.63,17.63-14.52,17.85-8.56.22-15.42-7.96-15.43-16.34,0-8.22,6.57-16.41,15.13-16.34,8.08.07,14.18,7.45,14.83,14.83Z"/>
    </g>
  </g>
</svg>