<svg width="536" height="143" viewBox="0 0 536 143" fill="none" xmlns="http://www.w3.org/2000/svg">
<path d="M104.31 29.892C104.31 35.87 102.663 43.678 99.369 53.316C96.319 62.588 93.147 70.03 89.853 75.642C82.777 87.842 74.359 98.029 64.599 106.203C52.643 116.207 40.748 121.209 28.914 121.209C20.13 121.209 12.993 117.854 7.503 111.144C2.501 104.678 0 96.992 0 88.086C0 76.252 4.026 63.381 12.078 49.473C18.91 37.517 27.511 26.842 37.881 17.448C48.983 7.32199 59.414 1.588 69.174 0.245998H76.86C72.59 2.31999 68.93 4.33299 65.88 6.285C62.83 8.11499 60.268 9.88399 58.194 11.592C54.046 14.886 49.227 20.315 43.737 27.879C23.607 55.939 13.542 80.644 13.542 101.994C13.542 106.874 14.884 111.144 17.568 114.804C20.374 118.342 24.156 120.111 28.914 120.111C37.332 120.111 46.299 114.865 55.815 104.373C62.281 97.297 68.503 88.391 74.481 77.655C87.657 53.743 94.245 34.528 94.245 20.01C94.245 10.128 90.829 5.187 83.997 5.187C74.481 5.187 65.331 11.348 56.547 23.67C48.373 35.138 44.286 45.874 44.286 55.878C44.286 59.904 45.201 63.076 47.031 65.394C49.105 68.2 52.033 69.603 55.815 69.603C63.623 69.603 70.577 65.089 76.677 56.061C81.923 48.497 84.546 41.604 84.546 35.382C84.546 33.064 83.997 30.807 82.899 28.611C81.679 25.927 79.971 24.585 77.775 24.585C74.481 24.585 70.943 26.781 67.161 31.173L65.88 29.892C70.638 25.134 74.603 22.755 77.775 22.755C80.459 22.755 82.594 24.158 84.18 26.964C85.766 29.648 86.559 32.454 86.559 35.382C86.559 43.8 83.57 51.791 77.592 59.355C71.248 67.529 63.989 71.616 55.815 71.616C51.545 71.616 48.19 70.091 45.75 67.041C43.432 63.991 42.273 60.27 42.273 55.878C42.273 45.386 46.543 34.223 55.083 22.389C64.355 9.823 73.993 3.54 83.997 3.54C89.975 3.54 94.977 6.529 99.003 12.507C102.541 17.875 104.31 23.67 104.31 29.892ZM131.569 59.658L131.455 59.886L109.567 57.264L114.241 46.776L131.569 59.658ZM128.263 74.82C128.263 70.944 127.921 67.752 122.449 66.726V66.27L139.207 65.244V104.346C139.207 110.388 140.119 111.756 145.705 113.352V113.58L129.061 117.684H128.719L128.263 107.082C124.843 113.694 119.599 117.684 113.215 117.684C106.147 117.684 101.017 113.352 101.017 103.662V75.162C101.017 71.286 100.789 68.094 95.3165 67.068V66.612L112.075 65.244V98.076C112.075 105.828 113.785 110.958 120.055 110.958C123.247 110.958 127.009 108.222 128.263 105.486V74.82ZM185.38 64.104C194.614 64.104 200.656 71.058 200.428 83.256H173.41C173.41 83.94 173.41 84.738 173.41 85.422C173.524 93.288 175.006 100.128 177.856 104.802C180.364 109.02 184.924 111.528 189.028 111.414C193.132 111.3 197.236 109.932 200.2 105.828L200.542 105.942C196.666 113.58 191.878 117.684 183.442 117.684C177.172 117.684 172.156 115.404 168.736 110.958C165.088 106.17 163.15 99.558 163.15 91.35C163.264 75.162 171.928 64.104 185.38 64.104ZM173.524 82.002H190.51C190.51 74.136 188.914 65.472 182.644 65.472C176.944 65.472 173.98 73.566 173.524 82.002ZM221.45 65.472C216.206 65.244 211.532 68.208 211.532 74.364C211.532 81.66 218.03 83.94 224.984 85.992C231.824 87.93 238.778 91.122 238.664 101.04C238.55 112.896 230 117.684 220.652 117.684C217.004 117.684 207.884 117.228 203.894 114.606L203.666 99.9H204.35C208.112 111.3 216.206 116.316 222.818 116.316C227.834 116.316 231.71 113.124 231.71 107.652C231.71 101.496 226.922 99.102 221.564 97.392C213.812 94.998 204.122 91.464 204.122 80.52C204.236 69.462 213.014 64.104 222.818 64.104C228.062 64.104 233.762 65.7 236.726 67.752L234.674 81.546H234.104C230.798 72.312 227.378 65.7 221.45 65.472ZM244.624 104.802V75.048C244.624 71.058 244.624 68.778 238.924 68.436V67.98C245.422 64.674 250.438 60.684 255.112 52.248H255.568V65.244H267.652V68.436H255.568V103.548C255.568 109.476 257.734 112.326 261.838 112.326C264.802 112.326 267.766 110.958 269.362 109.362L269.59 109.704C266.854 114.15 261.268 117.684 255.226 117.684C248.728 117.684 244.624 113.808 244.624 104.802ZM303.936 80.862V106.17C303.936 113.01 304.848 114.72 311.346 116.544V117H285.354V116.544C291.852 114.72 292.764 112.896 292.764 106.056V52.02C292.764 45.18 291.852 43.356 285.354 41.532V41.076H315.678C326.964 41.076 337.338 46.662 337.338 61.14C337.338 67.866 334.944 72.882 330.726 76.188C327.42 78.582 323.772 80.064 319.782 80.748V80.976C324.798 82.344 327.762 85.65 329.814 89.754C332.436 94.998 333.69 101.382 336.198 106.512C338.364 111.072 341.442 115.404 345.318 115.518V115.974C342.126 117.342 339.39 117.684 335.97 117.684C329.016 117.684 326.85 113.466 325.14 108.906L320.922 97.734C317.274 88.158 314.424 82.23 309.066 80.862H303.936ZM326.28 61.938C326.166 48.486 318.414 42.672 309.522 42.672H303.936V79.038C305.304 79.38 307.014 79.608 308.724 79.608C320.238 79.608 326.28 73.68 326.28 61.938ZM380.048 81.66V108.108C380.048 111.414 381.758 112.098 383.24 112.098C384.494 112.098 386.09 110.958 387.116 110.16L387.344 110.274C384.836 115.062 381.188 117.684 376.628 117.684C373.436 117.684 369.56 115.746 369.218 109.02C366.938 112.668 362.492 117.684 355.652 117.684C348.128 117.684 344.708 112.782 344.708 107.424C344.708 102.75 347.102 99.444 350.75 96.594C355.652 92.718 362.72 90.096 369.218 87.132V83.37C369.218 73.794 364.544 70.146 359.528 70.146C353.942 70.146 348.926 73.908 347.102 80.748L346.19 80.52C347.558 70.716 354.968 64.104 365.456 64.104C375.488 64.104 380.048 69.462 380.048 81.66ZM369.218 107.994V88.044C360.326 92.946 355.082 98.418 355.31 105.144C355.424 109.248 357.362 112.782 361.922 112.782C364.088 112.782 367.052 111.186 369.218 107.994ZM391.944 132.162V78.81C391.944 74.478 391.944 72.768 385.104 71.628V71.172L402.546 63.534H403.002V71.514C405.51 67.068 411.21 64.104 416.34 64.104C422.154 64.104 426.03 66.612 428.88 70.716C432.072 75.276 433.554 81.888 433.554 89.298C433.554 97.164 431.616 105.714 426.828 111.3C423.522 115.176 418.848 117.684 412.578 117.684C409.386 117.684 405.966 117 402.888 115.404V132.162C402.888 138.204 402.888 140.37 409.386 142.194V142.65H385.104V142.194C391.944 140.37 391.944 138.318 391.944 132.162ZM403.002 72.198V109.818C405.054 113.808 408.588 116.544 412.692 116.544C416.91 116.544 419.874 113.352 421.242 109.248C422.496 105.372 422.724 100.698 422.724 97.392C422.724 92.376 422.61 82.686 418.962 76.416C417.024 73.11 414.288 70.716 410.07 70.488C407.904 70.374 404.94 70.83 403.002 72.198ZM451.429 72.768C455.191 68.892 461.461 64.104 467.959 64.104C476.623 64.104 479.473 68.664 479.473 78.354V106.512C479.473 112.554 479.473 114.72 485.971 116.544V117H461.575V116.544C468.187 114.72 468.415 112.668 468.415 106.512V79.494C468.415 73.908 466.819 70.26 461.005 70.26C457.357 70.26 453.595 72.312 451.429 73.908V106.512C451.429 112.554 451.429 114.72 457.927 116.544V117H433.531V116.544C440.371 114.72 440.371 112.668 440.371 106.512V54.528C440.371 49.512 440.371 46.434 433.531 45.636V45.18L451.201 37.884H451.429V72.768ZM506.789 51.45L509.069 39.252C512.489 38.682 515.567 38.454 518.303 38.454C530.615 38.454 534.947 44.382 535.175 50.88C535.289 54.3 534.263 57.948 532.667 61.026C529.361 67.296 523.433 71.628 519.215 78.924C516.707 83.37 514.769 88.842 514.427 96.594H513.857C513.515 87.132 510.323 74.706 512.489 69.576C514.883 63.99 523.319 61.824 528.905 58.746C531.869 57.15 534.035 55.212 534.035 53.046C534.035 50.082 530.159 49.512 524.231 49.512C519.443 49.512 513.401 50.196 506.789 51.45ZM514.199 103.776C517.391 103.776 520.127 106.74 520.127 110.73C520.127 114.492 517.391 117.57 514.199 117.57C510.779 117.57 508.157 114.492 508.157 110.73C508.157 106.74 510.779 103.776 514.199 103.776Z" fill="#250101"/>
</svg>
