<svg width="522" height="122" viewBox="0 0 522 122" fill="none" xmlns="http://www.w3.org/2000/svg">
<path d="M104.31 29.892C104.31 35.87 102.663 43.678 99.369 53.316C96.319 62.588 93.147 70.03 89.853 75.642C82.777 87.842 74.359 98.029 64.599 106.203C52.643 116.207 40.748 121.209 28.914 121.209C20.13 121.209 12.993 117.854 7.503 111.144C2.501 104.678 0 96.992 0 88.086C0 76.252 4.026 63.381 12.078 49.473C18.91 37.517 27.511 26.842 37.881 17.448C48.983 7.32199 59.414 1.588 69.174 0.245998H76.86C72.59 2.31999 68.93 4.33299 65.88 6.285C62.83 8.11499 60.268 9.88399 58.194 11.592C54.046 14.886 49.227 20.315 43.737 27.879C23.607 55.939 13.542 80.644 13.542 101.994C13.542 106.874 14.884 111.144 17.568 114.804C20.374 118.342 24.156 120.111 28.914 120.111C37.332 120.111 46.299 114.865 55.815 104.373C62.281 97.297 68.503 88.391 74.481 77.655C87.657 53.743 94.245 34.528 94.245 20.01C94.245 10.128 90.829 5.187 83.997 5.187C74.481 5.187 65.331 11.348 56.547 23.67C48.373 35.138 44.286 45.874 44.286 55.878C44.286 59.904 45.201 63.076 47.031 65.394C49.105 68.2 52.033 69.603 55.815 69.603C63.623 69.603 70.577 65.089 76.677 56.061C81.923 48.497 84.546 41.604 84.546 35.382C84.546 33.064 83.997 30.807 82.899 28.611C81.679 25.927 79.971 24.585 77.775 24.585C74.481 24.585 70.943 26.781 67.161 31.173L65.88 29.892C70.638 25.134 74.603 22.755 77.775 22.755C80.459 22.755 82.594 24.158 84.18 26.964C85.766 29.648 86.559 32.454 86.559 35.382C86.559 43.8 83.57 51.791 77.592 59.355C71.248 67.529 63.989 71.616 55.815 71.616C51.545 71.616 48.19 70.091 45.75 67.041C43.432 63.991 42.273 60.27 42.273 55.878C42.273 45.386 46.543 34.223 55.083 22.389C64.355 9.823 73.993 3.54 83.997 3.54C89.975 3.54 94.977 6.529 99.003 12.507C102.541 17.875 104.31 23.67 104.31 29.892ZM131.569 59.658L131.455 59.886L109.567 57.264L114.241 46.776L131.569 59.658ZM128.263 74.82C128.263 70.944 127.921 67.752 122.449 66.726V66.27L139.207 65.244V104.346C139.207 110.388 140.119 111.756 145.705 113.352V113.58L129.061 117.684H128.719L128.263 107.082C124.843 113.694 119.599 117.684 113.215 117.684C106.147 117.684 101.017 113.352 101.017 103.662V75.162C101.017 71.286 100.789 68.094 95.3165 67.068V66.612L112.075 65.244V98.076C112.075 105.828 113.785 110.958 120.055 110.958C123.247 110.958 127.009 108.222 128.263 105.486V74.82ZM185.38 64.104C194.614 64.104 200.656 71.058 200.428 83.256H173.41C173.41 83.94 173.41 84.738 173.41 85.422C173.524 93.288 175.006 100.128 177.856 104.802C180.364 109.02 184.924 111.528 189.028 111.414C193.132 111.3 197.236 109.932 200.2 105.828L200.542 105.942C196.666 113.58 191.878 117.684 183.442 117.684C177.172 117.684 172.156 115.404 168.736 110.958C165.088 106.17 163.15 99.558 163.15 91.35C163.264 75.162 171.928 64.104 185.38 64.104ZM173.524 82.002H190.51C190.51 74.136 188.914 65.472 182.644 65.472C176.944 65.472 173.98 73.566 173.524 82.002ZM221.45 65.472C216.206 65.244 211.532 68.208 211.532 74.364C211.532 81.66 218.03 83.94 224.984 85.992C231.824 87.93 238.778 91.122 238.664 101.04C238.55 112.896 230 117.684 220.652 117.684C217.004 117.684 207.884 117.228 203.894 114.606L203.666 99.9H204.35C208.112 111.3 216.206 116.316 222.818 116.316C227.834 116.316 231.71 113.124 231.71 107.652C231.71 101.496 226.922 99.102 221.564 97.392C213.812 94.998 204.122 91.464 204.122 80.52C204.236 69.462 213.014 64.104 222.818 64.104C228.062 64.104 233.762 65.7 236.726 67.752L234.674 81.546H234.104C230.798 72.312 227.378 65.7 221.45 65.472ZM244.624 104.802V75.048C244.624 71.058 244.624 68.778 238.924 68.436V67.98C245.422 64.674 250.438 60.684 255.112 52.248H255.568V65.244H267.652V68.436H255.568V103.548C255.568 109.476 257.734 112.326 261.838 112.326C264.802 112.326 267.766 110.958 269.362 109.362L269.59 109.704C266.854 114.15 261.268 117.684 255.226 117.684C248.728 117.684 244.624 113.808 244.624 104.802ZM292.194 106.512V54.528C292.194 49.512 292.194 46.434 285.354 45.636V45.18L303.024 37.884H303.252V106.512C303.252 112.554 303.252 114.72 309.75 116.544V117H285.354V116.544C292.194 114.72 292.194 112.668 292.194 106.512ZM331.888 64.104C341.122 64.104 347.164 71.058 346.936 83.256H319.918C319.918 83.94 319.918 84.738 319.918 85.422C320.032 93.288 321.514 100.128 324.364 104.802C326.872 109.02 331.432 111.528 335.536 111.414C339.64 111.3 343.744 109.932 346.708 105.828L347.05 105.942C343.174 113.58 338.386 117.684 329.95 117.684C323.68 117.684 318.664 115.404 315.244 110.958C311.596 106.17 309.658 99.558 309.658 91.35C309.772 75.162 318.436 64.104 331.888 64.104ZM320.032 82.002H337.018C337.018 74.136 335.422 65.472 329.152 65.472C323.452 65.472 320.488 73.566 320.032 82.002ZM369.98 104.802V75.048C369.98 71.058 369.98 68.778 364.28 68.436V67.98C370.778 64.674 375.794 60.684 380.468 52.248H380.924V65.244H393.008V68.436H380.924V103.548C380.924 109.476 383.09 112.326 387.194 112.326C390.158 112.326 393.122 110.958 394.718 109.362L394.946 109.704C392.21 114.15 386.624 117.684 380.582 117.684C374.084 117.684 369.98 113.808 369.98 104.802ZM415.941 64.104C425.175 64.104 431.217 71.058 430.989 83.256H403.971C403.971 83.94 403.971 84.738 403.971 85.422C404.085 93.288 405.567 100.128 408.417 104.802C410.925 109.02 415.485 111.528 419.589 111.414C423.693 111.3 427.797 109.932 430.761 105.828L431.103 105.942C427.227 113.58 422.439 117.684 414.003 117.684C407.733 117.684 402.717 115.404 399.297 110.958C395.649 106.17 393.711 99.558 393.711 91.35C393.825 75.162 402.489 64.104 415.941 64.104ZM404.085 82.002H421.071C421.071 74.136 419.475 65.472 413.205 65.472C407.505 65.472 404.541 73.566 404.085 82.002ZM455.351 64.104C464.585 64.104 470.627 71.058 470.399 83.256H443.381C443.381 83.94 443.381 84.738 443.381 85.422C443.495 93.288 444.977 100.128 447.827 104.802C450.335 109.02 454.895 111.528 458.999 111.414C463.103 111.3 467.207 109.932 470.171 105.828L470.513 105.942C466.637 113.58 461.849 117.684 453.413 117.684C447.143 117.684 442.127 115.404 438.707 110.958C435.059 106.17 433.121 99.558 433.121 91.35C433.235 75.162 441.899 64.104 455.351 64.104ZM443.495 82.002H460.481C460.481 74.136 458.885 65.472 452.615 65.472C446.915 65.472 443.951 73.566 443.495 82.002ZM492.873 51.45L495.153 39.252C498.573 38.682 501.651 38.454 504.387 38.454C516.699 38.454 521.031 44.382 521.259 50.88C521.373 54.3 520.347 57.948 518.751 61.026C515.445 67.296 509.517 71.628 505.299 78.924C502.791 83.37 500.853 88.842 500.511 96.594H499.941C499.599 87.132 496.407 74.706 498.573 69.576C500.967 63.99 509.403 61.824 514.989 58.746C517.953 57.15 520.119 55.212 520.119 53.046C520.119 50.082 516.243 49.512 510.315 49.512C505.527 49.512 499.485 50.196 492.873 51.45ZM500.283 103.776C503.475 103.776 506.211 106.74 506.211 110.73C506.211 114.492 503.475 117.57 500.283 117.57C496.863 117.57 494.241 114.492 494.241 110.73C494.241 106.74 496.863 103.776 500.283 103.776Z" fill="#E7B276"/>
</svg>
