<svg width="608" height="190" viewBox="0 0 608 190" fill="none" xmlns="http://www.w3.org/2000/svg">
<g filter="url(#filter0_d_1108_857)">
<path d="M257.038 40.6L256.678 41.68C247.678 37.96 238.258 36.1 228.418 36.1C220.258 36.1 211.858 38.14 203.218 42.22C203.218 39.46 205.078 40.66 208.798 45.82C211.198 49.06 213.598 52.72 215.998 56.8C218.998 61.96 220.498 67 220.498 71.92C220.498 82.6 215.698 91.3 206.098 98.02C197.578 104.02 187.738 107.02 176.578 107.02C171.418 107.02 167.158 106.84 163.798 106.48C158.158 124.72 147.058 138.64 130.498 148.24C116.698 156.04 102.058 159.94 86.5784 159.94C70.1384 159.94 56.8184 155.62 46.6184 146.98C35.8184 137.86 30.4184 125.2 30.4184 109C30.4184 91.6 36.7184 76.3 49.3184 63.1C62.1584 49.9 77.2784 43.3 94.6784 43.3C101.398 43.3 108.178 44.8 115.018 47.8C125.818 36.52 140.758 30.88 159.838 30.88C175.438 30.88 188.758 34.06 199.798 40.42C210.598 36.58 220.138 34.66 228.418 34.66C238.618 34.66 248.158 36.64 257.038 40.6ZM207.538 66.34C207.538 56.02 204.778 48.82 199.258 44.74C188.578 50.98 181.258 59.32 177.298 69.76L164.878 102.52C166.198 102.64 167.398 102.7 168.478 102.7C169.678 102.7 170.758 102.7 171.718 102.7C181.438 102.7 189.838 99.1 196.918 91.9C203.998 84.46 207.538 75.94 207.538 66.34ZM140.578 96.76C140.818 93.76 140.578 89.62 139.858 84.34C138.898 77.14 137.518 72.04 135.718 69.04C130.798 60.4 124.078 54.16 115.558 50.32C109.678 59.56 106.738 67.12 106.738 73C106.738 80.08 109.018 86.26 113.578 91.54C118.258 96.7 124.138 99.28 131.218 99.28C134.338 99.28 137.458 98.44 140.578 96.76ZM195.478 42.22C187.078 35.62 175.198 32.32 159.838 32.32C141.958 32.32 127.558 37.78 116.638 48.7C121.678 51.1 125.518 53.44 128.158 55.72C138.358 64.48 143.218 77.74 142.738 95.5C143.578 94.66 144.478 93.52 145.438 92.08C146.518 90.64 147.718 88.9 149.038 86.86L149.578 89.56C148.258 91.6 145.978 94.42 142.738 98.02C133.618 126.22 116.818 140.32 92.3384 140.32C79.6184 140.32 69.1784 136.48 61.0184 128.8C52.3784 121.12 48.0584 110.98 48.0584 98.38C48.0584 94.06 49.1384 89.74 51.2984 85.42L53.0984 84.88C50.9384 91.36 49.8584 95.86 49.8584 98.38C49.8584 110.02 53.9984 119.68 62.2784 127.36C70.5584 134.92 80.5784 138.7 92.3384 138.7C108.058 138.7 120.718 132.28 130.318 119.44C135.118 113.08 138.418 106.3 140.218 99.1C137.338 100.3 134.338 100.9 131.218 100.9C123.298 100.9 116.938 98.2 112.138 92.8C107.218 87.28 104.758 80.68 104.758 73C104.758 66.16 107.818 58.3 113.938 49.42C106.738 46.3 100.318 44.74 94.6784 44.74C77.8784 44.74 63.1784 51.28 50.5784 64.36C38.0984 77.44 31.8584 92.32 31.8584 109C31.8584 123.52 36.4184 135.16 45.5384 143.92C54.6584 152.56 66.4784 156.88 80.9984 156.88C98.0384 156.88 113.518 149.92 127.438 136C130.318 133.12 135.598 123.58 143.278 107.38L155.698 81.46C160.498 73.9 164.698 68.14 168.298 64.18C176.578 54.94 185.638 47.62 195.478 42.22ZM236.207 118.66V145.108C236.207 148.414 237.917 149.098 239.399 149.098C240.653 149.098 242.249 147.958 243.275 147.16L243.503 147.274C240.995 152.062 237.347 154.684 232.787 154.684C229.595 154.684 225.719 152.746 225.377 146.02C223.097 149.668 218.651 154.684 211.811 154.684C204.287 154.684 200.867 149.782 200.867 144.424C200.867 139.75 203.261 136.444 206.909 133.594C211.811 129.718 218.879 127.096 225.377 124.132V120.37C225.377 110.794 220.703 107.146 215.687 107.146C210.101 107.146 205.085 110.908 203.261 117.748L202.349 117.52C203.717 107.716 211.127 101.104 221.615 101.104C231.647 101.104 236.207 106.462 236.207 118.66ZM225.377 144.994V125.044C216.485 129.946 211.241 135.418 211.469 142.144C211.583 146.248 213.521 149.782 218.081 149.782C220.247 149.782 223.211 148.186 225.377 144.994ZM277.149 101.902L276.123 115.012L275.781 115.126C272.247 110.794 265.407 107.716 260.163 111.82V143.512C260.163 149.554 260.163 151.72 266.661 153.544V154H242.265V153.544C249.105 151.72 249.105 149.668 249.105 143.512V115.81C249.105 111.478 249.105 109.768 242.265 108.628V108.172L259.707 100.534H260.163V110.68C262.443 106.918 266.433 101.332 272.703 101.104C273.957 101.104 275.325 101.218 277.149 101.902ZM311.687 118.66V145.108C311.687 148.414 313.397 149.098 314.879 149.098C316.133 149.098 317.729 147.958 318.755 147.16L318.983 147.274C316.475 152.062 312.827 154.684 308.267 154.684C305.075 154.684 301.199 152.746 300.857 146.02C298.577 149.668 294.131 154.684 287.291 154.684C279.767 154.684 276.347 149.782 276.347 144.424C276.347 139.75 278.741 136.444 282.389 133.594C287.291 129.718 294.359 127.096 300.857 124.132V120.37C300.857 110.794 296.183 107.146 291.167 107.146C285.581 107.146 280.565 110.908 278.741 117.748L277.829 117.52C279.197 107.716 286.607 101.104 297.095 101.104C307.127 101.104 311.687 106.462 311.687 118.66ZM300.857 144.994V125.044C291.965 129.946 286.721 135.418 286.949 142.144C287.063 146.248 289.001 149.782 293.561 149.782C295.727 149.782 298.691 148.186 300.857 144.994ZM317.745 108.172L335.187 100.534H335.643V109.768C339.405 105.892 345.561 101.104 351.717 101.104C358.443 101.104 361.749 104.068 362.775 109.882C366.537 106.006 373.263 101.104 379.305 101.104C387.969 101.104 390.819 105.664 390.819 115.354V143.512C390.819 149.554 391.275 151.72 397.773 153.544V154H372.921V153.544C379.533 151.72 379.761 149.668 379.761 143.512V116.494C379.761 110.908 378.165 107.26 372.351 107.26C368.817 107.26 365.397 109.198 363.231 110.794V143.512C363.231 149.554 363.231 151.72 369.729 153.544V154H345.333V153.544C351.945 151.72 352.173 149.668 352.173 143.512V116.494C352.173 110.908 350.577 107.26 344.763 107.26C341.343 107.26 337.809 109.312 335.643 110.908V143.512C335.643 149.554 335.643 151.72 342.141 153.544V154H317.745V153.544C324.585 151.72 324.585 149.668 324.585 143.512V115.81C324.585 111.478 324.585 109.768 317.745 108.628V108.172ZM410.696 83.776L428.024 96.658L427.91 96.886L406.022 94.264L410.696 83.776ZM420.5 101.104C429.734 101.104 435.776 108.058 435.548 120.256H408.53V122.422C408.644 130.288 410.126 137.128 412.976 141.802C415.484 146.02 420.044 148.528 424.148 148.414C428.252 148.3 432.356 146.932 435.32 142.828L435.662 142.942C431.786 150.58 426.998 154.684 418.562 154.684C412.292 154.684 407.276 152.404 403.856 147.958C400.208 143.17 398.27 136.558 398.27 128.35C398.384 112.162 407.048 101.104 420.5 101.104ZM408.644 119.002H425.63C425.63 111.136 424.034 102.472 417.764 102.472C412.064 102.472 409.1 110.566 408.644 119.002ZM443.118 141.802V112.048C443.118 108.058 443.118 105.778 437.418 105.436V104.98C443.916 101.674 448.932 97.684 453.606 89.248H454.062V102.244H466.146V105.436H454.062V140.548C454.062 146.476 456.228 149.326 460.332 149.326C463.296 149.326 466.26 147.958 467.856 146.362L468.084 146.704C465.348 151.15 459.762 154.684 453.72 154.684C447.222 154.684 443.118 150.808 443.118 141.802ZM500.25 101.902L499.224 115.012L498.882 115.126C495.348 110.794 488.508 107.716 483.264 111.82V143.512C483.264 149.554 483.264 151.72 489.762 153.544V154H465.366V153.544C472.206 151.72 472.206 149.668 472.206 143.512V115.81C472.206 111.478 472.206 109.768 465.366 108.628V108.172L482.808 100.534H483.264V110.68C485.544 106.918 489.534 101.332 495.804 101.104C497.058 101.104 498.426 101.218 500.25 101.902ZM523.813 101.104C533.047 101.104 539.089 108.058 538.861 120.256H511.843C511.843 120.94 511.843 121.738 511.843 122.422C511.957 130.288 513.439 137.128 516.289 141.802C518.797 146.02 523.357 148.528 527.461 148.414C531.565 148.3 535.669 146.932 538.633 142.828L538.975 142.942C535.099 150.58 530.311 154.684 521.875 154.684C515.605 154.684 510.589 152.404 507.169 147.958C503.521 143.17 501.583 136.558 501.583 128.35C501.697 112.162 510.361 101.104 523.813 101.104ZM511.957 119.002H528.943C528.943 111.136 527.347 102.472 521.077 102.472C515.377 102.472 512.413 110.566 511.957 119.002ZM559.882 102.472C554.638 102.244 549.964 105.208 549.964 111.364C549.964 118.66 556.462 120.94 563.416 122.992C570.256 124.93 577.21 128.122 577.096 138.04C576.982 149.896 568.432 154.684 559.084 154.684C555.436 154.684 546.316 154.228 542.326 151.606L542.098 136.9H542.782C546.544 148.3 554.638 153.316 561.25 153.316C566.266 153.316 570.142 150.124 570.142 144.652C570.142 138.496 565.354 136.102 559.996 134.392C552.244 131.998 542.554 128.464 542.554 117.52C542.668 106.462 551.446 101.104 561.25 101.104C566.494 101.104 572.194 102.7 575.158 104.752L573.106 118.546H572.536C569.23 109.312 565.81 102.7 559.882 102.472Z" fill="#E7B276"/>
</g>
<defs>
<filter id="filter0_d_1108_857" x="0.417969" y="0.879883" width="606.793" height="189.06" filterUnits="userSpaceOnUse" color-interpolation-filters="sRGB">
<feFlood flood-opacity="0" result="BackgroundImageFix"/>
<feColorMatrix in="SourceAlpha" type="matrix" values="0 0 0 0 0 0 0 0 0 0 0 0 0 0 0 0 0 0 127 0" result="hardAlpha"/>
<feOffset/>
<feGaussianBlur stdDeviation="15"/>
<feComposite in2="hardAlpha" operator="out"/>
<feColorMatrix type="matrix" values="0 0 0 0 0.74902 0 0 0 0 0.556863 0 0 0 0 0.388235 0 0 0 1 0"/>
<feBlend mode="normal" in2="BackgroundImageFix" result="effect1_dropShadow_1108_857"/>
<feBlend mode="normal" in="SourceGraphic" in2="effect1_dropShadow_1108_857" result="shape"/>
</filter>
</defs>
</svg>
