{
	"asset":{
		"generator":"Khronos glTF Blender I/O v4.4.55",
		"version":"2.0"
	},
	"scene":0,
	"scenes":[
		{
			"name":"Scene",
			"nodes":[
				0,
				1
			]
		}
	],
	"nodes":[
		{
			"mesh":0,
			"name":"cloth_parent",
			"rotation":[
				0.019581817090511322,
				0.01978461444377899,
				-0.009007601998746395,
				0.9995719194412231
			],
			"scale":[
				0.005010626278817654,
				0.005010626278817654,
				0.005010626278817654
			],
			"translation":[
				-0.2283434271812439,
				-6.197503089904785,
				0.29480016231536865
			]
		},
		{
			"name":"Empty",
			"scale":[
				3.46488094329834,
				3.46488094329834,
				3.46488094329834
			],
			"translation":[
				-5.643160820007324,
				-5.150555610656738,
				0
			]
		}
	],
	"animations":[
		{
			"channels":[
				{
					"sampler":0,
					"target":{
						"node":1,
						"path":"translation"
					}
				},
				{
					"sampler":1,
					"target":{
						"node":1,
						"path":"rotation"
					}
				},
				{
					"sampler":2,
					"target":{
						"node":1,
						"path":"scale"
					}
				}
			],
			"name":"EmptyAction.002",
			"samplers":[
				{
					"input":5,
					"interpolation":"LINEAR",
					"output":6
				},
				{
					"input":7,
					"interpolation":"STEP",
					"output":8
				},
				{
					"input":7,
					"interpolation":"STEP",
					"output":9
				}
			]
		}
	],
	"materials":[
		{
			"doubleSided":true,
			"name":"Shirt Texture",
			"pbrMetallicRoughness":{
				"baseColorTexture":{
					"index":0,
					"texCoord":1
				},
				"metallicFactor":0.4280821979045868
			}
		}
	],
	"meshes":[
		{
			"name":"cloth_shape_0.001",
			"primitives":[
				{
					"attributes":{
						"POSITION":0,
						"NORMAL":1,
						"TEXCOORD_0":2,
						"TEXCOORD_1":3
					},
					"indices":4,
					"material":0
				}
			]
		}
	],
	"textures":[
		{
			"sampler":0,
			"source":0
		}
	],
	"images":[
		{
			"mimeType":"image/png",
			"name":"thirtTexture",
			"uri":"thirtTexture.png"
		}
	],
	"accessors":[
		{
			"bufferView":0,
			"componentType":5126,
			"count":468222,
			"max":[
				420.68939208984375,
				1562.2449951171875,
				163.94349670410156
			],
			"min":[
				-415.9725036621094,
				842.7816162109375,
				-167.5319061279297
			],
			"type":"VEC3"
		},
		{
			"bufferView":1,
			"componentType":5126,
			"count":468222,
			"type":"VEC3"
		},
		{
			"bufferView":2,
			"componentType":5126,
			"count":468222,
			"type":"VEC2"
		},
		{
			"bufferView":3,
			"componentType":5126,
			"count":468222,
			"type":"VEC2"
		},
		{
			"bufferView":4,
			"componentType":5125,
			"count":2466720,
			"type":"SCALAR"
		},
		{
			"bufferView":5,
			"componentType":5126,
			"count":251,
			"max":[
				8.333333333333334
			],
			"min":[
				0
			],
			"type":"SCALAR"
		},
		{
			"bufferView":6,
			"componentType":5126,
			"count":251,
			"type":"VEC3"
		},
		{
			"bufferView":7,
			"componentType":5126,
			"count":2,
			"max":[
				8.333333333333334
			],
			"min":[
				0
			],
			"type":"SCALAR"
		},
		{
			"bufferView":8,
			"componentType":5126,
			"count":2,
			"type":"VEC4"
		},
		{
			"bufferView":9,
			"componentType":5126,
			"count":2,
			"type":"VEC3"
		}
	],
	"bufferViews":[
		{
			"buffer":0,
			"byteLength":5618664,
			"byteOffset":0,
			"target":34962
		},
		{
			"buffer":0,
			"byteLength":5618664,
			"byteOffset":5618664,
			"target":34962
		},
		{
			"buffer":0,
			"byteLength":3745776,
			"byteOffset":11237328,
			"target":34962
		},
		{
			"buffer":0,
			"byteLength":3745776,
			"byteOffset":14983104,
			"target":34962
		},
		{
			"buffer":0,
			"byteLength":9866880,
			"byteOffset":18728880,
			"target":34963
		},
		{
			"buffer":0,
			"byteLength":1004,
			"byteOffset":28595760
		},
		{
			"buffer":0,
			"byteLength":3012,
			"byteOffset":28596764
		},
		{
			"buffer":0,
			"byteLength":8,
			"byteOffset":28599776
		},
		{
			"buffer":0,
			"byteLength":32,
			"byteOffset":28599784
		},
		{
			"buffer":0,
			"byteLength":24,
			"byteOffset":28599816
		}
	],
	"samplers":[
		{
			"magFilter":9729,
			"minFilter":9987
		}
	],
	"buffers":[
		{
			"byteLength":28599840,
			"uri":"Tshirt-final.bin"
		}
	]
}
