{
	"asset":{
		"generator":"Khronos glTF Blender I/O v4.4.55",
		"version":"2.0"
	},
	"scene":0,
	"scenes":[
		{
			"name":"Scene",
			"nodes":[
				0,
				1,
				2,
				3,
				4,
				5,
				6,
				7
			]
		}
	],
	"nodes":[
		{
			"mesh":0,
			"name":"cloth_parent",
			"rotation":[
				0.019581817090511322,
				0.01978461444377899,
				-0.009007601998746395,
				0.9995719194412231
			],
			"scale":[
				0.005010626278817654,
				0.005010626278817654,
				0.005010626278817654
			],
			"translation":[
				-0.2283434271812439,
				-6.197503089904785,
				0.29480016231536865
			]
		},
		{
			"name":"Empty",
			"scale":[
				3.46488094329834,
				3.46488094329834,
				3.46488094329834
			],
			"translation":[
				-5.643160820007324,
				-5.150555610656738,
				0
			]
		},
		{
			"camera":0,
			"name":"Camera",
			"rotation":[
				-0.10988933593034744,
				0.0025197407230734825,
				-0.004217047244310379,
				0.9939317107200623
			],
			"scale":[
				5.346190929412842,
				5.346190452575684,
				5.346190929412842
			],
			"translation":[
				0,
				1.6934605836868286,
				9.568687438964844
			]
		},
		{
			"name":"TriLamp-Fill",
			"rotation":[
				-0.4097828269004822,
				-0.09890766441822052,
				-0.24420596659183502,
				0.8733034729957581
			],
			"scale":[
				1.212937355041504,
				1.212937355041504,
				1.2129372358322144
			],
			"translation":[
				0.33557817339897156,
				3.0973730087280273,
				5.918233871459961
			]
		},
		{
			"name":"Area light 4",
			"rotation":[
				-0.9603525996208191,
				0,
				-0.2787882387638092,
				1.88179374305264e-08
			],
			"scale":[
				2.0618488788604736,
				0.44664067029953003,
				2.2580113410949707
			],
			"translation":[
				1.5453219413757324,
				0.821599006652832,
				-1.4384678602218628
			]
		},
		{
			"name":"Area light 3",
			"rotation":[
				-0.5806134343147278,
				0,
				-0.8141793608665466,
				3.6376633261170355e-08
			],
			"scale":[
				2.869720935821533,
				0.5578530430793762,
				2.75459623336792
			],
			"translation":[
				5.6847825050354,
				0.8215984106063843,
				3.3897976875305176
			]
		},
		{
			"name":"Area light 2",
			"rotation":[
				-0.9263282418251038,
				0,
				0.3767174184322357,
				1.4292792727133019e-08
			],
			"scale":[
				2.869720697402954,
				0.5578530430793762,
				2.754595994949341
			],
			"translation":[
				-4.587334632873535,
				0.8215984106063843,
				-3.122999668121338
			]
		},
		{
			"name":"Area light 1",
			"rotation":[
				0.2209690362215042,
				0.792972981929779,
				-0.18250729143619537,
				0.5376410484313965
			],
			"scale":[
				-2.5266144275665283,
				-6.611532211303711,
				-4.432522296905518
			],
			"translation":[
				-4.031769275665283,
				2.3739380836486816,
				3.4147450923919678
			]
		}
	],
	"cameras":[
		{
			"name":"Camera",
			"perspective":{
				"aspectRatio":1,
				"yfov":0.691111147403717,
				"zfar":1000,
				"znear":0.10000000149011612
			},
			"type":"perspective"
		}
	],
	"animations":[
		{
			"channels":[
				{
					"sampler":0,
					"target":{
						"node":1,
						"path":"translation"
					}
				},
				{
					"sampler":1,
					"target":{
						"node":1,
						"path":"rotation"
					}
				},
				{
					"sampler":2,
					"target":{
						"node":1,
						"path":"scale"
					}
				}
			],
			"name":"EmptyAction.002",
			"samplers":[
				{
					"input":5,
					"interpolation":"LINEAR",
					"output":6
				},
				{
					"input":7,
					"interpolation":"STEP",
					"output":8
				},
				{
					"input":7,
					"interpolation":"STEP",
					"output":9
				}
			]
		}
	],
	"materials":[
		{
			"doubleSided":true,
			"name":"Shirt Texture",
			"pbrMetallicRoughness":{
				"metallicFactor":0.4280821979045868
			}
		}
	],
	"meshes":[
		{
			"name":"cloth_shape_0.001",
			"primitives":[
				{
					"attributes":{
						"POSITION":0,
						"NORMAL":1,
						"TEXCOORD_0":2,
						"TEXCOORD_1":3
					},
					"indices":4,
					"material":0
				}
			]
		}
	],
	"accessors":[
		{
			"bufferView":0,
			"componentType":5126,
			"count":468222,
			"max":[
				420.68939208984375,
				1562.2449951171875,
				163.94349670410156
			],
			"min":[
				-415.9725036621094,
				842.7816162109375,
				-167.5319061279297
			],
			"type":"VEC3"
		},
		{
			"bufferView":1,
			"componentType":5126,
			"count":468222,
			"type":"VEC3"
		},
		{
			"bufferView":2,
			"componentType":5126,
			"count":468222,
			"type":"VEC2"
		},
		{
			"bufferView":3,
			"componentType":5126,
			"count":468222,
			"type":"VEC2"
		},
		{
			"bufferView":4,
			"componentType":5125,
			"count":2466720,
			"type":"SCALAR"
		},
		{
			"bufferView":5,
			"componentType":5126,
			"count":251,
			"max":[
				8.333333333333334
			],
			"min":[
				0
			],
			"type":"SCALAR"
		},
		{
			"bufferView":6,
			"componentType":5126,
			"count":251,
			"type":"VEC3"
		},
		{
			"bufferView":7,
			"componentType":5126,
			"count":2,
			"max":[
				8.333333333333334
			],
			"min":[
				0
			],
			"type":"SCALAR"
		},
		{
			"bufferView":8,
			"componentType":5126,
			"count":2,
			"type":"VEC4"
		},
		{
			"bufferView":9,
			"componentType":5126,
			"count":2,
			"type":"VEC3"
		}
	],
	"bufferViews":[
		{
			"buffer":0,
			"byteLength":5618664,
			"byteOffset":0,
			"target":34962
		},
		{
			"buffer":0,
			"byteLength":5618664,
			"byteOffset":5618664,
			"target":34962
		},
		{
			"buffer":0,
			"byteLength":3745776,
			"byteOffset":11237328,
			"target":34962
		},
		{
			"buffer":0,
			"byteLength":3745776,
			"byteOffset":14983104,
			"target":34962
		},
		{
			"buffer":0,
			"byteLength":9866880,
			"byteOffset":18728880,
			"target":34963
		},
		{
			"buffer":0,
			"byteLength":1004,
			"byteOffset":28595760
		},
		{
			"buffer":0,
			"byteLength":3012,
			"byteOffset":28596764
		},
		{
			"buffer":0,
			"byteLength":8,
			"byteOffset":28599776
		},
		{
			"buffer":0,
			"byteLength":32,
			"byteOffset":28599784
		},
		{
			"buffer":0,
			"byteLength":24,
			"byteOffset":28599816
		}
	],
	"buffers":[
		{
			"byteLength":28599840,
			"uri":"Tshirt%20ide%CC%81e%201.bin"
		}
	]
}
