<svg width="526" height="236" viewBox="0 0 526 236" fill="none" xmlns="http://www.w3.org/2000/svg">
<g clip-path="url(#clip0_1037_1030)">
<path d="M104.31 103.892C104.31 109.87 102.663 117.678 99.369 127.316C96.319 136.588 93.147 144.03 89.853 149.642C82.777 161.842 74.359 172.029 64.599 180.203C52.643 190.207 40.748 195.209 28.914 195.209C20.13 195.209 12.993 191.854 7.503 185.144C2.501 178.678 0 170.992 0 162.086C0 150.252 4.026 137.381 12.078 123.473C18.91 111.517 27.511 100.842 37.881 91.448C48.983 81.322 59.414 75.588 69.174 74.246H76.86C72.59 76.32 68.93 78.333 65.88 80.285C62.83 82.115 60.268 83.884 58.194 85.592C54.046 88.886 49.227 94.315 43.737 101.879C23.607 129.939 13.542 154.644 13.542 175.994C13.542 180.874 14.884 185.144 17.568 188.804C20.374 192.342 24.156 194.111 28.914 194.111C37.332 194.111 46.299 188.865 55.815 178.373C62.281 171.297 68.503 162.391 74.481 151.655C87.657 127.743 94.245 108.528 94.245 94.01C94.245 84.128 90.829 79.187 83.997 79.187C74.481 79.187 65.331 85.348 56.547 97.67C48.373 109.138 44.286 119.874 44.286 129.878C44.286 133.904 45.201 137.076 47.031 139.394C49.105 142.2 52.033 143.603 55.815 143.603C63.623 143.603 70.577 139.089 76.677 130.061C81.923 122.497 84.546 115.604 84.546 109.382C84.546 107.064 83.997 104.807 82.899 102.611C81.679 99.927 79.971 98.585 77.775 98.585C74.481 98.585 70.943 100.781 67.161 105.173L65.88 103.892C70.638 99.134 74.603 96.755 77.775 96.755C80.459 96.755 82.594 98.158 84.18 100.964C85.766 103.648 86.559 106.454 86.559 109.382C86.559 117.8 83.57 125.791 77.592 133.355C71.248 141.529 63.989 145.616 55.815 145.616C51.545 145.616 48.19 144.091 45.75 141.041C43.432 137.991 42.273 134.27 42.273 129.878C42.273 119.386 46.543 108.223 55.083 96.389C64.355 83.823 73.993 77.54 83.997 77.54C89.975 77.54 94.977 80.529 99.003 86.507C102.541 91.875 104.31 97.67 104.31 103.892ZM131.569 133.658L131.455 133.886L109.567 131.264L114.241 120.776L131.569 133.658ZM128.263 148.82C128.263 144.944 127.921 141.752 122.449 140.726V140.27L139.207 139.244V178.346C139.207 184.388 140.119 185.756 145.705 187.352V187.58L129.061 191.684H128.719L128.263 181.082C124.843 187.694 119.599 191.684 113.215 191.684C106.147 191.684 101.017 187.352 101.017 177.662V149.162C101.017 145.286 100.789 142.094 95.3165 141.068V140.612L112.075 139.244V172.076C112.075 179.828 113.785 184.958 120.055 184.958C123.247 184.958 127.009 182.222 128.263 179.486V148.82ZM185.38 138.104C194.614 138.104 200.656 145.058 200.428 157.256H173.41C173.41 157.94 173.41 158.738 173.41 159.422C173.524 167.288 175.006 174.128 177.856 178.802C180.364 183.02 184.924 185.528 189.028 185.414C193.132 185.3 197.236 183.932 200.2 179.828L200.542 179.942C196.666 187.58 191.878 191.684 183.442 191.684C177.172 191.684 172.156 189.404 168.736 184.958C165.088 180.17 163.15 173.558 163.15 165.35C163.264 149.162 171.928 138.104 185.38 138.104ZM173.524 156.002H190.51C190.51 148.136 188.914 139.472 182.644 139.472C176.944 139.472 173.98 147.566 173.524 156.002ZM221.45 139.472C216.206 139.244 211.532 142.208 211.532 148.364C211.532 155.66 218.03 157.94 224.984 159.992C231.824 161.93 238.778 165.122 238.664 175.04C238.55 186.896 230 191.684 220.652 191.684C217.004 191.684 207.884 191.228 203.894 188.606L203.666 173.9H204.35C208.112 185.3 216.206 190.316 222.818 190.316C227.834 190.316 231.71 187.124 231.71 181.652C231.71 175.496 226.922 173.102 221.564 171.392C213.812 168.998 204.122 165.464 204.122 154.52C204.236 143.462 213.014 138.104 222.818 138.104C228.062 138.104 233.762 139.7 236.726 141.752L234.674 155.546H234.104C230.798 146.312 227.378 139.7 221.45 139.472ZM244.624 178.802V149.048C244.624 145.058 244.624 142.778 238.924 142.436V141.98C245.422 138.674 250.438 134.684 255.112 126.248H255.568V139.244H267.652V142.436H255.568V177.548C255.568 183.476 257.734 186.326 261.838 186.326C264.802 186.326 267.766 184.958 269.362 183.362L269.59 183.704C266.854 188.15 261.268 191.684 255.226 191.684C248.728 191.684 244.624 187.808 244.624 178.802ZM292.194 180.512V128.528C292.194 123.512 292.194 120.434 285.354 119.636V119.18L303.024 111.884H303.252V180.512C303.252 186.554 303.252 188.72 309.75 190.544V191H285.354V190.544C292.194 188.72 292.194 186.668 292.194 180.512ZM331.888 138.104C341.122 138.104 347.164 145.058 346.936 157.256H319.918C319.918 157.94 319.918 158.738 319.918 159.422C320.032 167.288 321.514 174.128 324.364 178.802C326.872 183.02 331.432 185.528 335.536 185.414C339.64 185.3 343.744 183.932 346.708 179.828L347.05 179.942C343.174 187.58 338.386 191.684 329.95 191.684C323.68 191.684 318.664 189.404 315.244 184.958C311.596 180.17 309.658 173.558 309.658 165.35C309.772 149.162 318.436 138.104 331.888 138.104ZM320.032 156.002H337.018C337.018 148.136 335.422 139.472 329.152 139.472C323.452 139.472 320.488 147.566 320.032 156.002ZM369.98 178.802V149.048C369.98 145.058 369.98 142.778 364.28 142.436V141.98C370.778 138.674 375.794 134.684 380.468 126.248H380.924V139.244H393.008V142.436H380.924V177.548C380.924 183.476 383.09 186.326 387.194 186.326C390.158 186.326 393.122 184.958 394.718 183.362L394.946 183.704C392.21 188.15 386.624 191.684 380.582 191.684C374.084 191.684 369.98 187.808 369.98 178.802ZM415.941 138.104C425.175 138.104 431.217 145.058 430.989 157.256H403.971C403.971 157.94 403.971 158.738 403.971 159.422C404.085 167.288 405.567 174.128 408.417 178.802C410.925 183.02 415.485 185.528 419.589 185.414C423.693 185.3 427.797 183.932 430.761 179.828L431.103 179.942C427.227 187.58 422.439 191.684 414.003 191.684C407.733 191.684 402.717 189.404 399.297 184.958C395.649 180.17 393.711 173.558 393.711 165.35C393.825 149.162 402.489 138.104 415.941 138.104ZM404.085 156.002H421.071C421.071 148.136 419.475 139.472 413.205 139.472C407.505 139.472 404.541 147.566 404.085 156.002ZM455.351 138.104C464.585 138.104 470.627 145.058 470.399 157.256H443.381C443.381 157.94 443.381 158.738 443.381 159.422C443.495 167.288 444.977 174.128 447.827 178.802C450.335 183.02 454.895 185.528 458.999 185.414C463.103 185.3 467.207 183.932 470.171 179.828L470.513 179.942C466.637 187.58 461.849 191.684 453.413 191.684C447.143 191.684 442.127 189.404 438.707 184.958C435.059 180.17 433.121 173.558 433.121 165.35C433.235 149.162 441.899 138.104 455.351 138.104ZM443.495 156.002H460.481C460.481 148.136 458.885 139.472 452.615 139.472C446.915 139.472 443.951 147.566 443.495 156.002ZM492.873 125.45L495.153 113.252C498.573 112.682 501.651 112.454 504.387 112.454C516.699 112.454 521.031 118.382 521.259 124.88C521.373 128.3 520.347 131.948 518.751 135.026C515.445 141.296 509.517 145.628 505.299 152.924C502.791 157.37 500.853 162.842 500.511 170.594H499.941C499.599 161.132 496.407 148.706 498.573 143.576C500.967 137.99 509.403 135.824 514.989 132.746C517.953 131.15 520.119 129.212 520.119 127.046C520.119 124.082 516.243 123.512 510.315 123.512C505.527 123.512 499.485 124.196 492.873 125.45ZM500.283 177.776C503.475 177.776 506.211 180.74 506.211 184.73C506.211 188.492 503.475 191.57 500.283 191.57C496.863 191.57 494.241 188.492 494.241 184.73C494.241 180.74 496.863 177.776 500.283 177.776Z" fill="#E7B276"/>
</g>
<defs>
<clipPath id="clip0_1037_1030">
<rect width="526" height="236" fill="white"/>
</clipPath>
</defs>
</svg>
